%TF.GenerationSoftware,KiCad,Pcbnew,(6.0.5)*%
%TF.CreationDate,2022-05-27T10:16:45-05:00*%
%TF.ProjectId,Placa-Final,506c6163-612d-4466-996e-616c2e6b6963,rev?*%
%TF.SameCoordinates,Original*%
%TF.FileFunction,Soldermask,Bot*%
%TF.FilePolarity,Negative*%
%FSLAX46Y46*%
G04 Gerber Fmt 4.6, Leading zero omitted, Abs format (unit mm)*
G04 Created by KiCad (PCBNEW (6.0.5)) date 2022-05-27 10:16:45*
%MOMM*%
%LPD*%
G01*
G04 APERTURE LIST*
%ADD10C,1.800000*%
%ADD11R,1.800000X1.800000*%
%ADD12C,2.500000*%
%ADD13R,1.700000X1.700000*%
%ADD14O,1.700000X1.700000*%
%ADD15C,2.000000*%
%ADD16C,3.800000*%
%ADD17R,2.000000X2.000000*%
%ADD18R,1.600000X1.600000*%
%ADD19O,1.600000X1.600000*%
G04 APERTURE END LIST*
D10*
%TO.C,U3*%
X90658400Y-35883900D03*
X90658400Y-38423900D03*
X90658400Y-40963900D03*
X90658400Y-43503900D03*
X90658400Y-46043900D03*
X90658400Y-48583900D03*
%TD*%
D11*
%TO.C,RV1*%
X113813300Y-70804800D03*
D10*
X113813300Y-68304800D03*
X113813300Y-65804800D03*
%TD*%
D12*
%TO.C,U5*%
X32447100Y-72079700D03*
X32447100Y-90079700D03*
X73447100Y-72079700D03*
X73447100Y-90079700D03*
%TD*%
D13*
%TO.C,BT1*%
X95159100Y-117885000D03*
D14*
X97699100Y-117885000D03*
%TD*%
D10*
%TO.C,U8*%
X89837200Y-56408700D03*
X89837200Y-58948700D03*
X89837200Y-61488700D03*
X89837200Y-64028700D03*
X89837200Y-66568700D03*
X89837200Y-69108700D03*
X89837200Y-71648700D03*
D15*
X103837200Y-62278700D03*
X103837200Y-65778700D03*
%TD*%
D16*
%TO.C,*%
X82000000Y-34500000D03*
%TD*%
D11*
%TO.C,D1*%
X124460000Y-78660000D03*
D10*
X121920000Y-78660000D03*
%TD*%
D17*
%TO.C,U9*%
X105640100Y-128247000D03*
X105640100Y-125707000D03*
X105640100Y-116787000D03*
X105640100Y-114247000D03*
%TD*%
D16*
%TO.C,*%
X33950000Y-125690000D03*
%TD*%
D10*
%TO.C,U4*%
X51416100Y-94588300D03*
X48876100Y-94588300D03*
X46336100Y-94588300D03*
X43796100Y-94588300D03*
X41256100Y-94588300D03*
%TD*%
D18*
%TO.C,CB1*%
X92752500Y-127000000D03*
D19*
X100372500Y-127000000D03*
%TD*%
D13*
%TO.C,U2*%
X71120000Y-33020000D03*
D14*
X73660000Y-33020000D03*
%TD*%
D11*
%TO.C,D2*%
X106680000Y-78740000D03*
D10*
X104140000Y-78740000D03*
%TD*%
D15*
%TO.C,SW4*%
X77961400Y-117395300D03*
X77961400Y-123895300D03*
X82461400Y-117395300D03*
X82461400Y-123895300D03*
%TD*%
D16*
%TO.C,*%
X125600000Y-34500000D03*
%TD*%
D10*
%TO.C,U6*%
X127440300Y-102400500D03*
X127440300Y-84400500D03*
X87440300Y-102400500D03*
X87440300Y-84400500D03*
%TD*%
D15*
%TO.C,SW1*%
X43475000Y-61475100D03*
X36975000Y-61475100D03*
X43475000Y-65975100D03*
X36975000Y-65975100D03*
%TD*%
D16*
%TO.C,*%
X82000000Y-72000000D03*
%TD*%
D15*
%TO.C,SW2*%
X63571100Y-61538400D03*
X57071100Y-61538400D03*
X57071100Y-66038400D03*
X63571100Y-66038400D03*
%TD*%
D13*
%TO.C,U7*%
X82540000Y-96520000D03*
D14*
X80000000Y-96520000D03*
X77460000Y-96520000D03*
X74920000Y-96520000D03*
%TD*%
D15*
%TO.C,SW3*%
X67801400Y-117395300D03*
X67801400Y-123895300D03*
X72301400Y-117395300D03*
X72301400Y-123895300D03*
%TD*%
D13*
%TO.C,LS1*%
X125493100Y-58420000D03*
D14*
X128033100Y-58420000D03*
%TD*%
M02*
