M48
; DRILL file {KiCad (6.0.5)} date Fri May 27 10:17:05 2022
; FORMAT={-:-/ absolute / metric / decimal}
; #@! TF.CreationDate,2022-05-27T10:17:05-05:00
; #@! TF.GenerationSoftware,Kicad,Pcbnew,(6.0.5)
; #@! TF.FileFunction,Plated,1,2,PTH
FMAT,2
METRIC
; #@! TA.AperFunction,Plated,PTH,ViaDrill
T1C0.400
; #@! TA.AperFunction,Plated,PTH,ComponentDrill
T2C0.800
; #@! TA.AperFunction,Plated,PTH,ComponentDrill
T3C0.900
; #@! TA.AperFunction,Plated,PTH,ComponentDrill
T4C1.000
; #@! TA.AperFunction,Plated,PTH,ComponentDrill
T5C1.100
%
G90
G05
T1
X31.65Y-39.39
X32.2Y-110.04
X32.2Y-111.04
X32.2Y-112.04
X32.2Y-115.19
X32.2Y-116.19
X32.2Y-117.19
X33.2Y-110.04
X33.2Y-111.04
X33.2Y-112.04
X33.2Y-115.19
X33.2Y-116.19
X33.2Y-117.19
X34.2Y-110.04
X34.2Y-111.04
X34.2Y-112.04
X34.2Y-115.19
X34.2Y-116.19
X34.2Y-117.19
X37.488Y-58.31
X37.55Y-115.29
X37.55Y-116.29
X37.55Y-117.29
X37.65Y-104.74
X37.65Y-105.74
X37.65Y-106.74
X37.65Y-110.14
X37.65Y-111.14
X37.65Y-112.14
X38.55Y-115.29
X38.55Y-116.29
X38.55Y-117.29
X38.65Y-104.74
X38.65Y-105.74
X38.65Y-106.74
X38.65Y-110.14
X38.65Y-111.14
X38.65Y-112.14
X39.55Y-115.29
X39.55Y-116.29
X39.55Y-117.29
X39.65Y-104.74
X39.65Y-105.74
X39.65Y-106.74
X39.65Y-110.14
X39.65Y-111.14
X39.65Y-112.14
X40.815Y-57.139
X44.0Y-115.29
X44.0Y-116.29
X44.0Y-117.29
X44.1Y-120.54
X44.1Y-121.54
X44.1Y-122.54
X44.1Y-125.59
X44.1Y-126.59
X44.1Y-127.59
X45.0Y-115.29
X45.0Y-116.29
X45.0Y-117.29
X45.1Y-120.54
X45.1Y-121.54
X45.1Y-122.54
X45.1Y-125.59
X45.1Y-126.59
X45.1Y-127.59
X46.0Y-115.29
X46.0Y-116.29
X46.0Y-117.29
X46.1Y-120.54
X46.1Y-121.54
X46.1Y-122.54
X46.1Y-125.59
X46.1Y-126.59
X46.1Y-127.59
X50.05Y-101.59
X50.05Y-102.59
X50.05Y-103.59
X50.25Y-120.44
X50.25Y-121.44
X50.25Y-122.44
X50.35Y-125.59
X50.35Y-126.59
X50.35Y-127.59
X50.904Y-57.067
X51.05Y-101.59
X51.05Y-102.59
X51.05Y-103.59
X51.25Y-120.44
X51.25Y-121.44
X51.25Y-122.44
X51.35Y-125.59
X51.35Y-126.59
X51.35Y-127.59
X51.754Y-59.196
X52.05Y-101.59
X52.05Y-102.59
X52.05Y-103.59
X52.25Y-120.44
X52.25Y-121.44
X52.25Y-122.44
X52.35Y-125.59
X52.35Y-126.59
X52.35Y-127.59
X56.4Y-101.59
X56.4Y-102.59
X56.4Y-103.59
X56.6Y-37.99
X56.6Y-38.99
X56.6Y-39.99
X56.65Y-107.64
X56.65Y-108.64
X56.65Y-109.64
X57.4Y-101.59
X57.4Y-102.59
X57.4Y-103.59
X57.6Y-37.99
X57.6Y-38.99
X57.6Y-39.99
X57.65Y-107.64
X57.65Y-108.64
X57.65Y-109.64
X58.4Y-101.59
X58.4Y-102.59
X58.4Y-103.59
X58.6Y-37.99
X58.6Y-38.99
X58.6Y-39.99
X58.65Y-107.64
X58.65Y-108.64
X58.65Y-109.64
X60.65Y-35.64
X60.65Y-36.64
X60.65Y-37.64
X61.15Y-31.74
X61.15Y-32.74
X61.15Y-33.74
X61.65Y-35.64
X61.65Y-36.64
X61.65Y-37.64
X62.15Y-31.74
X62.15Y-32.74
X62.15Y-33.74
X62.553Y-112.295
X62.553Y-113.295
X62.553Y-114.295
X62.579Y-107.63
X62.579Y-108.63
X62.579Y-109.63
X62.65Y-35.64
X62.65Y-36.64
X62.65Y-37.64
X63.15Y-31.74
X63.15Y-32.74
X63.15Y-33.74
X63.553Y-112.295
X63.553Y-113.295
X63.553Y-114.295
X63.579Y-107.63
X63.579Y-108.63
X63.579Y-109.63
X64.553Y-112.295
X64.553Y-113.295
X64.553Y-114.295
X64.579Y-107.63
X64.579Y-108.63
X64.579Y-109.63
X72.3Y-39.89
X72.3Y-40.89
X72.3Y-41.89
X72.45Y-54.99
X72.45Y-55.99
X72.45Y-56.99
X73.3Y-39.89
X73.3Y-40.89
X73.3Y-41.89
X73.45Y-54.99
X73.45Y-55.99
X73.45Y-56.99
X74.3Y-39.89
X74.3Y-40.89
X74.3Y-41.89
X74.45Y-54.99
X74.45Y-55.99
X74.45Y-56.99
X76.9Y-39.79
X76.9Y-40.79
X76.9Y-41.79
X77.6Y-54.99
X77.6Y-55.99
X77.6Y-56.99
X77.7Y-59.59
X77.7Y-60.59
X77.7Y-61.59
X77.7Y-64.09
X77.7Y-65.09
X77.7Y-66.09
X77.9Y-39.79
X77.9Y-40.79
X77.9Y-41.79
X78.6Y-54.99
X78.6Y-55.99
X78.6Y-56.99
X78.7Y-59.59
X78.7Y-60.59
X78.7Y-61.59
X78.7Y-64.09
X78.7Y-65.09
X78.7Y-66.09
X78.9Y-39.79
X78.9Y-40.79
X78.9Y-41.79
X79.6Y-54.99
X79.6Y-55.99
X79.6Y-56.99
X79.7Y-59.59
X79.7Y-60.59
X79.7Y-61.59
X79.7Y-64.09
X79.7Y-65.09
X79.7Y-66.09
X81.6Y-39.69
X81.6Y-40.69
X81.6Y-41.69
X82.5Y-59.59
X82.5Y-60.59
X82.5Y-61.59
X82.55Y-64.34
X82.55Y-65.34
X82.55Y-66.34
X82.6Y-39.69
X82.6Y-40.69
X82.6Y-41.69
X83.5Y-59.59
X83.5Y-60.59
X83.5Y-61.59
X83.55Y-64.34
X83.55Y-65.34
X83.55Y-66.34
X83.6Y-39.69
X83.6Y-40.69
X83.6Y-41.69
X84.5Y-59.59
X84.5Y-60.59
X84.5Y-61.59
X84.55Y-64.34
X84.55Y-65.34
X84.55Y-66.34
X87.95Y-106.24
X87.95Y-107.24
X87.95Y-108.24
X88.0Y-110.44
X88.0Y-111.44
X88.0Y-112.44
X88.95Y-106.24
X88.95Y-107.24
X88.95Y-108.24
X89.0Y-110.44
X89.0Y-111.44
X89.0Y-112.44
X89.95Y-106.24
X89.95Y-107.24
X89.95Y-108.24
X90.0Y-110.44
X90.0Y-111.44
X90.0Y-112.44
X92.85Y-106.19
X92.85Y-107.19
X92.85Y-108.19
X93.0Y-110.44
X93.0Y-111.44
X93.0Y-112.44
X93.85Y-106.19
X93.85Y-107.19
X93.85Y-108.19
X94.0Y-110.44
X94.0Y-111.44
X94.0Y-112.44
X94.85Y-106.19
X94.85Y-107.19
X94.85Y-108.19
X95.0Y-110.44
X95.0Y-111.44
X95.0Y-112.44
X97.55Y-110.59
X97.55Y-111.59
X97.55Y-112.59
X97.6Y-106.14
X97.6Y-107.14
X97.6Y-108.14
X98.55Y-110.59
X98.55Y-111.59
X98.55Y-112.59
X98.6Y-106.14
X98.6Y-107.14
X98.6Y-108.14
X99.55Y-110.59
X99.55Y-111.59
X99.55Y-112.59
X99.6Y-106.14
X99.6Y-107.14
X99.6Y-108.14
X99.9Y-32.84
X99.9Y-33.84
X99.9Y-34.84
X100.0Y-40.0
X100.0Y-41.0
X100.0Y-42.0
X100.0Y-48.49
X100.0Y-49.49
X100.0Y-50.49
X100.9Y-32.84
X100.9Y-33.84
X100.9Y-34.84
X101.0Y-40.0
X101.0Y-41.0
X101.0Y-42.0
X101.0Y-48.49
X101.0Y-49.49
X101.0Y-50.49
X101.9Y-32.84
X101.9Y-33.84
X101.9Y-34.84
X102.0Y-40.0
X102.0Y-41.0
X102.0Y-42.0
X102.0Y-48.49
X102.0Y-49.49
X102.0Y-50.49
X102.15Y-106.09
X102.15Y-107.09
X102.15Y-108.09
X103.15Y-106.09
X103.15Y-107.09
X103.15Y-108.09
X104.15Y-106.09
X104.15Y-107.09
X104.15Y-108.09
X107.5Y-105.99
X107.5Y-106.99
X107.5Y-107.99
X108.5Y-105.99
X108.5Y-106.99
X108.5Y-107.99
X108.75Y-32.94
X108.75Y-33.94
X108.75Y-34.94
X108.9Y-39.99
X108.9Y-40.99
X108.9Y-41.99
X108.9Y-48.74
X108.9Y-49.74
X108.9Y-50.74
X109.5Y-105.99
X109.5Y-106.99
X109.5Y-107.99
X109.75Y-32.94
X109.75Y-33.94
X109.75Y-34.94
X109.9Y-39.99
X109.9Y-40.99
X109.9Y-41.99
X109.9Y-48.74
X109.9Y-49.74
X109.9Y-50.74
X110.75Y-32.94
X110.75Y-33.94
X110.75Y-34.94
X110.9Y-39.99
X110.9Y-40.99
X110.9Y-41.99
X110.9Y-48.74
X110.9Y-49.74
X110.9Y-50.74
X115.8Y-32.99
X115.8Y-33.99
X115.8Y-34.99
X116.0Y-40.04
X116.0Y-41.04
X116.0Y-42.04
X116.25Y-48.74
X116.25Y-49.74
X116.25Y-50.74
X116.8Y-32.99
X116.8Y-33.99
X116.8Y-34.99
X117.0Y-40.04
X117.0Y-41.04
X117.0Y-42.04
X117.25Y-48.74
X117.25Y-49.74
X117.25Y-50.74
X117.8Y-32.99
X117.8Y-33.99
X117.8Y-34.99
X118.0Y-40.04
X118.0Y-41.04
X118.0Y-42.04
X118.25Y-48.74
X118.25Y-49.74
X118.25Y-50.74
T2
X92.752Y-127.0
X100.373Y-127.0
T3
X104.14Y-78.74
X106.68Y-78.74
X121.92Y-78.66
X124.46Y-78.66
T4
X32.447Y-72.08
X32.447Y-90.08
X41.256Y-94.588
X43.796Y-94.588
X46.336Y-94.588
X48.876Y-94.588
X51.416Y-94.588
X71.12Y-33.02
X73.447Y-72.08
X73.447Y-90.08
X73.66Y-33.02
X74.92Y-96.52
X77.46Y-96.52
X80.0Y-96.52
X82.54Y-96.52
X87.44Y-84.4
X87.44Y-102.4
X89.837Y-56.409
X89.837Y-58.949
X89.837Y-61.489
X89.837Y-64.029
X89.837Y-66.569
X89.837Y-69.109
X89.837Y-71.649
X90.658Y-35.884
X90.658Y-38.424
X90.658Y-40.964
X90.658Y-43.504
X90.658Y-46.044
X90.658Y-48.584
X95.159Y-117.885
X97.699Y-117.885
X103.837Y-62.279
X103.837Y-65.779
X105.64Y-114.247
X105.64Y-116.787
X105.64Y-125.707
X105.64Y-128.247
X113.813Y-65.805
X113.813Y-68.305
X113.813Y-70.805
X125.493Y-58.42
X127.44Y-84.4
X127.44Y-102.4
X128.033Y-58.42
T5
X36.975Y-61.475
X36.975Y-65.975
X43.475Y-61.475
X43.475Y-65.975
X57.071Y-61.538
X57.071Y-66.038
X63.571Y-61.538
X63.571Y-66.038
X67.801Y-117.395
X67.801Y-123.895
X72.301Y-117.395
X72.301Y-123.895
X77.961Y-117.395
X77.961Y-123.895
X82.461Y-117.395
X82.461Y-123.895
T0
M30
