%TF.GenerationSoftware,KiCad,Pcbnew,(6.0.5)*%
%TF.CreationDate,2022-05-27T10:16:45-05:00*%
%TF.ProjectId,Placa-Final,506c6163-612d-4466-996e-616c2e6b6963,rev?*%
%TF.SameCoordinates,Original*%
%TF.FileFunction,Copper,L2,Bot*%
%TF.FilePolarity,Positive*%
%FSLAX46Y46*%
G04 Gerber Fmt 4.6, Leading zero omitted, Abs format (unit mm)*
G04 Created by KiCad (PCBNEW (6.0.5)) date 2022-05-27 10:16:45*
%MOMM*%
%LPD*%
G01*
G04 APERTURE LIST*
%TA.AperFunction,ComponentPad*%
%ADD10C,1.800000*%
%TD*%
%TA.AperFunction,ComponentPad*%
%ADD11R,1.800000X1.800000*%
%TD*%
%TA.AperFunction,ComponentPad*%
%ADD12C,2.500000*%
%TD*%
%TA.AperFunction,ComponentPad*%
%ADD13R,1.700000X1.700000*%
%TD*%
%TA.AperFunction,ComponentPad*%
%ADD14O,1.700000X1.700000*%
%TD*%
%TA.AperFunction,ComponentPad*%
%ADD15C,2.000000*%
%TD*%
%TA.AperFunction,ComponentPad*%
%ADD16R,2.000000X2.000000*%
%TD*%
%TA.AperFunction,ComponentPad*%
%ADD17R,1.600000X1.600000*%
%TD*%
%TA.AperFunction,ComponentPad*%
%ADD18O,1.600000X1.600000*%
%TD*%
%TA.AperFunction,ViaPad*%
%ADD19C,0.800000*%
%TD*%
%TA.AperFunction,Conductor*%
%ADD20C,1.000000*%
%TD*%
%TA.AperFunction,Conductor*%
%ADD21C,0.250000*%
%TD*%
G04 APERTURE END LIST*
D10*
%TO.P,U3,1,Gnd*%
%TO.N,GND*%
X90658400Y-35883900D03*
%TO.P,U3,2,Vcc*%
%TO.N,+5V*%
X90658400Y-38423900D03*
%TO.P,U3,3,MISO*%
%TO.N,MISO*%
X90658400Y-40963900D03*
%TO.P,U3,4,MOSI*%
%TO.N,MOSI*%
X90658400Y-43503900D03*
%TO.P,U3,5,SCK*%
%TO.N,SCK*%
X90658400Y-46043900D03*
%TO.P,U3,6,CS*%
%TO.N,CS*%
X90658400Y-48583900D03*
%TD*%
D11*
%TO.P,RV1,1,1*%
%TO.N,unconnected-(RV1-Pad1)*%
X113813300Y-70804800D03*
D10*
%TO.P,RV1,2,2*%
%TO.N,Net-(LS1-Pad2)*%
X113813300Y-68304800D03*
%TO.P,RV1,3,3*%
%TO.N,Net-(RV1-Pad3)*%
X113813300Y-65804800D03*
%TD*%
D12*
%TO.P,U5,1,IN+*%
%TO.N,+4V*%
X32447100Y-72079700D03*
%TO.P,U5,2,IN-*%
%TO.N,GND*%
X32447100Y-90079700D03*
%TO.P,U5,3,OUT+*%
%TO.N,+3V3*%
X73447100Y-72079700D03*
%TO.P,U5,4,OUT-*%
%TO.N,GND*%
X73447100Y-90079700D03*
%TD*%
D13*
%TO.P,BT1,1,+*%
%TO.N,Net-(BT1-Pad1)*%
X95159100Y-117885000D03*
D14*
%TO.P,BT1,2,-*%
%TO.N,Net-(BT1-Pad2)*%
X97699100Y-117885000D03*
%TD*%
D10*
%TO.P,U8,1,LRC*%
%TO.N,LRC*%
X89837200Y-56408700D03*
%TO.P,U8,2,BCLK*%
%TO.N,BCLK*%
X89837200Y-58948700D03*
%TO.P,U8,3,DIN*%
%TO.N,DIN*%
X89837200Y-61488700D03*
%TO.P,U8,4,GAIN*%
%TO.N,unconnected-(U8-Pad4)*%
X89837200Y-64028700D03*
%TO.P,U8,5,SD*%
%TO.N,unconnected-(U8-Pad5)*%
X89837200Y-66568700D03*
%TO.P,U8,6,GND*%
%TO.N,GND*%
X89837200Y-69108700D03*
%TO.P,U8,7,Vin*%
%TO.N,+5V*%
X89837200Y-71648700D03*
D15*
%TO.P,U8,8,P-*%
%TO.N,Net-(LS1-Pad1)*%
X103837200Y-62278700D03*
%TO.P,U8,9,P+*%
%TO.N,Net-(RV1-Pad3)*%
X103837200Y-65778700D03*
%TD*%
D11*
%TO.P,D1,1,K*%
%TO.N,GND*%
X124460000Y-78660000D03*
D10*
%TO.P,D1,2,A*%
%TO.N,Net-(D1-Pad2)*%
X121920000Y-78660000D03*
%TD*%
D16*
%TO.P,U9,1,Out+*%
%TO.N,Net-(CB1-Pad2)*%
X105640100Y-128247000D03*
%TO.P,U9,2,Bat+*%
%TO.N,Net-(BT1-Pad1)*%
X105640100Y-125707000D03*
%TO.P,U9,3,Bat-*%
%TO.N,Net-(BT1-Pad2)*%
X105640100Y-116787000D03*
%TO.P,U9,4,Out-*%
%TO.N,GND*%
X105640100Y-114247000D03*
%TD*%
D10*
%TO.P,U4,1,GND*%
%TO.N,GND*%
X51416100Y-94588300D03*
%TO.P,U4,2,VCC*%
%TO.N,+5V*%
X48876100Y-94588300D03*
%TO.P,U4,3,VRx*%
%TO.N,VRX*%
X46336100Y-94588300D03*
%TO.P,U4,4,VRy*%
%TO.N,VRY*%
X43796100Y-94588300D03*
%TO.P,U4,5,SW*%
%TO.N,SW*%
X41256100Y-94588300D03*
%TD*%
D17*
%TO.P,CB1,1*%
%TO.N,+4V*%
X92752500Y-127000000D03*
D18*
%TO.P,CB1,2*%
%TO.N,Net-(CB1-Pad2)*%
X100372500Y-127000000D03*
%TD*%
D13*
%TO.P,U2,1,TXD*%
%TO.N,TX*%
X71120000Y-33020000D03*
D14*
%TO.P,U2,2,RXD*%
%TO.N,RX*%
X73660000Y-33020000D03*
%TD*%
D11*
%TO.P,D2,1,K*%
%TO.N,GND*%
X106680000Y-78740000D03*
D10*
%TO.P,D2,2,A*%
%TO.N,Net-(D2-Pad2)*%
X104140000Y-78740000D03*
%TD*%
D15*
%TO.P,SW4,1,1*%
%TO.N,Net-(R7-Pad2)*%
X77961400Y-117395300D03*
X77961400Y-123895300D03*
%TO.P,SW4,2,2*%
%TO.N,GND*%
X82461400Y-117395300D03*
X82461400Y-123895300D03*
%TD*%
D10*
%TO.P,U6,1,IN+*%
%TO.N,+4V*%
X127440300Y-102400500D03*
%TO.P,U6,2,IN-*%
%TO.N,GND*%
X127440300Y-84400500D03*
%TO.P,U6,3,OUT+*%
%TO.N,+5V*%
X87440300Y-102400500D03*
%TO.P,U6,4,OUT-*%
%TO.N,GND*%
X87440300Y-84400500D03*
%TD*%
D15*
%TO.P,SW1,1,1*%
%TO.N,Net-(C1-Pad1)*%
X43475000Y-61475100D03*
X36975000Y-61475100D03*
%TO.P,SW1,2,2*%
%TO.N,Net-(SW1-Pad2)*%
X43475000Y-65975100D03*
X36975000Y-65975100D03*
%TD*%
%TO.P,SW2,1,1*%
%TO.N,Net-(R3-Pad2)*%
X63571100Y-61538400D03*
X57071100Y-61538400D03*
%TO.P,SW2,2,2*%
%TO.N,Net-(C2-Pad2)*%
X57071100Y-66038400D03*
X63571100Y-66038400D03*
%TD*%
D13*
%TO.P,U7,1,GND*%
%TO.N,GND*%
X82540000Y-96520000D03*
D14*
%TO.P,U7,2,VCC*%
%TO.N,+5V*%
X80000000Y-96520000D03*
%TO.P,U7,3,SDA*%
%TO.N,SADi2c*%
X77460000Y-96520000D03*
%TO.P,U7,4,SCL*%
%TO.N,SCLi2c*%
X74920000Y-96520000D03*
%TD*%
D15*
%TO.P,SW3,1,1*%
%TO.N,Net-(R5-Pad2)*%
X67801400Y-117395300D03*
X67801400Y-123895300D03*
%TO.P,SW3,2,2*%
%TO.N,GND*%
X72301400Y-117395300D03*
X72301400Y-123895300D03*
%TD*%
D13*
%TO.P,LS1,1,1*%
%TO.N,Net-(LS1-Pad1)*%
X125493100Y-58420000D03*
D14*
%TO.P,LS1,2,2*%
%TO.N,Net-(LS1-Pad2)*%
X128033100Y-58420000D03*
%TD*%
D19*
%TO.N,GND*%
X64553290Y-114295319D03*
X63553290Y-113295319D03*
X62553290Y-114295319D03*
X64553290Y-112295319D03*
X64553290Y-113295319D03*
X62553290Y-113295319D03*
X63553290Y-114295319D03*
X63553290Y-112295319D03*
X62553290Y-112295319D03*
X64578923Y-109630126D03*
X63578923Y-108630126D03*
X62578923Y-109630126D03*
X64578923Y-107630126D03*
X64578923Y-108630126D03*
X62578923Y-108630126D03*
X63578923Y-109630126D03*
X63578923Y-107630126D03*
X62578923Y-107630126D03*
X63150000Y-31740000D03*
X92850000Y-108190000D03*
X74300000Y-41890000D03*
X116800000Y-33990000D03*
X116250000Y-50740000D03*
X116800000Y-32990000D03*
X38650000Y-110140000D03*
X83500000Y-60590000D03*
X63150000Y-33740000D03*
X46000000Y-117290000D03*
X50050000Y-101590000D03*
X81600000Y-39690000D03*
X56600000Y-38990000D03*
X73300000Y-39890000D03*
X93000000Y-111440000D03*
X108900000Y-39990000D03*
X51350000Y-125590000D03*
X108900000Y-49740000D03*
X58400000Y-103590000D03*
X50350000Y-126590000D03*
X109900000Y-39990000D03*
X102150000Y-107090000D03*
X117000000Y-40040000D03*
X97600000Y-108140000D03*
X37650000Y-104740000D03*
X110900000Y-48740000D03*
X57650000Y-107640000D03*
X82500000Y-59590000D03*
X58400000Y-101590000D03*
X73300000Y-40890000D03*
X45000000Y-115290000D03*
X37650000Y-105740000D03*
X88000000Y-111440000D03*
X57650000Y-109640000D03*
X89000000Y-111440000D03*
X79700000Y-66090000D03*
X116000000Y-42040000D03*
X78700000Y-59590000D03*
X73450000Y-56990000D03*
X98600000Y-108140000D03*
X110750000Y-34940000D03*
X89950000Y-106240000D03*
X87950000Y-106240000D03*
X44100000Y-120540000D03*
X108900000Y-48740000D03*
X98550000Y-110590000D03*
X58600000Y-38990000D03*
X46100000Y-127590000D03*
X74300000Y-40890000D03*
X104150000Y-108090000D03*
X76900000Y-40790000D03*
X76900000Y-39790000D03*
X110900000Y-49740000D03*
X93000000Y-112440000D03*
X99550000Y-112590000D03*
X38550000Y-117290000D03*
X100000000Y-42000000D03*
X99600000Y-106140000D03*
X101900000Y-34840000D03*
X108500000Y-106990000D03*
X117000000Y-42040000D03*
X81600000Y-40690000D03*
X45100000Y-126590000D03*
X117250000Y-50740000D03*
X93850000Y-106190000D03*
X84550000Y-65340000D03*
X73450000Y-54990000D03*
X100900000Y-34840000D03*
X50350000Y-125590000D03*
X76900000Y-41790000D03*
X92850000Y-107190000D03*
X117000000Y-41040000D03*
X52350000Y-126590000D03*
X72300000Y-39890000D03*
X79700000Y-59590000D03*
X44100000Y-127590000D03*
X79700000Y-65090000D03*
X39650000Y-112140000D03*
X110900000Y-41990000D03*
X93000000Y-110440000D03*
X100000000Y-48490000D03*
X82600000Y-39690000D03*
X78900000Y-40790000D03*
X37650000Y-112140000D03*
X34200000Y-110040000D03*
X87950000Y-108240000D03*
X94000000Y-111440000D03*
X57400000Y-103590000D03*
X78700000Y-64090000D03*
X51250000Y-120440000D03*
X89000000Y-112440000D03*
X103150000Y-107090000D03*
X72300000Y-41890000D03*
X38650000Y-112140000D03*
X50050000Y-102590000D03*
X57600000Y-38990000D03*
X101900000Y-33840000D03*
X58600000Y-37990000D03*
X95000000Y-111440000D03*
X79600000Y-55990000D03*
X77900000Y-40790000D03*
X100000000Y-50490000D03*
X51250000Y-122440000D03*
X108750000Y-33940000D03*
X84500000Y-60590000D03*
X38650000Y-106740000D03*
X78700000Y-60590000D03*
X101900000Y-32840000D03*
X74450000Y-54990000D03*
X87950000Y-107240000D03*
X33200000Y-110040000D03*
X102150000Y-108090000D03*
X56600000Y-37990000D03*
X99550000Y-111590000D03*
X45100000Y-125590000D03*
X78700000Y-61590000D03*
X52050000Y-101590000D03*
X44000000Y-115290000D03*
X78600000Y-56990000D03*
X34200000Y-111040000D03*
X73450000Y-55990000D03*
X74300000Y-39890000D03*
X77700000Y-64090000D03*
X78600000Y-55990000D03*
X52350000Y-127590000D03*
X82550000Y-66340000D03*
X95000000Y-110440000D03*
X37650000Y-111140000D03*
X61150000Y-33740000D03*
X82550000Y-64340000D03*
X32200000Y-117190000D03*
X57400000Y-101590000D03*
X102150000Y-106090000D03*
X82600000Y-41690000D03*
X60650000Y-36640000D03*
X32200000Y-112040000D03*
X109900000Y-48740000D03*
X83550000Y-64340000D03*
X50350000Y-127590000D03*
X44000000Y-117290000D03*
X109900000Y-40990000D03*
X62150000Y-32740000D03*
X52050000Y-102590000D03*
X99600000Y-108140000D03*
X84550000Y-64340000D03*
X84550000Y-66340000D03*
X44100000Y-126590000D03*
X78900000Y-39790000D03*
X78700000Y-65090000D03*
X99550000Y-110590000D03*
X103150000Y-106090000D03*
X77900000Y-39790000D03*
X93850000Y-107190000D03*
X108750000Y-34940000D03*
X79700000Y-60590000D03*
X45100000Y-127590000D03*
X99900000Y-33840000D03*
X107500000Y-106990000D03*
X77600000Y-55990000D03*
X109900000Y-50740000D03*
X99900000Y-34840000D03*
X79600000Y-56990000D03*
X62150000Y-33740000D03*
X117800000Y-34990000D03*
X57400000Y-102590000D03*
X89950000Y-107240000D03*
X101000000Y-49490000D03*
X61650000Y-35640000D03*
X107500000Y-107990000D03*
X34200000Y-116190000D03*
X73300000Y-41890000D03*
X72450000Y-56990000D03*
X52350000Y-125590000D03*
X46000000Y-116290000D03*
X44100000Y-122540000D03*
X46100000Y-126590000D03*
X37550000Y-116290000D03*
X88000000Y-112440000D03*
X62650000Y-36640000D03*
X58650000Y-108640000D03*
X57600000Y-39990000D03*
X50250000Y-120440000D03*
X83600000Y-40690000D03*
X46100000Y-122540000D03*
X89950000Y-108240000D03*
X56650000Y-109640000D03*
X37550000Y-117290000D03*
X115800000Y-32990000D03*
X102000000Y-40000000D03*
X84500000Y-61590000D03*
X95000000Y-112440000D03*
X44100000Y-125590000D03*
X98600000Y-106140000D03*
X110900000Y-50740000D03*
X77600000Y-56990000D03*
X72300000Y-40890000D03*
X104150000Y-106090000D03*
X33200000Y-112040000D03*
X46100000Y-125590000D03*
X97550000Y-111590000D03*
X79700000Y-64090000D03*
X58650000Y-107640000D03*
X83500000Y-59590000D03*
X110900000Y-40990000D03*
X97550000Y-112590000D03*
X94000000Y-110440000D03*
X61150000Y-32740000D03*
X79600000Y-54990000D03*
X38550000Y-116290000D03*
X39550000Y-115290000D03*
X52250000Y-121440000D03*
X39550000Y-116290000D03*
X108500000Y-107990000D03*
X117250000Y-48740000D03*
X39650000Y-106740000D03*
X51050000Y-101590000D03*
X39550000Y-117290000D03*
X116800000Y-34990000D03*
X110900000Y-39990000D03*
X77700000Y-65090000D03*
X52250000Y-122440000D03*
X90000000Y-111440000D03*
X33200000Y-117190000D03*
X34200000Y-117190000D03*
X33200000Y-116190000D03*
X77700000Y-60590000D03*
X63150000Y-32740000D03*
X56650000Y-108640000D03*
X118000000Y-42040000D03*
X118250000Y-48740000D03*
X60650000Y-35640000D03*
X62150000Y-31740000D03*
X110750000Y-33940000D03*
X38650000Y-104740000D03*
X118250000Y-49740000D03*
X98600000Y-107140000D03*
X94000000Y-112440000D03*
X115800000Y-33990000D03*
X82500000Y-60590000D03*
X100000000Y-40000000D03*
X78600000Y-54990000D03*
X56400000Y-102590000D03*
X97600000Y-107140000D03*
X108750000Y-32940000D03*
X46100000Y-121540000D03*
X46100000Y-120540000D03*
X117250000Y-49740000D03*
X50250000Y-122440000D03*
X79700000Y-61590000D03*
X39650000Y-111140000D03*
X101000000Y-40000000D03*
X82550000Y-65340000D03*
X102000000Y-48490000D03*
X51250000Y-121440000D03*
X97600000Y-106140000D03*
X44100000Y-121540000D03*
X83550000Y-65340000D03*
X88950000Y-106240000D03*
X109750000Y-32940000D03*
X118250000Y-50740000D03*
X45100000Y-122540000D03*
X57650000Y-108640000D03*
X60650000Y-37640000D03*
X101000000Y-42000000D03*
X84500000Y-59590000D03*
X78700000Y-66090000D03*
X39650000Y-105740000D03*
X72450000Y-54990000D03*
X108900000Y-41990000D03*
X107500000Y-105990000D03*
X37650000Y-106740000D03*
X100000000Y-41000000D03*
X44000000Y-116290000D03*
X117800000Y-32990000D03*
X38650000Y-105740000D03*
X33200000Y-111040000D03*
X100900000Y-32840000D03*
X94850000Y-107190000D03*
X115800000Y-34990000D03*
X102000000Y-50490000D03*
X45100000Y-121540000D03*
X110750000Y-32940000D03*
X97550000Y-110590000D03*
X108900000Y-50740000D03*
X117800000Y-33990000D03*
X90000000Y-112440000D03*
X100000000Y-49490000D03*
X46000000Y-115290000D03*
X81600000Y-41690000D03*
X61650000Y-36640000D03*
X98550000Y-112590000D03*
X83500000Y-61590000D03*
X50250000Y-121440000D03*
X99900000Y-32840000D03*
X94850000Y-108190000D03*
X102000000Y-49490000D03*
X99600000Y-107140000D03*
X51050000Y-102590000D03*
X74450000Y-56990000D03*
X58650000Y-109640000D03*
X72450000Y-55990000D03*
X62650000Y-37640000D03*
X109500000Y-106990000D03*
X56400000Y-101590000D03*
X118000000Y-41040000D03*
X57600000Y-37990000D03*
X101000000Y-41000000D03*
X52250000Y-120440000D03*
X108500000Y-105990000D03*
X61650000Y-37640000D03*
X82600000Y-40690000D03*
X56600000Y-39990000D03*
X102000000Y-41000000D03*
X45000000Y-117290000D03*
X89000000Y-110440000D03*
X32200000Y-111040000D03*
X101000000Y-48490000D03*
X101000000Y-50490000D03*
X32200000Y-115190000D03*
X51350000Y-127590000D03*
X39650000Y-104740000D03*
X45000000Y-116290000D03*
X51050000Y-103590000D03*
X58600000Y-39990000D03*
X38550000Y-115290000D03*
X109500000Y-107990000D03*
X102000000Y-42000000D03*
X61150000Y-31740000D03*
X108900000Y-40990000D03*
X88000000Y-110440000D03*
X83550000Y-66340000D03*
X77900000Y-41790000D03*
X34200000Y-112040000D03*
X77600000Y-54990000D03*
X100900000Y-33840000D03*
X37550000Y-115290000D03*
X98550000Y-111590000D03*
X34200000Y-115190000D03*
X45100000Y-120540000D03*
X109500000Y-105990000D03*
X32200000Y-110040000D03*
X116000000Y-41040000D03*
X52050000Y-103590000D03*
X90000000Y-110440000D03*
X51350000Y-126590000D03*
X74450000Y-55990000D03*
X88950000Y-107240000D03*
X88950000Y-108240000D03*
X78900000Y-41790000D03*
X77700000Y-66090000D03*
X62650000Y-35640000D03*
X94850000Y-106190000D03*
X103150000Y-108090000D03*
X109750000Y-33940000D03*
X116250000Y-48740000D03*
X92850000Y-106190000D03*
X39650000Y-110140000D03*
X58400000Y-102590000D03*
X56400000Y-103590000D03*
X109900000Y-49740000D03*
X77700000Y-59590000D03*
X116000000Y-40040000D03*
X82500000Y-61590000D03*
X77700000Y-61590000D03*
X104150000Y-107090000D03*
X37650000Y-110140000D03*
X50050000Y-103590000D03*
X116250000Y-49740000D03*
X38650000Y-111140000D03*
X109750000Y-34940000D03*
X83600000Y-39690000D03*
X33200000Y-115190000D03*
X109900000Y-41990000D03*
X56650000Y-107640000D03*
X32200000Y-116190000D03*
X83600000Y-41690000D03*
X93850000Y-108190000D03*
X118000000Y-40040000D03*
%TO.N,+3V3*%
X31650000Y-39390000D03*
X37487775Y-58309503D03*
%TO.N,SCLi2c*%
X50903500Y-57067200D03*
%TO.N,SADi2c*%
X51754400Y-59195900D03*
%TO.N,VRX*%
X40814800Y-57138500D03*
%TD*%
D20*
%TO.N,Net-(BT1-Pad1)*%
X103789100Y-125707000D02*
X99922100Y-121840000D01*
X105640100Y-125707000D02*
X103789100Y-125707000D01*
X99922100Y-121840000D02*
X96500000Y-121840000D01*
X95159100Y-120499100D02*
X95159100Y-117885000D01*
X96500000Y-121840000D02*
X95159100Y-120499100D01*
%TO.N,+3V3*%
X37468272Y-58290000D02*
X32200000Y-58290000D01*
X31650000Y-57740000D02*
X31650000Y-39390000D01*
X32200000Y-58290000D02*
X31650000Y-57740000D01*
X37487775Y-58309503D02*
X37468272Y-58290000D01*
D21*
%TO.N,Net-(R5-Pad2)*%
X67801400Y-123895300D02*
X67801400Y-117395300D01*
%TO.N,Net-(R7-Pad2)*%
X77961400Y-123895300D02*
X77961400Y-117395300D01*
D20*
%TO.N,+5V*%
X94200000Y-41965500D02*
X94200000Y-69990000D01*
X91550000Y-73361500D02*
X91550000Y-92508832D01*
X84594222Y-99437377D02*
X84212961Y-99818638D01*
X94200000Y-69990000D02*
X92541300Y-71648700D01*
X89837200Y-71648700D02*
X91550000Y-73361500D01*
X84574610Y-99464610D02*
X87440300Y-102330300D01*
X91550000Y-92508832D02*
X84594222Y-99464610D01*
X80000000Y-99818638D02*
X80000000Y-96520000D01*
X84212961Y-99818638D02*
X80000000Y-99818638D01*
X90658400Y-38423900D02*
X94200000Y-41965500D01*
X92541300Y-71648700D02*
X89837200Y-71648700D01*
X87440300Y-102330300D02*
X87440300Y-102400500D01*
X84594222Y-99464610D02*
X84574610Y-99464610D01*
D21*
%TO.N,SCLi2c*%
X74920000Y-96520000D02*
X74920000Y-95620000D01*
X75800000Y-94740000D02*
X75800000Y-89040000D01*
X50903500Y-64143500D02*
X50903500Y-57067200D01*
X75800000Y-89040000D02*
X50903500Y-64143500D01*
X74920000Y-95620000D02*
X75800000Y-94740000D01*
%TO.N,SADi2c*%
X77460000Y-96520000D02*
X77460000Y-88415300D01*
X77460000Y-88415300D02*
X51754400Y-62709700D01*
X51754400Y-62709700D02*
X51754400Y-59195900D01*
%TO.N,VRX*%
X46336100Y-94588300D02*
X41265200Y-89517400D01*
X41265100Y-57588800D02*
X40814800Y-57138500D01*
X41265200Y-89517400D02*
X41265200Y-57588800D01*
X41265200Y-57588800D02*
X41265100Y-57588800D01*
%TD*%
%TA.AperFunction,Conductor*%
%TO.N,GND*%
G36*
X129433621Y-30528502D02*
G01*
X129480114Y-30582158D01*
X129491500Y-30634500D01*
X129491500Y-57761237D01*
X129471498Y-57829358D01*
X129417842Y-57875851D01*
X129347568Y-57885955D01*
X129282988Y-57856461D01*
X129249951Y-57811480D01*
X129245149Y-57800437D01*
X129234454Y-57775840D01*
X129165806Y-57669726D01*
X129115922Y-57592617D01*
X129115920Y-57592614D01*
X129113114Y-57588277D01*
X128962770Y-57423051D01*
X128958719Y-57419852D01*
X128958715Y-57419848D01*
X128791514Y-57287800D01*
X128791510Y-57287798D01*
X128787459Y-57284598D01*
X128781748Y-57281445D01*
X128706439Y-57239873D01*
X128591889Y-57176638D01*
X128587020Y-57174914D01*
X128587016Y-57174912D01*
X128386187Y-57103795D01*
X128386183Y-57103794D01*
X128381312Y-57102069D01*
X128376219Y-57101162D01*
X128376216Y-57101161D01*
X128166473Y-57063800D01*
X128166467Y-57063799D01*
X128161384Y-57062894D01*
X128087552Y-57061992D01*
X127943181Y-57060228D01*
X127943179Y-57060228D01*
X127938011Y-57060165D01*
X127717191Y-57093955D01*
X127504856Y-57163357D01*
X127454250Y-57189701D01*
X127351059Y-57243419D01*
X127306707Y-57266507D01*
X127302574Y-57269610D01*
X127302571Y-57269612D01*
X127132200Y-57397530D01*
X127128065Y-57400635D01*
X127054155Y-57477978D01*
X127047383Y-57485064D01*
X126985859Y-57520494D01*
X126914946Y-57517037D01*
X126857160Y-57475791D01*
X126838307Y-57442243D01*
X126796867Y-57331703D01*
X126793715Y-57323295D01*
X126706361Y-57206739D01*
X126589805Y-57119385D01*
X126453416Y-57068255D01*
X126391234Y-57061500D01*
X124594966Y-57061500D01*
X124532784Y-57068255D01*
X124396395Y-57119385D01*
X124279839Y-57206739D01*
X124192485Y-57323295D01*
X124141355Y-57459684D01*
X124134600Y-57521866D01*
X124134600Y-59318134D01*
X124141355Y-59380316D01*
X124192485Y-59516705D01*
X124279839Y-59633261D01*
X124396395Y-59720615D01*
X124532784Y-59771745D01*
X124594966Y-59778500D01*
X126391234Y-59778500D01*
X126453416Y-59771745D01*
X126589805Y-59720615D01*
X126706361Y-59633261D01*
X126793715Y-59516705D01*
X126813409Y-59464171D01*
X126837698Y-59399382D01*
X126880340Y-59342618D01*
X126946902Y-59317918D01*
X127016250Y-59333126D01*
X127050917Y-59361114D01*
X127079350Y-59393938D01*
X127251226Y-59536632D01*
X127444100Y-59649338D01*
X127652792Y-59729030D01*
X127657860Y-59730061D01*
X127657863Y-59730062D01*
X127765117Y-59751883D01*
X127871697Y-59773567D01*
X127876872Y-59773757D01*
X127876874Y-59773757D01*
X128089773Y-59781564D01*
X128089777Y-59781564D01*
X128094937Y-59781753D01*
X128100057Y-59781097D01*
X128100059Y-59781097D01*
X128311388Y-59754025D01*
X128311389Y-59754025D01*
X128316516Y-59753368D01*
X128321466Y-59751883D01*
X128525529Y-59690661D01*
X128525534Y-59690659D01*
X128530484Y-59689174D01*
X128731094Y-59590896D01*
X128912960Y-59461173D01*
X129071196Y-59303489D01*
X129078794Y-59292916D01*
X129198535Y-59126277D01*
X129201553Y-59122077D01*
X129229478Y-59065576D01*
X129252543Y-59018906D01*
X129300656Y-58966699D01*
X129369358Y-58948792D01*
X129436834Y-58970870D01*
X129481662Y-59025924D01*
X129491500Y-59074733D01*
X129491500Y-129365500D01*
X129471498Y-129433621D01*
X129417842Y-129480114D01*
X129365500Y-129491500D01*
X107267697Y-129491500D01*
X107199576Y-129471498D01*
X107153083Y-129417842D01*
X107142434Y-129351892D01*
X107148231Y-129298531D01*
X107148600Y-129295134D01*
X107148600Y-127198866D01*
X107141845Y-127136684D01*
X107098563Y-127021229D01*
X107093380Y-126950423D01*
X107098563Y-126932770D01*
X107139071Y-126824715D01*
X107141845Y-126817316D01*
X107148600Y-126755134D01*
X107148600Y-124658866D01*
X107141845Y-124596684D01*
X107090715Y-124460295D01*
X107003361Y-124343739D01*
X106886805Y-124256385D01*
X106750416Y-124205255D01*
X106688234Y-124198500D01*
X104591966Y-124198500D01*
X104529784Y-124205255D01*
X104393395Y-124256385D01*
X104276839Y-124343739D01*
X104190317Y-124459185D01*
X104190314Y-124459188D01*
X104189485Y-124460295D01*
X104189325Y-124460175D01*
X104142760Y-124506633D01*
X104073369Y-124521646D01*
X104006877Y-124496759D01*
X103993406Y-124485072D01*
X100678955Y-121170621D01*
X100669853Y-121160478D01*
X100649997Y-121135782D01*
X100646132Y-121130975D01*
X100607678Y-121098708D01*
X100604031Y-121095528D01*
X100602219Y-121093885D01*
X100600025Y-121091691D01*
X100566751Y-121064358D01*
X100565953Y-121063696D01*
X100494626Y-121003846D01*
X100489956Y-121001278D01*
X100485839Y-120997897D01*
X100404014Y-120954023D01*
X100402855Y-120953394D01*
X100326719Y-120911538D01*
X100326711Y-120911535D01*
X100321313Y-120908567D01*
X100316231Y-120906955D01*
X100311537Y-120904438D01*
X100222569Y-120877238D01*
X100221541Y-120876918D01*
X100132794Y-120848765D01*
X100127498Y-120848171D01*
X100122402Y-120846613D01*
X100029843Y-120837210D01*
X100028707Y-120837089D01*
X99995092Y-120833319D01*
X99982370Y-120831892D01*
X99982366Y-120831892D01*
X99978873Y-120831500D01*
X99975346Y-120831500D01*
X99974361Y-120831445D01*
X99968681Y-120830998D01*
X99939275Y-120828011D01*
X99931763Y-120827248D01*
X99931761Y-120827248D01*
X99925638Y-120826626D01*
X99883359Y-120830623D01*
X99879991Y-120830941D01*
X99868133Y-120831500D01*
X96969926Y-120831500D01*
X96901805Y-120811498D01*
X96880831Y-120794596D01*
X96204505Y-120118271D01*
X96170480Y-120055958D01*
X96167600Y-120029175D01*
X96167600Y-119306009D01*
X96187602Y-119237888D01*
X96241258Y-119191395D01*
X96246794Y-119189097D01*
X96247396Y-119188768D01*
X96255805Y-119185615D01*
X96372361Y-119098261D01*
X96459715Y-118981705D01*
X96494196Y-118889728D01*
X96503698Y-118864382D01*
X96546340Y-118807618D01*
X96612902Y-118782918D01*
X96682250Y-118798126D01*
X96716917Y-118826114D01*
X96745350Y-118858938D01*
X96917226Y-119001632D01*
X97110100Y-119114338D01*
X97318792Y-119194030D01*
X97323860Y-119195061D01*
X97323863Y-119195062D01*
X97431117Y-119216883D01*
X97537697Y-119238567D01*
X97542872Y-119238757D01*
X97542874Y-119238757D01*
X97755773Y-119246564D01*
X97755777Y-119246564D01*
X97760937Y-119246753D01*
X97766057Y-119246097D01*
X97766059Y-119246097D01*
X97977388Y-119219025D01*
X97977389Y-119219025D01*
X97982516Y-119218368D01*
X97987466Y-119216883D01*
X98191529Y-119155661D01*
X98191534Y-119155659D01*
X98196484Y-119154174D01*
X98397094Y-119055896D01*
X98578960Y-118926173D01*
X98737196Y-118768489D01*
X98757305Y-118740505D01*
X98864535Y-118591277D01*
X98867553Y-118587077D01*
X98926169Y-118468477D01*
X98964236Y-118391453D01*
X98964237Y-118391451D01*
X98966530Y-118386811D01*
X99031470Y-118173069D01*
X99060629Y-117951590D01*
X99060711Y-117948240D01*
X99062174Y-117888365D01*
X99062174Y-117888361D01*
X99062256Y-117885000D01*
X99058156Y-117835134D01*
X104131600Y-117835134D01*
X104138355Y-117897316D01*
X104189485Y-118033705D01*
X104276839Y-118150261D01*
X104393395Y-118237615D01*
X104529784Y-118288745D01*
X104591966Y-118295500D01*
X106688234Y-118295500D01*
X106750416Y-118288745D01*
X106886805Y-118237615D01*
X107003361Y-118150261D01*
X107090715Y-118033705D01*
X107141845Y-117897316D01*
X107148600Y-117835134D01*
X107148600Y-115738866D01*
X107141845Y-115676684D01*
X107098296Y-115560517D01*
X107093113Y-115489711D01*
X107098296Y-115472058D01*
X107138578Y-115364606D01*
X107142205Y-115349351D01*
X107147731Y-115298486D01*
X107148100Y-115291672D01*
X107148100Y-114519115D01*
X107143625Y-114503876D01*
X107142235Y-114502671D01*
X107134552Y-114501000D01*
X104150216Y-114501000D01*
X104134977Y-114505475D01*
X104133772Y-114506865D01*
X104132101Y-114514548D01*
X104132101Y-115291669D01*
X104132471Y-115298490D01*
X104137995Y-115349352D01*
X104141621Y-115364604D01*
X104181904Y-115472058D01*
X104187087Y-115542865D01*
X104181905Y-115560515D01*
X104138355Y-115676684D01*
X104131600Y-115738866D01*
X104131600Y-117835134D01*
X99058156Y-117835134D01*
X99043952Y-117662361D01*
X98989531Y-117445702D01*
X98900454Y-117240840D01*
X98779114Y-117053277D01*
X98628770Y-116888051D01*
X98624719Y-116884852D01*
X98624715Y-116884848D01*
X98457514Y-116752800D01*
X98457510Y-116752798D01*
X98453459Y-116749598D01*
X98257889Y-116641638D01*
X98253020Y-116639914D01*
X98253016Y-116639912D01*
X98052187Y-116568795D01*
X98052183Y-116568794D01*
X98047312Y-116567069D01*
X98042219Y-116566162D01*
X98042216Y-116566161D01*
X97832473Y-116528800D01*
X97832467Y-116528799D01*
X97827384Y-116527894D01*
X97753552Y-116526992D01*
X97609181Y-116525228D01*
X97609179Y-116525228D01*
X97604011Y-116525165D01*
X97383191Y-116558955D01*
X97170856Y-116628357D01*
X97140543Y-116644137D01*
X97008430Y-116712911D01*
X96972707Y-116731507D01*
X96968574Y-116734610D01*
X96968571Y-116734612D01*
X96798200Y-116862530D01*
X96794065Y-116865635D01*
X96737637Y-116924684D01*
X96713383Y-116950064D01*
X96651859Y-116985494D01*
X96580946Y-116982037D01*
X96523160Y-116940791D01*
X96504307Y-116907243D01*
X96462867Y-116796703D01*
X96459715Y-116788295D01*
X96372361Y-116671739D01*
X96255805Y-116584385D01*
X96119416Y-116533255D01*
X96057234Y-116526500D01*
X94260966Y-116526500D01*
X94198784Y-116533255D01*
X94062395Y-116584385D01*
X93945839Y-116671739D01*
X93858485Y-116788295D01*
X93807355Y-116924684D01*
X93800600Y-116986866D01*
X93800600Y-118783134D01*
X93807355Y-118845316D01*
X93858485Y-118981705D01*
X93945839Y-119098261D01*
X94062395Y-119185615D01*
X94070804Y-119188767D01*
X94078675Y-119193077D01*
X94077764Y-119194741D01*
X94125590Y-119230663D01*
X94150293Y-119297224D01*
X94150600Y-119306009D01*
X94150600Y-120437257D01*
X94149863Y-120450864D01*
X94145776Y-120488488D01*
X94146313Y-120494623D01*
X94150150Y-120538488D01*
X94150479Y-120543314D01*
X94150600Y-120545786D01*
X94150600Y-120548869D01*
X94150901Y-120551937D01*
X94154790Y-120591606D01*
X94154912Y-120592919D01*
X94163013Y-120685513D01*
X94164500Y-120690632D01*
X94165020Y-120695933D01*
X94191891Y-120784934D01*
X94192226Y-120786067D01*
X94210270Y-120848171D01*
X94218191Y-120875436D01*
X94220644Y-120880168D01*
X94222184Y-120885269D01*
X94225078Y-120890712D01*
X94265831Y-120967360D01*
X94266443Y-120968526D01*
X94286804Y-121007805D01*
X94309208Y-121051026D01*
X94312531Y-121055189D01*
X94315034Y-121059896D01*
X94373855Y-121132018D01*
X94374546Y-121132874D01*
X94405838Y-121172073D01*
X94408342Y-121174577D01*
X94408984Y-121175295D01*
X94412685Y-121179628D01*
X94440035Y-121213162D01*
X94444782Y-121217089D01*
X94444784Y-121217091D01*
X94475362Y-121242387D01*
X94484142Y-121250377D01*
X95743145Y-122509379D01*
X95752247Y-122519522D01*
X95775968Y-122549025D01*
X95780696Y-122552992D01*
X95814421Y-122581291D01*
X95818069Y-122584472D01*
X95819881Y-122586115D01*
X95822075Y-122588309D01*
X95855349Y-122615642D01*
X95856147Y-122616304D01*
X95927474Y-122676154D01*
X95932144Y-122678722D01*
X95936261Y-122682103D01*
X95994145Y-122713140D01*
X96018086Y-122725977D01*
X96019245Y-122726606D01*
X96095381Y-122768462D01*
X96095389Y-122768465D01*
X96100787Y-122771433D01*
X96105869Y-122773045D01*
X96110563Y-122775562D01*
X96199531Y-122802762D01*
X96200559Y-122803082D01*
X96289306Y-122831235D01*
X96294602Y-122831829D01*
X96299698Y-122833387D01*
X96392257Y-122842790D01*
X96393393Y-122842911D01*
X96427008Y-122846681D01*
X96439730Y-122848108D01*
X96439734Y-122848108D01*
X96443227Y-122848500D01*
X96446754Y-122848500D01*
X96447739Y-122848555D01*
X96453419Y-122849002D01*
X96482825Y-122851989D01*
X96490337Y-122852752D01*
X96490339Y-122852752D01*
X96496462Y-122853374D01*
X96542108Y-122849059D01*
X96553967Y-122848500D01*
X99452175Y-122848500D01*
X99520296Y-122868502D01*
X99541270Y-122885405D01*
X103032245Y-126376379D01*
X103041347Y-126386522D01*
X103065068Y-126416025D01*
X103069796Y-126419992D01*
X103103521Y-126448291D01*
X103107169Y-126451472D01*
X103108981Y-126453115D01*
X103111175Y-126455309D01*
X103144449Y-126482642D01*
X103145247Y-126483304D01*
X103216574Y-126543154D01*
X103221244Y-126545722D01*
X103225361Y-126549103D01*
X103283245Y-126580140D01*
X103307186Y-126592977D01*
X103308345Y-126593606D01*
X103384481Y-126635462D01*
X103384489Y-126635465D01*
X103389887Y-126638433D01*
X103394969Y-126640045D01*
X103399663Y-126642562D01*
X103405554Y-126644363D01*
X103488577Y-126669747D01*
X103489835Y-126670139D01*
X103578406Y-126698235D01*
X103583697Y-126698829D01*
X103588798Y-126700388D01*
X103681363Y-126709790D01*
X103682550Y-126709916D01*
X103711938Y-126713213D01*
X103728830Y-126715108D01*
X103728835Y-126715108D01*
X103732327Y-126715500D01*
X103735852Y-126715500D01*
X103736837Y-126715555D01*
X103742532Y-126716003D01*
X103754442Y-126717213D01*
X103779434Y-126719752D01*
X103779439Y-126719752D01*
X103785562Y-126720374D01*
X103831208Y-126716059D01*
X103843067Y-126715500D01*
X104015607Y-126715500D01*
X104083728Y-126735502D01*
X104130221Y-126789158D01*
X104137643Y-126810763D01*
X104138355Y-126817316D01*
X104141127Y-126824711D01*
X104141128Y-126824714D01*
X104181637Y-126932770D01*
X104186820Y-127003577D01*
X104181638Y-127021228D01*
X104138355Y-127136684D01*
X104131600Y-127198866D01*
X104131600Y-129295134D01*
X104131969Y-129298531D01*
X104137766Y-129351892D01*
X104125238Y-129421774D01*
X104076918Y-129473790D01*
X104012503Y-129491500D01*
X30634500Y-129491500D01*
X30566379Y-129471498D01*
X30519886Y-129417842D01*
X30508500Y-129365500D01*
X30508500Y-125588935D01*
X31538658Y-125588935D01*
X31538745Y-125592936D01*
X31538745Y-125592943D01*
X31544626Y-125862477D01*
X31545361Y-125896150D01*
X31591047Y-126200024D01*
X31592142Y-126203882D01*
X31592143Y-126203885D01*
X31671486Y-126483348D01*
X31674973Y-126495629D01*
X31795781Y-126778174D01*
X31951510Y-127043079D01*
X32139638Y-127286049D01*
X32357113Y-127503145D01*
X32360294Y-127505599D01*
X32360295Y-127505600D01*
X32562056Y-127661257D01*
X32600411Y-127690848D01*
X32603890Y-127692885D01*
X32784255Y-127798493D01*
X32865587Y-127846115D01*
X32869272Y-127847683D01*
X32869276Y-127847685D01*
X32878315Y-127851531D01*
X33148343Y-127966429D01*
X33444094Y-128049840D01*
X33665560Y-128082741D01*
X33744748Y-128094505D01*
X33744750Y-128094505D01*
X33748047Y-128094995D01*
X33751378Y-128095135D01*
X33751382Y-128095135D01*
X33788335Y-128096683D01*
X33831677Y-128098500D01*
X34027740Y-128098500D01*
X34151644Y-128090596D01*
X34252657Y-128084153D01*
X34252662Y-128084152D01*
X34256665Y-128083897D01*
X34260602Y-128083135D01*
X34260604Y-128083135D01*
X34316195Y-128072379D01*
X34558359Y-128025526D01*
X34562174Y-128024268D01*
X34562178Y-128024267D01*
X34846368Y-127930556D01*
X34846373Y-127930554D01*
X34850191Y-127929295D01*
X35019967Y-127848134D01*
X91444000Y-127848134D01*
X91450755Y-127910316D01*
X91501885Y-128046705D01*
X91589239Y-128163261D01*
X91705795Y-128250615D01*
X91842184Y-128301745D01*
X91904366Y-128308500D01*
X93600634Y-128308500D01*
X93662816Y-128301745D01*
X93799205Y-128250615D01*
X93915761Y-128163261D01*
X94003115Y-128046705D01*
X94054245Y-127910316D01*
X94061000Y-127848134D01*
X94061000Y-127000000D01*
X99059002Y-127000000D01*
X99078957Y-127228087D01*
X99080381Y-127233400D01*
X99080381Y-127233402D01*
X99132787Y-127428980D01*
X99138216Y-127449243D01*
X99140539Y-127454224D01*
X99140539Y-127454225D01*
X99232651Y-127651762D01*
X99232654Y-127651767D01*
X99234977Y-127656749D01*
X99260280Y-127692885D01*
X99334228Y-127798493D01*
X99366302Y-127844300D01*
X99528200Y-128006198D01*
X99532708Y-128009355D01*
X99532711Y-128009357D01*
X99590527Y-128049840D01*
X99715751Y-128137523D01*
X99720733Y-128139846D01*
X99720738Y-128139849D01*
X99918275Y-128231961D01*
X99923257Y-128234284D01*
X99928565Y-128235706D01*
X99928567Y-128235707D01*
X100139098Y-128292119D01*
X100139100Y-128292119D01*
X100144413Y-128293543D01*
X100372500Y-128313498D01*
X100600587Y-128293543D01*
X100605900Y-128292119D01*
X100605902Y-128292119D01*
X100816433Y-128235707D01*
X100816435Y-128235706D01*
X100821743Y-128234284D01*
X100826725Y-128231961D01*
X101024262Y-128139849D01*
X101024267Y-128139846D01*
X101029249Y-128137523D01*
X101154473Y-128049840D01*
X101212289Y-128009357D01*
X101212292Y-128009355D01*
X101216800Y-128006198D01*
X101378698Y-127844300D01*
X101410773Y-127798493D01*
X101484720Y-127692885D01*
X101510023Y-127656749D01*
X101512346Y-127651767D01*
X101512349Y-127651762D01*
X101604461Y-127454225D01*
X101604461Y-127454224D01*
X101606784Y-127449243D01*
X101612214Y-127428980D01*
X101664619Y-127233402D01*
X101664619Y-127233400D01*
X101666043Y-127228087D01*
X101685998Y-127000000D01*
X101666043Y-126771913D01*
X101661547Y-126755134D01*
X101608207Y-126556067D01*
X101608206Y-126556065D01*
X101606784Y-126550757D01*
X101601393Y-126539195D01*
X101512349Y-126348238D01*
X101512346Y-126348233D01*
X101510023Y-126343251D01*
X101378698Y-126155700D01*
X101216800Y-125993802D01*
X101212292Y-125990645D01*
X101212289Y-125990643D01*
X101071603Y-125892134D01*
X101029249Y-125862477D01*
X101024267Y-125860154D01*
X101024262Y-125860151D01*
X100826725Y-125768039D01*
X100826724Y-125768039D01*
X100821743Y-125765716D01*
X100816435Y-125764294D01*
X100816433Y-125764293D01*
X100605902Y-125707881D01*
X100605900Y-125707881D01*
X100600587Y-125706457D01*
X100372500Y-125686502D01*
X100144413Y-125706457D01*
X100139100Y-125707881D01*
X100139098Y-125707881D01*
X99928567Y-125764293D01*
X99928565Y-125764294D01*
X99923257Y-125765716D01*
X99918276Y-125768039D01*
X99918275Y-125768039D01*
X99720738Y-125860151D01*
X99720733Y-125860154D01*
X99715751Y-125862477D01*
X99673397Y-125892134D01*
X99532711Y-125990643D01*
X99532708Y-125990645D01*
X99528200Y-125993802D01*
X99366302Y-126155700D01*
X99234977Y-126343251D01*
X99232654Y-126348233D01*
X99232651Y-126348238D01*
X99143607Y-126539195D01*
X99138216Y-126550757D01*
X99136794Y-126556065D01*
X99136793Y-126556067D01*
X99083453Y-126755134D01*
X99078957Y-126771913D01*
X99059002Y-127000000D01*
X94061000Y-127000000D01*
X94061000Y-126151866D01*
X94054245Y-126089684D01*
X94003115Y-125953295D01*
X93915761Y-125836739D01*
X93799205Y-125749385D01*
X93662816Y-125698255D01*
X93600634Y-125691500D01*
X91904366Y-125691500D01*
X91842184Y-125698255D01*
X91705795Y-125749385D01*
X91589239Y-125836739D01*
X91501885Y-125953295D01*
X91450755Y-126089684D01*
X91444000Y-126151866D01*
X91444000Y-127848134D01*
X35019967Y-127848134D01*
X35127429Y-127796762D01*
X35130794Y-127794589D01*
X35130798Y-127794587D01*
X35382214Y-127632250D01*
X35382220Y-127632245D01*
X35385580Y-127630076D01*
X35620459Y-127431939D01*
X35802704Y-127233402D01*
X35825543Y-127208521D01*
X35825545Y-127208519D01*
X35828258Y-127205563D01*
X36005608Y-126954619D01*
X36132214Y-126716004D01*
X36147751Y-126686722D01*
X36147751Y-126686721D01*
X36149634Y-126683173D01*
X36154694Y-126669747D01*
X36256585Y-126399388D01*
X36256587Y-126399382D01*
X36258002Y-126395627D01*
X36328955Y-126096642D01*
X36361342Y-125791065D01*
X36360551Y-125754771D01*
X36354727Y-125487866D01*
X36354726Y-125487860D01*
X36354639Y-125483850D01*
X36308953Y-125179976D01*
X36225027Y-124884371D01*
X36104219Y-124601826D01*
X35948490Y-124336921D01*
X35760362Y-124093951D01*
X35561365Y-123895300D01*
X66288235Y-123895300D01*
X66306865Y-124132011D01*
X66308019Y-124136818D01*
X66308020Y-124136824D01*
X66338574Y-124264090D01*
X66362295Y-124362894D01*
X66364188Y-124367465D01*
X66364189Y-124367467D01*
X66451172Y-124577463D01*
X66453160Y-124582263D01*
X66455746Y-124586483D01*
X66574641Y-124780502D01*
X66574645Y-124780508D01*
X66577224Y-124784716D01*
X66731431Y-124965269D01*
X66911984Y-125119476D01*
X66916192Y-125122055D01*
X66916198Y-125122059D01*
X67109484Y-125240505D01*
X67114437Y-125243540D01*
X67119007Y-125245433D01*
X67119011Y-125245435D01*
X67329233Y-125332511D01*
X67333806Y-125334405D01*
X67414009Y-125353660D01*
X67559876Y-125388680D01*
X67559882Y-125388681D01*
X67564689Y-125389835D01*
X67801400Y-125408465D01*
X68038111Y-125389835D01*
X68042918Y-125388681D01*
X68042924Y-125388680D01*
X68188791Y-125353660D01*
X68268994Y-125334405D01*
X68273567Y-125332511D01*
X68483789Y-125245435D01*
X68483793Y-125245433D01*
X68488363Y-125243540D01*
X68493316Y-125240505D01*
X68676956Y-125127970D01*
X71433560Y-125127970D01*
X71439287Y-125135620D01*
X71610442Y-125240505D01*
X71619237Y-125244987D01*
X71829388Y-125332034D01*
X71838773Y-125335083D01*
X72059954Y-125388185D01*
X72069701Y-125389728D01*
X72296470Y-125407575D01*
X72306330Y-125407575D01*
X72533099Y-125389728D01*
X72542846Y-125388185D01*
X72764027Y-125335083D01*
X72773412Y-125332034D01*
X72983563Y-125244987D01*
X72992358Y-125240505D01*
X73159845Y-125137868D01*
X73169307Y-125127410D01*
X73165524Y-125118634D01*
X72314212Y-124267322D01*
X72300268Y-124259708D01*
X72298435Y-124259839D01*
X72291820Y-124264090D01*
X71440320Y-125115590D01*
X71433560Y-125127970D01*
X68676956Y-125127970D01*
X68686602Y-125122059D01*
X68686608Y-125122055D01*
X68690816Y-125119476D01*
X68871369Y-124965269D01*
X69025576Y-124784716D01*
X69028155Y-124780508D01*
X69028159Y-124780502D01*
X69147054Y-124586483D01*
X69149640Y-124582263D01*
X69151629Y-124577463D01*
X69238611Y-124367467D01*
X69238612Y-124367465D01*
X69240505Y-124362894D01*
X69264226Y-124264090D01*
X69294780Y-124136824D01*
X69294781Y-124136818D01*
X69295935Y-124132011D01*
X69314177Y-123900230D01*
X70789125Y-123900230D01*
X70806972Y-124126999D01*
X70808515Y-124136746D01*
X70861617Y-124357927D01*
X70864666Y-124367312D01*
X70951713Y-124577463D01*
X70956195Y-124586258D01*
X71058832Y-124753745D01*
X71069290Y-124763207D01*
X71078066Y-124759424D01*
X71929378Y-123908112D01*
X71935756Y-123896432D01*
X72665808Y-123896432D01*
X72665939Y-123898265D01*
X72670190Y-123904880D01*
X73521690Y-124756380D01*
X73534070Y-124763140D01*
X73541720Y-124757413D01*
X73646605Y-124586258D01*
X73651087Y-124577463D01*
X73738134Y-124367312D01*
X73741183Y-124357927D01*
X73794285Y-124136746D01*
X73795828Y-124126999D01*
X73813675Y-123900230D01*
X73813675Y-123895300D01*
X76448235Y-123895300D01*
X76466865Y-124132011D01*
X76468019Y-124136818D01*
X76468020Y-124136824D01*
X76498574Y-124264090D01*
X76522295Y-124362894D01*
X76524188Y-124367465D01*
X76524189Y-124367467D01*
X76611172Y-124577463D01*
X76613160Y-124582263D01*
X76615746Y-124586483D01*
X76734641Y-124780502D01*
X76734645Y-124780508D01*
X76737224Y-124784716D01*
X76891431Y-124965269D01*
X77071984Y-125119476D01*
X77076192Y-125122055D01*
X77076198Y-125122059D01*
X77269484Y-125240505D01*
X77274437Y-125243540D01*
X77279007Y-125245433D01*
X77279011Y-125245435D01*
X77489233Y-125332511D01*
X77493806Y-125334405D01*
X77574009Y-125353660D01*
X77719876Y-125388680D01*
X77719882Y-125388681D01*
X77724689Y-125389835D01*
X77961400Y-125408465D01*
X78198111Y-125389835D01*
X78202918Y-125388681D01*
X78202924Y-125388680D01*
X78348791Y-125353660D01*
X78428994Y-125334405D01*
X78433567Y-125332511D01*
X78643789Y-125245435D01*
X78643793Y-125245433D01*
X78648363Y-125243540D01*
X78653316Y-125240505D01*
X78836956Y-125127970D01*
X81593560Y-125127970D01*
X81599287Y-125135620D01*
X81770442Y-125240505D01*
X81779237Y-125244987D01*
X81989388Y-125332034D01*
X81998773Y-125335083D01*
X82219954Y-125388185D01*
X82229701Y-125389728D01*
X82456470Y-125407575D01*
X82466330Y-125407575D01*
X82693099Y-125389728D01*
X82702846Y-125388185D01*
X82924027Y-125335083D01*
X82933412Y-125332034D01*
X83143563Y-125244987D01*
X83152358Y-125240505D01*
X83319845Y-125137868D01*
X83329307Y-125127410D01*
X83325524Y-125118634D01*
X82474212Y-124267322D01*
X82460268Y-124259708D01*
X82458435Y-124259839D01*
X82451820Y-124264090D01*
X81600320Y-125115590D01*
X81593560Y-125127970D01*
X78836956Y-125127970D01*
X78846602Y-125122059D01*
X78846608Y-125122055D01*
X78850816Y-125119476D01*
X79031369Y-124965269D01*
X79185576Y-124784716D01*
X79188155Y-124780508D01*
X79188159Y-124780502D01*
X79307054Y-124586483D01*
X79309640Y-124582263D01*
X79311629Y-124577463D01*
X79398611Y-124367467D01*
X79398612Y-124367465D01*
X79400505Y-124362894D01*
X79424226Y-124264090D01*
X79454780Y-124136824D01*
X79454781Y-124136818D01*
X79455935Y-124132011D01*
X79474177Y-123900230D01*
X80949125Y-123900230D01*
X80966972Y-124126999D01*
X80968515Y-124136746D01*
X81021617Y-124357927D01*
X81024666Y-124367312D01*
X81111713Y-124577463D01*
X81116195Y-124586258D01*
X81218832Y-124753745D01*
X81229290Y-124763207D01*
X81238066Y-124759424D01*
X82089378Y-123908112D01*
X82095756Y-123896432D01*
X82825808Y-123896432D01*
X82825939Y-123898265D01*
X82830190Y-123904880D01*
X83681690Y-124756380D01*
X83694070Y-124763140D01*
X83701720Y-124757413D01*
X83806605Y-124586258D01*
X83811087Y-124577463D01*
X83898134Y-124367312D01*
X83901183Y-124357927D01*
X83954285Y-124136746D01*
X83955828Y-124126999D01*
X83973675Y-123900230D01*
X83973675Y-123890370D01*
X83955828Y-123663601D01*
X83954285Y-123653854D01*
X83901183Y-123432673D01*
X83898134Y-123423288D01*
X83811087Y-123213137D01*
X83806605Y-123204342D01*
X83703968Y-123036855D01*
X83693510Y-123027393D01*
X83684734Y-123031176D01*
X82833422Y-123882488D01*
X82825808Y-123896432D01*
X82095756Y-123896432D01*
X82096992Y-123894168D01*
X82096861Y-123892335D01*
X82092610Y-123885720D01*
X81241110Y-123034220D01*
X81228730Y-123027460D01*
X81221080Y-123033187D01*
X81116195Y-123204342D01*
X81111713Y-123213137D01*
X81024666Y-123423288D01*
X81021617Y-123432673D01*
X80968515Y-123653854D01*
X80966972Y-123663601D01*
X80949125Y-123890370D01*
X80949125Y-123900230D01*
X79474177Y-123900230D01*
X79474565Y-123895300D01*
X79455935Y-123658589D01*
X79437430Y-123581507D01*
X79406443Y-123452441D01*
X79400505Y-123427706D01*
X79398611Y-123423133D01*
X79311535Y-123212911D01*
X79311533Y-123212907D01*
X79309640Y-123208337D01*
X79307054Y-123204117D01*
X79188159Y-123010098D01*
X79188155Y-123010092D01*
X79185576Y-123005884D01*
X79038782Y-122834010D01*
X79034577Y-122829087D01*
X79031369Y-122825331D01*
X78850816Y-122671124D01*
X78846608Y-122668545D01*
X78846602Y-122668541D01*
X78837870Y-122663190D01*
X81593493Y-122663190D01*
X81597276Y-122671966D01*
X82448588Y-123523278D01*
X82462532Y-123530892D01*
X82464365Y-123530761D01*
X82470980Y-123526510D01*
X83322480Y-122675010D01*
X83329240Y-122662630D01*
X83323513Y-122654980D01*
X83152358Y-122550095D01*
X83143563Y-122545613D01*
X82933412Y-122458566D01*
X82924027Y-122455517D01*
X82702846Y-122402415D01*
X82693099Y-122400872D01*
X82466330Y-122383025D01*
X82456470Y-122383025D01*
X82229701Y-122400872D01*
X82219954Y-122402415D01*
X81998773Y-122455517D01*
X81989388Y-122458566D01*
X81779237Y-122545613D01*
X81770442Y-122550095D01*
X81602955Y-122652732D01*
X81593493Y-122663190D01*
X78837870Y-122663190D01*
X78655065Y-122551167D01*
X78607434Y-122498519D01*
X78594900Y-122443734D01*
X78594900Y-118846866D01*
X78614902Y-118778745D01*
X78655065Y-118739433D01*
X78836956Y-118627970D01*
X81593560Y-118627970D01*
X81599287Y-118635620D01*
X81770442Y-118740505D01*
X81779237Y-118744987D01*
X81989388Y-118832034D01*
X81998773Y-118835083D01*
X82219954Y-118888185D01*
X82229701Y-118889728D01*
X82456470Y-118907575D01*
X82466330Y-118907575D01*
X82693099Y-118889728D01*
X82702846Y-118888185D01*
X82924027Y-118835083D01*
X82933412Y-118832034D01*
X83143563Y-118744987D01*
X83152358Y-118740505D01*
X83319845Y-118637868D01*
X83329307Y-118627410D01*
X83325524Y-118618634D01*
X82474212Y-117767322D01*
X82460268Y-117759708D01*
X82458435Y-117759839D01*
X82451820Y-117764090D01*
X81600320Y-118615590D01*
X81593560Y-118627970D01*
X78836956Y-118627970D01*
X78846602Y-118622059D01*
X78846608Y-118622055D01*
X78850816Y-118619476D01*
X79031369Y-118465269D01*
X79185576Y-118284716D01*
X79188155Y-118280508D01*
X79188159Y-118280502D01*
X79307054Y-118086483D01*
X79309640Y-118082263D01*
X79311629Y-118077463D01*
X79398611Y-117867467D01*
X79398612Y-117867465D01*
X79400505Y-117862894D01*
X79455935Y-117632011D01*
X79474177Y-117400230D01*
X80949125Y-117400230D01*
X80966972Y-117626999D01*
X80968515Y-117636746D01*
X81021617Y-117857927D01*
X81024666Y-117867312D01*
X81111713Y-118077463D01*
X81116195Y-118086258D01*
X81218832Y-118253745D01*
X81229290Y-118263207D01*
X81238066Y-118259424D01*
X82089378Y-117408112D01*
X82095756Y-117396432D01*
X82825808Y-117396432D01*
X82825939Y-117398265D01*
X82830190Y-117404880D01*
X83681690Y-118256380D01*
X83694070Y-118263140D01*
X83701720Y-118257413D01*
X83806605Y-118086258D01*
X83811087Y-118077463D01*
X83898134Y-117867312D01*
X83901183Y-117857927D01*
X83954285Y-117636746D01*
X83955828Y-117626999D01*
X83973675Y-117400230D01*
X83973675Y-117390370D01*
X83955828Y-117163601D01*
X83954285Y-117153854D01*
X83901183Y-116932673D01*
X83898134Y-116923288D01*
X83811087Y-116713137D01*
X83806605Y-116704342D01*
X83703968Y-116536855D01*
X83693510Y-116527393D01*
X83684734Y-116531176D01*
X82833422Y-117382488D01*
X82825808Y-117396432D01*
X82095756Y-117396432D01*
X82096992Y-117394168D01*
X82096861Y-117392335D01*
X82092610Y-117385720D01*
X81241110Y-116534220D01*
X81228730Y-116527460D01*
X81221080Y-116533187D01*
X81116195Y-116704342D01*
X81111713Y-116713137D01*
X81024666Y-116923288D01*
X81021617Y-116932673D01*
X80968515Y-117153854D01*
X80966972Y-117163601D01*
X80949125Y-117390370D01*
X80949125Y-117400230D01*
X79474177Y-117400230D01*
X79474565Y-117395300D01*
X79455935Y-117158589D01*
X79424377Y-117027138D01*
X79413549Y-116982037D01*
X79400505Y-116927706D01*
X79392029Y-116907243D01*
X79311535Y-116712911D01*
X79311533Y-116712907D01*
X79309640Y-116708337D01*
X79259643Y-116626750D01*
X79188159Y-116510098D01*
X79188155Y-116510092D01*
X79185576Y-116505884D01*
X79031369Y-116325331D01*
X78850816Y-116171124D01*
X78846608Y-116168545D01*
X78846602Y-116168541D01*
X78837870Y-116163190D01*
X81593493Y-116163190D01*
X81597276Y-116171966D01*
X82448588Y-117023278D01*
X82462532Y-117030892D01*
X82464365Y-117030761D01*
X82470980Y-117026510D01*
X83322480Y-116175010D01*
X83329240Y-116162630D01*
X83323513Y-116154980D01*
X83152358Y-116050095D01*
X83143563Y-116045613D01*
X82933412Y-115958566D01*
X82924027Y-115955517D01*
X82702846Y-115902415D01*
X82693099Y-115900872D01*
X82466330Y-115883025D01*
X82456470Y-115883025D01*
X82229701Y-115900872D01*
X82219954Y-115902415D01*
X81998773Y-115955517D01*
X81989388Y-115958566D01*
X81779237Y-116045613D01*
X81770442Y-116050095D01*
X81602955Y-116152732D01*
X81593493Y-116163190D01*
X78837870Y-116163190D01*
X78652583Y-116049646D01*
X78648363Y-116047060D01*
X78643793Y-116045167D01*
X78643789Y-116045165D01*
X78433567Y-115958089D01*
X78433565Y-115958088D01*
X78428994Y-115956195D01*
X78348791Y-115936940D01*
X78202924Y-115901920D01*
X78202918Y-115901919D01*
X78198111Y-115900765D01*
X77961400Y-115882135D01*
X77724689Y-115900765D01*
X77719882Y-115901919D01*
X77719876Y-115901920D01*
X77574009Y-115936940D01*
X77493806Y-115956195D01*
X77489235Y-115958088D01*
X77489233Y-115958089D01*
X77279011Y-116045165D01*
X77279007Y-116045167D01*
X77274437Y-116047060D01*
X77270217Y-116049646D01*
X77076198Y-116168541D01*
X77076192Y-116168545D01*
X77071984Y-116171124D01*
X76891431Y-116325331D01*
X76737224Y-116505884D01*
X76734645Y-116510092D01*
X76734641Y-116510098D01*
X76663157Y-116626750D01*
X76613160Y-116708337D01*
X76611267Y-116712907D01*
X76611265Y-116712911D01*
X76530771Y-116907243D01*
X76522295Y-116927706D01*
X76509251Y-116982037D01*
X76498424Y-117027138D01*
X76466865Y-117158589D01*
X76448235Y-117395300D01*
X76466865Y-117632011D01*
X76522295Y-117862894D01*
X76524188Y-117867465D01*
X76524189Y-117867467D01*
X76611172Y-118077463D01*
X76613160Y-118082263D01*
X76615746Y-118086483D01*
X76734641Y-118280502D01*
X76734645Y-118280508D01*
X76737224Y-118284716D01*
X76891431Y-118465269D01*
X77071984Y-118619476D01*
X77076192Y-118622055D01*
X77076198Y-118622059D01*
X77267735Y-118739433D01*
X77315366Y-118792081D01*
X77327900Y-118846866D01*
X77327900Y-122443734D01*
X77307898Y-122511855D01*
X77267735Y-122551167D01*
X77076198Y-122668541D01*
X77076192Y-122668545D01*
X77071984Y-122671124D01*
X76891431Y-122825331D01*
X76888223Y-122829087D01*
X76884018Y-122834010D01*
X76737224Y-123005884D01*
X76734645Y-123010092D01*
X76734641Y-123010098D01*
X76615746Y-123204117D01*
X76613160Y-123208337D01*
X76611267Y-123212907D01*
X76611265Y-123212911D01*
X76524189Y-123423133D01*
X76522295Y-123427706D01*
X76516357Y-123452441D01*
X76485371Y-123581507D01*
X76466865Y-123658589D01*
X76448235Y-123895300D01*
X73813675Y-123895300D01*
X73813675Y-123890370D01*
X73795828Y-123663601D01*
X73794285Y-123653854D01*
X73741183Y-123432673D01*
X73738134Y-123423288D01*
X73651087Y-123213137D01*
X73646605Y-123204342D01*
X73543968Y-123036855D01*
X73533510Y-123027393D01*
X73524734Y-123031176D01*
X72673422Y-123882488D01*
X72665808Y-123896432D01*
X71935756Y-123896432D01*
X71936992Y-123894168D01*
X71936861Y-123892335D01*
X71932610Y-123885720D01*
X71081110Y-123034220D01*
X71068730Y-123027460D01*
X71061080Y-123033187D01*
X70956195Y-123204342D01*
X70951713Y-123213137D01*
X70864666Y-123423288D01*
X70861617Y-123432673D01*
X70808515Y-123653854D01*
X70806972Y-123663601D01*
X70789125Y-123890370D01*
X70789125Y-123900230D01*
X69314177Y-123900230D01*
X69314565Y-123895300D01*
X69295935Y-123658589D01*
X69277430Y-123581507D01*
X69246443Y-123452441D01*
X69240505Y-123427706D01*
X69238611Y-123423133D01*
X69151535Y-123212911D01*
X69151533Y-123212907D01*
X69149640Y-123208337D01*
X69147054Y-123204117D01*
X69028159Y-123010098D01*
X69028155Y-123010092D01*
X69025576Y-123005884D01*
X68878782Y-122834010D01*
X68874577Y-122829087D01*
X68871369Y-122825331D01*
X68690816Y-122671124D01*
X68686608Y-122668545D01*
X68686602Y-122668541D01*
X68677870Y-122663190D01*
X71433493Y-122663190D01*
X71437276Y-122671966D01*
X72288588Y-123523278D01*
X72302532Y-123530892D01*
X72304365Y-123530761D01*
X72310980Y-123526510D01*
X73162480Y-122675010D01*
X73169240Y-122662630D01*
X73163513Y-122654980D01*
X72992358Y-122550095D01*
X72983563Y-122545613D01*
X72773412Y-122458566D01*
X72764027Y-122455517D01*
X72542846Y-122402415D01*
X72533099Y-122400872D01*
X72306330Y-122383025D01*
X72296470Y-122383025D01*
X72069701Y-122400872D01*
X72059954Y-122402415D01*
X71838773Y-122455517D01*
X71829388Y-122458566D01*
X71619237Y-122545613D01*
X71610442Y-122550095D01*
X71442955Y-122652732D01*
X71433493Y-122663190D01*
X68677870Y-122663190D01*
X68495065Y-122551167D01*
X68447434Y-122498519D01*
X68434900Y-122443734D01*
X68434900Y-118846866D01*
X68454902Y-118778745D01*
X68495065Y-118739433D01*
X68676956Y-118627970D01*
X71433560Y-118627970D01*
X71439287Y-118635620D01*
X71610442Y-118740505D01*
X71619237Y-118744987D01*
X71829388Y-118832034D01*
X71838773Y-118835083D01*
X72059954Y-118888185D01*
X72069701Y-118889728D01*
X72296470Y-118907575D01*
X72306330Y-118907575D01*
X72533099Y-118889728D01*
X72542846Y-118888185D01*
X72764027Y-118835083D01*
X72773412Y-118832034D01*
X72983563Y-118744987D01*
X72992358Y-118740505D01*
X73159845Y-118637868D01*
X73169307Y-118627410D01*
X73165524Y-118618634D01*
X72314212Y-117767322D01*
X72300268Y-117759708D01*
X72298435Y-117759839D01*
X72291820Y-117764090D01*
X71440320Y-118615590D01*
X71433560Y-118627970D01*
X68676956Y-118627970D01*
X68686602Y-118622059D01*
X68686608Y-118622055D01*
X68690816Y-118619476D01*
X68871369Y-118465269D01*
X69025576Y-118284716D01*
X69028155Y-118280508D01*
X69028159Y-118280502D01*
X69147054Y-118086483D01*
X69149640Y-118082263D01*
X69151629Y-118077463D01*
X69238611Y-117867467D01*
X69238612Y-117867465D01*
X69240505Y-117862894D01*
X69295935Y-117632011D01*
X69314177Y-117400230D01*
X70789125Y-117400230D01*
X70806972Y-117626999D01*
X70808515Y-117636746D01*
X70861617Y-117857927D01*
X70864666Y-117867312D01*
X70951713Y-118077463D01*
X70956195Y-118086258D01*
X71058832Y-118253745D01*
X71069290Y-118263207D01*
X71078066Y-118259424D01*
X71929378Y-117408112D01*
X71935756Y-117396432D01*
X72665808Y-117396432D01*
X72665939Y-117398265D01*
X72670190Y-117404880D01*
X73521690Y-118256380D01*
X73534070Y-118263140D01*
X73541720Y-118257413D01*
X73646605Y-118086258D01*
X73651087Y-118077463D01*
X73738134Y-117867312D01*
X73741183Y-117857927D01*
X73794285Y-117636746D01*
X73795828Y-117626999D01*
X73813675Y-117400230D01*
X73813675Y-117390370D01*
X73795828Y-117163601D01*
X73794285Y-117153854D01*
X73741183Y-116932673D01*
X73738134Y-116923288D01*
X73651087Y-116713137D01*
X73646605Y-116704342D01*
X73543968Y-116536855D01*
X73533510Y-116527393D01*
X73524734Y-116531176D01*
X72673422Y-117382488D01*
X72665808Y-117396432D01*
X71935756Y-117396432D01*
X71936992Y-117394168D01*
X71936861Y-117392335D01*
X71932610Y-117385720D01*
X71081110Y-116534220D01*
X71068730Y-116527460D01*
X71061080Y-116533187D01*
X70956195Y-116704342D01*
X70951713Y-116713137D01*
X70864666Y-116923288D01*
X70861617Y-116932673D01*
X70808515Y-117153854D01*
X70806972Y-117163601D01*
X70789125Y-117390370D01*
X70789125Y-117400230D01*
X69314177Y-117400230D01*
X69314565Y-117395300D01*
X69295935Y-117158589D01*
X69264377Y-117027138D01*
X69253549Y-116982037D01*
X69240505Y-116927706D01*
X69232029Y-116907243D01*
X69151535Y-116712911D01*
X69151533Y-116712907D01*
X69149640Y-116708337D01*
X69099643Y-116626750D01*
X69028159Y-116510098D01*
X69028155Y-116510092D01*
X69025576Y-116505884D01*
X68871369Y-116325331D01*
X68690816Y-116171124D01*
X68686608Y-116168545D01*
X68686602Y-116168541D01*
X68677870Y-116163190D01*
X71433493Y-116163190D01*
X71437276Y-116171966D01*
X72288588Y-117023278D01*
X72302532Y-117030892D01*
X72304365Y-117030761D01*
X72310980Y-117026510D01*
X73162480Y-116175010D01*
X73169240Y-116162630D01*
X73163513Y-116154980D01*
X72992358Y-116050095D01*
X72983563Y-116045613D01*
X72773412Y-115958566D01*
X72764027Y-115955517D01*
X72542846Y-115902415D01*
X72533099Y-115900872D01*
X72306330Y-115883025D01*
X72296470Y-115883025D01*
X72069701Y-115900872D01*
X72059954Y-115902415D01*
X71838773Y-115955517D01*
X71829388Y-115958566D01*
X71619237Y-116045613D01*
X71610442Y-116050095D01*
X71442955Y-116152732D01*
X71433493Y-116163190D01*
X68677870Y-116163190D01*
X68492583Y-116049646D01*
X68488363Y-116047060D01*
X68483793Y-116045167D01*
X68483789Y-116045165D01*
X68273567Y-115958089D01*
X68273565Y-115958088D01*
X68268994Y-115956195D01*
X68188791Y-115936940D01*
X68042924Y-115901920D01*
X68042918Y-115901919D01*
X68038111Y-115900765D01*
X67801400Y-115882135D01*
X67564689Y-115900765D01*
X67559882Y-115901919D01*
X67559876Y-115901920D01*
X67414009Y-115936940D01*
X67333806Y-115956195D01*
X67329235Y-115958088D01*
X67329233Y-115958089D01*
X67119011Y-116045165D01*
X67119007Y-116045167D01*
X67114437Y-116047060D01*
X67110217Y-116049646D01*
X66916198Y-116168541D01*
X66916192Y-116168545D01*
X66911984Y-116171124D01*
X66731431Y-116325331D01*
X66577224Y-116505884D01*
X66574645Y-116510092D01*
X66574641Y-116510098D01*
X66503157Y-116626750D01*
X66453160Y-116708337D01*
X66451267Y-116712907D01*
X66451265Y-116712911D01*
X66370771Y-116907243D01*
X66362295Y-116927706D01*
X66349251Y-116982037D01*
X66338424Y-117027138D01*
X66306865Y-117158589D01*
X66288235Y-117395300D01*
X66306865Y-117632011D01*
X66362295Y-117862894D01*
X66364188Y-117867465D01*
X66364189Y-117867467D01*
X66451172Y-118077463D01*
X66453160Y-118082263D01*
X66455746Y-118086483D01*
X66574641Y-118280502D01*
X66574645Y-118280508D01*
X66577224Y-118284716D01*
X66731431Y-118465269D01*
X66911984Y-118619476D01*
X66916192Y-118622055D01*
X66916198Y-118622059D01*
X67107735Y-118739433D01*
X67155366Y-118792081D01*
X67167900Y-118846866D01*
X67167900Y-122443734D01*
X67147898Y-122511855D01*
X67107735Y-122551167D01*
X66916198Y-122668541D01*
X66916192Y-122668545D01*
X66911984Y-122671124D01*
X66731431Y-122825331D01*
X66728223Y-122829087D01*
X66724018Y-122834010D01*
X66577224Y-123005884D01*
X66574645Y-123010092D01*
X66574641Y-123010098D01*
X66455746Y-123204117D01*
X66453160Y-123208337D01*
X66451267Y-123212907D01*
X66451265Y-123212911D01*
X66364189Y-123423133D01*
X66362295Y-123427706D01*
X66356357Y-123452441D01*
X66325371Y-123581507D01*
X66306865Y-123658589D01*
X66288235Y-123895300D01*
X35561365Y-123895300D01*
X35556426Y-123890370D01*
X35545728Y-123879691D01*
X35542887Y-123876855D01*
X35299589Y-123689152D01*
X35118702Y-123583238D01*
X35037877Y-123535913D01*
X35037874Y-123535911D01*
X35034413Y-123533885D01*
X35030728Y-123532317D01*
X35030724Y-123532315D01*
X34835964Y-123449444D01*
X34751657Y-123413571D01*
X34455906Y-123330160D01*
X34224934Y-123295847D01*
X34155252Y-123285495D01*
X34155250Y-123285495D01*
X34151953Y-123285005D01*
X34148622Y-123284865D01*
X34148618Y-123284865D01*
X34111665Y-123283317D01*
X34068323Y-123281500D01*
X33872260Y-123281500D01*
X33748356Y-123289404D01*
X33647343Y-123295847D01*
X33647338Y-123295848D01*
X33643335Y-123296103D01*
X33639398Y-123296865D01*
X33639396Y-123296865D01*
X33583805Y-123307621D01*
X33341641Y-123354474D01*
X33337826Y-123355732D01*
X33337822Y-123355733D01*
X33053632Y-123449444D01*
X33053627Y-123449446D01*
X33049809Y-123450705D01*
X32772571Y-123583238D01*
X32769206Y-123585411D01*
X32769202Y-123585413D01*
X32517786Y-123747750D01*
X32517780Y-123747755D01*
X32514420Y-123749924D01*
X32279541Y-123948061D01*
X32276825Y-123951020D01*
X32115216Y-124127077D01*
X32071742Y-124174437D01*
X31894392Y-124425381D01*
X31750366Y-124696827D01*
X31748951Y-124700583D01*
X31748950Y-124700584D01*
X31647989Y-124968477D01*
X31641998Y-124984373D01*
X31641069Y-124988288D01*
X31580045Y-125245435D01*
X31571045Y-125283358D01*
X31538658Y-125588935D01*
X30508500Y-125588935D01*
X30508500Y-113974885D01*
X104132100Y-113974885D01*
X104136575Y-113990124D01*
X104137965Y-113991329D01*
X104145648Y-113993000D01*
X105367985Y-113993000D01*
X105383224Y-113988525D01*
X105384429Y-113987135D01*
X105386100Y-113979452D01*
X105386100Y-113974885D01*
X105894100Y-113974885D01*
X105898575Y-113990124D01*
X105899965Y-113991329D01*
X105907648Y-113993000D01*
X107129984Y-113993000D01*
X107145223Y-113988525D01*
X107146428Y-113987135D01*
X107148099Y-113979452D01*
X107148099Y-113202331D01*
X107147729Y-113195510D01*
X107142205Y-113144648D01*
X107138579Y-113129396D01*
X107093424Y-113008946D01*
X107084886Y-112993351D01*
X107008385Y-112891276D01*
X106995824Y-112878715D01*
X106893749Y-112802214D01*
X106878154Y-112793676D01*
X106757706Y-112748522D01*
X106742451Y-112744895D01*
X106691586Y-112739369D01*
X106684772Y-112739000D01*
X105912215Y-112739000D01*
X105896976Y-112743475D01*
X105895771Y-112744865D01*
X105894100Y-112752548D01*
X105894100Y-113974885D01*
X105386100Y-113974885D01*
X105386100Y-112757116D01*
X105381625Y-112741877D01*
X105380235Y-112740672D01*
X105372552Y-112739001D01*
X104595431Y-112739001D01*
X104588610Y-112739371D01*
X104537748Y-112744895D01*
X104522496Y-112748521D01*
X104402046Y-112793676D01*
X104386451Y-112802214D01*
X104284376Y-112878715D01*
X104271815Y-112891276D01*
X104195314Y-112993351D01*
X104186776Y-113008946D01*
X104141622Y-113129394D01*
X104137995Y-113144649D01*
X104132469Y-113195514D01*
X104132100Y-113202328D01*
X104132100Y-113974885D01*
X30508500Y-113974885D01*
X30508500Y-94553769D01*
X39843195Y-94553769D01*
X39843492Y-94558922D01*
X39843492Y-94558925D01*
X39848972Y-94653963D01*
X39856527Y-94784997D01*
X39857664Y-94790043D01*
X39857665Y-94790049D01*
X39862635Y-94812101D01*
X39907446Y-95010942D01*
X39909388Y-95015724D01*
X39909389Y-95015728D01*
X39990986Y-95216676D01*
X39994584Y-95225537D01*
X40115601Y-95423019D01*
X40267247Y-95598084D01*
X40445449Y-95746030D01*
X40645422Y-95862884D01*
X40861794Y-95945509D01*
X40866860Y-95946540D01*
X40866861Y-95946540D01*
X40919946Y-95957340D01*
X41088756Y-95991685D01*
X41219424Y-95996476D01*
X41315049Y-95999983D01*
X41315053Y-95999983D01*
X41320213Y-96000172D01*
X41325333Y-95999516D01*
X41325335Y-95999516D01*
X41398391Y-95990157D01*
X41549947Y-95970742D01*
X41554895Y-95969257D01*
X41554902Y-95969256D01*
X41766847Y-95905669D01*
X41771790Y-95904186D01*
X41829652Y-95875840D01*
X41975149Y-95804562D01*
X41975152Y-95804560D01*
X41979784Y-95802291D01*
X42168343Y-95667794D01*
X42332403Y-95504305D01*
X42335419Y-95500108D01*
X42335426Y-95500100D01*
X42423060Y-95378144D01*
X42479054Y-95334496D01*
X42549758Y-95328050D01*
X42612722Y-95360853D01*
X42632815Y-95385836D01*
X42652900Y-95418613D01*
X42652904Y-95418618D01*
X42655601Y-95423019D01*
X42807247Y-95598084D01*
X42985449Y-95746030D01*
X43185422Y-95862884D01*
X43401794Y-95945509D01*
X43406860Y-95946540D01*
X43406861Y-95946540D01*
X43459946Y-95957340D01*
X43628756Y-95991685D01*
X43759424Y-95996476D01*
X43855049Y-95999983D01*
X43855053Y-95999983D01*
X43860213Y-96000172D01*
X43865333Y-95999516D01*
X43865335Y-95999516D01*
X43938391Y-95990157D01*
X44089947Y-95970742D01*
X44094895Y-95969257D01*
X44094902Y-95969256D01*
X44306847Y-95905669D01*
X44311790Y-95904186D01*
X44369652Y-95875840D01*
X44515149Y-95804562D01*
X44515152Y-95804560D01*
X44519784Y-95802291D01*
X44708343Y-95667794D01*
X44872403Y-95504305D01*
X44875419Y-95500108D01*
X44875426Y-95500100D01*
X44963060Y-95378144D01*
X45019054Y-95334496D01*
X45089758Y-95328050D01*
X45152722Y-95360853D01*
X45172815Y-95385836D01*
X45192900Y-95418613D01*
X45192904Y-95418618D01*
X45195601Y-95423019D01*
X45347247Y-95598084D01*
X45525449Y-95746030D01*
X45725422Y-95862884D01*
X45941794Y-95945509D01*
X45946860Y-95946540D01*
X45946861Y-95946540D01*
X45999946Y-95957340D01*
X46168756Y-95991685D01*
X46299424Y-95996476D01*
X46395049Y-95999983D01*
X46395053Y-95999983D01*
X46400213Y-96000172D01*
X46405333Y-95999516D01*
X46405335Y-95999516D01*
X46478391Y-95990157D01*
X46629947Y-95970742D01*
X46634895Y-95969257D01*
X46634902Y-95969256D01*
X46846847Y-95905669D01*
X46851790Y-95904186D01*
X46909652Y-95875840D01*
X47055149Y-95804562D01*
X47055152Y-95804560D01*
X47059784Y-95802291D01*
X47248343Y-95667794D01*
X47412403Y-95504305D01*
X47415419Y-95500108D01*
X47415426Y-95500100D01*
X47503060Y-95378144D01*
X47559054Y-95334496D01*
X47629758Y-95328050D01*
X47692722Y-95360853D01*
X47712815Y-95385836D01*
X47732900Y-95418613D01*
X47732904Y-95418618D01*
X47735601Y-95423019D01*
X47887247Y-95598084D01*
X48065449Y-95746030D01*
X48265422Y-95862884D01*
X48481794Y-95945509D01*
X48486860Y-95946540D01*
X48486861Y-95946540D01*
X48539946Y-95957340D01*
X48708756Y-95991685D01*
X48839424Y-95996476D01*
X48935049Y-95999983D01*
X48935053Y-95999983D01*
X48940213Y-96000172D01*
X48945333Y-95999516D01*
X48945335Y-95999516D01*
X49018391Y-95990157D01*
X49169947Y-95970742D01*
X49174895Y-95969257D01*
X49174902Y-95969256D01*
X49386847Y-95905669D01*
X49391790Y-95904186D01*
X49449652Y-95875840D01*
X49595149Y-95804562D01*
X49595152Y-95804560D01*
X49599784Y-95802291D01*
X49673506Y-95749706D01*
X50619523Y-95749706D01*
X50624804Y-95756761D01*
X50801180Y-95859827D01*
X50810463Y-95864274D01*
X51017103Y-95943183D01*
X51027001Y-95946059D01*
X51243753Y-95990157D01*
X51253983Y-95991376D01*
X51475014Y-95999482D01*
X51485323Y-95999014D01*
X51704723Y-95970908D01*
X51714788Y-95968768D01*
X51926657Y-95905205D01*
X51936252Y-95901444D01*
X52134878Y-95804138D01*
X52143736Y-95798859D01*
X52201197Y-95757872D01*
X52209597Y-95747174D01*
X52202610Y-95734021D01*
X51428911Y-94960321D01*
X51414968Y-94952708D01*
X51413134Y-94952839D01*
X51406520Y-94957090D01*
X50626280Y-95737331D01*
X50619523Y-95749706D01*
X49673506Y-95749706D01*
X49788343Y-95667794D01*
X49952403Y-95504305D01*
X49976235Y-95471140D01*
X50039180Y-95383542D01*
X50043375Y-95377704D01*
X50099370Y-95334056D01*
X50170073Y-95327610D01*
X50233038Y-95360413D01*
X50238242Y-95366884D01*
X50256653Y-95383542D01*
X50265431Y-95379758D01*
X51044079Y-94601111D01*
X51050456Y-94589432D01*
X51780508Y-94589432D01*
X51780639Y-94591266D01*
X51784890Y-94597880D01*
X52562407Y-95375396D01*
X52574413Y-95381952D01*
X52586152Y-95372984D01*
X52624110Y-95320159D01*
X52629421Y-95311320D01*
X52727418Y-95113037D01*
X52731217Y-95103442D01*
X52795515Y-94891817D01*
X52797694Y-94881736D01*
X52826802Y-94660638D01*
X52827321Y-94653963D01*
X52828844Y-94591664D01*
X52828650Y-94584946D01*
X52810379Y-94362700D01*
X52808696Y-94352538D01*
X52754810Y-94138008D01*
X52751489Y-94128253D01*
X52663293Y-93925418D01*
X52658415Y-93916320D01*
X52585324Y-93803338D01*
X52574638Y-93794135D01*
X52565073Y-93798538D01*
X51788121Y-94575489D01*
X51780508Y-94589432D01*
X51050456Y-94589432D01*
X51051692Y-94587168D01*
X51051561Y-94585334D01*
X51047310Y-94578720D01*
X50269962Y-93801373D01*
X50258430Y-93795076D01*
X50230774Y-93816744D01*
X50229634Y-93815289D01*
X50195795Y-93843024D01*
X50125271Y-93851198D01*
X50061522Y-93819946D01*
X50040822Y-93795459D01*
X49998675Y-93730309D01*
X49998670Y-93730303D01*
X49995864Y-93725965D01*
X49839987Y-93554658D01*
X49835936Y-93551459D01*
X49835932Y-93551455D01*
X49680890Y-93429011D01*
X50621608Y-93429011D01*
X50628351Y-93441340D01*
X51403289Y-94216279D01*
X51417232Y-94223892D01*
X51419066Y-94223761D01*
X51425680Y-94219510D01*
X52205094Y-93440095D01*
X52212111Y-93427244D01*
X52204337Y-93416574D01*
X52202002Y-93414730D01*
X52193420Y-93409029D01*
X51999778Y-93302133D01*
X51990372Y-93297906D01*
X51781872Y-93224072D01*
X51771909Y-93221440D01*
X51554147Y-93182650D01*
X51543896Y-93181681D01*
X51322716Y-93178979D01*
X51312432Y-93179699D01*
X51093793Y-93213155D01*
X51083766Y-93215544D01*
X50873526Y-93284261D01*
X50864016Y-93288258D01*
X50667825Y-93390389D01*
X50659107Y-93395878D01*
X50630061Y-93417686D01*
X50621608Y-93429011D01*
X49680890Y-93429011D01*
X49662277Y-93414311D01*
X49662272Y-93414308D01*
X49658223Y-93411110D01*
X49653707Y-93408617D01*
X49653704Y-93408615D01*
X49459979Y-93301673D01*
X49459975Y-93301671D01*
X49455455Y-93299176D01*
X49450586Y-93297452D01*
X49450582Y-93297450D01*
X49242003Y-93223588D01*
X49241999Y-93223587D01*
X49237128Y-93221862D01*
X49232035Y-93220955D01*
X49232032Y-93220954D01*
X49014195Y-93182151D01*
X49014189Y-93182150D01*
X49009106Y-93181245D01*
X48936196Y-93180354D01*
X48782681Y-93178479D01*
X48782679Y-93178479D01*
X48777511Y-93178416D01*
X48548564Y-93213450D01*
X48328414Y-93285406D01*
X48323826Y-93287794D01*
X48323822Y-93287796D01*
X48127561Y-93389963D01*
X48122972Y-93392352D01*
X48118839Y-93395455D01*
X48118836Y-93395457D01*
X48059384Y-93440095D01*
X47937755Y-93531417D01*
X47777739Y-93698864D01*
X47710406Y-93797571D01*
X47655497Y-93842571D01*
X47584972Y-93850742D01*
X47521225Y-93819488D01*
X47500528Y-93795005D01*
X47458671Y-93730304D01*
X47455864Y-93725965D01*
X47299987Y-93554658D01*
X47295936Y-93551459D01*
X47295932Y-93551455D01*
X47122277Y-93414311D01*
X47122272Y-93414308D01*
X47118223Y-93411110D01*
X47113707Y-93408617D01*
X47113704Y-93408615D01*
X46919979Y-93301673D01*
X46919975Y-93301671D01*
X46915455Y-93299176D01*
X46910586Y-93297452D01*
X46910582Y-93297450D01*
X46702003Y-93223588D01*
X46701999Y-93223587D01*
X46697128Y-93221862D01*
X46692035Y-93220955D01*
X46692032Y-93220954D01*
X46474195Y-93182151D01*
X46474189Y-93182150D01*
X46469106Y-93181245D01*
X46396196Y-93180354D01*
X46242681Y-93178479D01*
X46242679Y-93178479D01*
X46237511Y-93178416D01*
X46122319Y-93196043D01*
X46013673Y-93212668D01*
X46013671Y-93212669D01*
X46008564Y-93213450D01*
X46003649Y-93215057D01*
X46003647Y-93215057D01*
X45967989Y-93226712D01*
X45897025Y-93228865D01*
X45839747Y-93196043D01*
X44132538Y-91488833D01*
X72402712Y-91488833D01*
X72411425Y-91500353D01*
X72509118Y-91571984D01*
X72517028Y-91576927D01*
X72739990Y-91694233D01*
X72748553Y-91697956D01*
X72986404Y-91781018D01*
X72995413Y-91783432D01*
X73242942Y-91830427D01*
X73252198Y-91831481D01*
X73503957Y-91841373D01*
X73513271Y-91841047D01*
X73763715Y-91813620D01*
X73772892Y-91811919D01*
X74016531Y-91747774D01*
X74025351Y-91744737D01*
X74256836Y-91645283D01*
X74265108Y-91640976D01*
X74479349Y-91508400D01*
X74486288Y-91503358D01*
X74494618Y-91490719D01*
X74488556Y-91480366D01*
X73459912Y-90451722D01*
X73445968Y-90444108D01*
X73444135Y-90444239D01*
X73437520Y-90448490D01*
X72409370Y-91476640D01*
X72402712Y-91488833D01*
X44132538Y-91488833D01*
X42681928Y-90038223D01*
X71684998Y-90038223D01*
X71697087Y-90289875D01*
X71698224Y-90299135D01*
X71747374Y-90546235D01*
X71749868Y-90555228D01*
X71835000Y-90792339D01*
X71838800Y-90800874D01*
X71958046Y-91022801D01*
X71963057Y-91030668D01*
X72026546Y-91115690D01*
X72037804Y-91124139D01*
X72050223Y-91117367D01*
X73075078Y-90092512D01*
X73082692Y-90078568D01*
X73082561Y-90076735D01*
X73078310Y-90070120D01*
X72048421Y-89040231D01*
X72035113Y-89032964D01*
X72025074Y-89040086D01*
X72014861Y-89052366D01*
X72009446Y-89059958D01*
X71878746Y-89275346D01*
X71874508Y-89283663D01*
X71777081Y-89515999D01*
X71774120Y-89524849D01*
X71712106Y-89769031D01*
X71710484Y-89778228D01*
X71685243Y-90028898D01*
X71684998Y-90038223D01*
X42681928Y-90038223D01*
X41935605Y-89291900D01*
X41901579Y-89229588D01*
X41898700Y-89202805D01*
X41898700Y-66736666D01*
X41918702Y-66668545D01*
X41972358Y-66622052D01*
X42042632Y-66611948D01*
X42107212Y-66641442D01*
X42132132Y-66670831D01*
X42248235Y-66860293D01*
X42248242Y-66860302D01*
X42250824Y-66864516D01*
X42405031Y-67045069D01*
X42585584Y-67199276D01*
X42589792Y-67201855D01*
X42589798Y-67201859D01*
X42736859Y-67291978D01*
X42788037Y-67323340D01*
X42792607Y-67325233D01*
X42792611Y-67325235D01*
X43001182Y-67411627D01*
X43007406Y-67414205D01*
X43087609Y-67433460D01*
X43233476Y-67468480D01*
X43233482Y-67468481D01*
X43238289Y-67469635D01*
X43475000Y-67488265D01*
X43711711Y-67469635D01*
X43716518Y-67468481D01*
X43716524Y-67468480D01*
X43862391Y-67433460D01*
X43942594Y-67414205D01*
X43948818Y-67411627D01*
X44157389Y-67325235D01*
X44157393Y-67325233D01*
X44161963Y-67323340D01*
X44213141Y-67291978D01*
X44360202Y-67201859D01*
X44360208Y-67201855D01*
X44364416Y-67199276D01*
X44544969Y-67045069D01*
X44699176Y-66864516D01*
X44701755Y-66860308D01*
X44701759Y-66860302D01*
X44820654Y-66666283D01*
X44823240Y-66662063D01*
X44830962Y-66643422D01*
X44912211Y-66447267D01*
X44912212Y-66447265D01*
X44914105Y-66442694D01*
X44960159Y-66250867D01*
X44968380Y-66216624D01*
X44968381Y-66216618D01*
X44969535Y-66211811D01*
X44988165Y-65975100D01*
X44969535Y-65738389D01*
X44956367Y-65683537D01*
X44922386Y-65541998D01*
X44914105Y-65507506D01*
X44903480Y-65481854D01*
X44825135Y-65292711D01*
X44825133Y-65292707D01*
X44823240Y-65288137D01*
X44777523Y-65213534D01*
X44701759Y-65089898D01*
X44701755Y-65089892D01*
X44699176Y-65085684D01*
X44544969Y-64905131D01*
X44364416Y-64750924D01*
X44360208Y-64748345D01*
X44360202Y-64748341D01*
X44166183Y-64629446D01*
X44161963Y-64626860D01*
X44157393Y-64624967D01*
X44157389Y-64624965D01*
X43947167Y-64537889D01*
X43947165Y-64537888D01*
X43942594Y-64535995D01*
X43850770Y-64513950D01*
X43716524Y-64481720D01*
X43716518Y-64481719D01*
X43711711Y-64480565D01*
X43475000Y-64461935D01*
X43238289Y-64480565D01*
X43233482Y-64481719D01*
X43233476Y-64481720D01*
X43099230Y-64513950D01*
X43007406Y-64535995D01*
X43002835Y-64537888D01*
X43002833Y-64537889D01*
X42792611Y-64624965D01*
X42792607Y-64624967D01*
X42788037Y-64626860D01*
X42783817Y-64629446D01*
X42589798Y-64748341D01*
X42589792Y-64748345D01*
X42585584Y-64750924D01*
X42405031Y-64905131D01*
X42250824Y-65085684D01*
X42248242Y-65089897D01*
X42248235Y-65089907D01*
X42132132Y-65279369D01*
X42079485Y-65327000D01*
X42009443Y-65338607D01*
X41944246Y-65310504D01*
X41904592Y-65251613D01*
X41898700Y-65213534D01*
X41898700Y-62236666D01*
X41918702Y-62168545D01*
X41972358Y-62122052D01*
X42042632Y-62111948D01*
X42107212Y-62141442D01*
X42132132Y-62170831D01*
X42248235Y-62360293D01*
X42248242Y-62360302D01*
X42250824Y-62364516D01*
X42405031Y-62545069D01*
X42585584Y-62699276D01*
X42589792Y-62701855D01*
X42589798Y-62701859D01*
X42705276Y-62772624D01*
X42788037Y-62823340D01*
X42792607Y-62825233D01*
X42792611Y-62825235D01*
X43002833Y-62912311D01*
X43007406Y-62914205D01*
X43087609Y-62933460D01*
X43233476Y-62968480D01*
X43233482Y-62968481D01*
X43238289Y-62969635D01*
X43475000Y-62988265D01*
X43711711Y-62969635D01*
X43716518Y-62968481D01*
X43716524Y-62968480D01*
X43862391Y-62933460D01*
X43942594Y-62914205D01*
X43947167Y-62912311D01*
X44157389Y-62825235D01*
X44157393Y-62825233D01*
X44161963Y-62823340D01*
X44244724Y-62772624D01*
X44360202Y-62701859D01*
X44360208Y-62701855D01*
X44364416Y-62699276D01*
X44544969Y-62545069D01*
X44699176Y-62364516D01*
X44701755Y-62360308D01*
X44701759Y-62360302D01*
X44820654Y-62166283D01*
X44823240Y-62162063D01*
X44831782Y-62141442D01*
X44912211Y-61947267D01*
X44912212Y-61947265D01*
X44914105Y-61942694D01*
X44944541Y-61815918D01*
X44968380Y-61716624D01*
X44968381Y-61716618D01*
X44969535Y-61711811D01*
X44988165Y-61475100D01*
X44969535Y-61238389D01*
X44967282Y-61229001D01*
X44924773Y-61051941D01*
X44914105Y-61007506D01*
X44845339Y-60841489D01*
X44825135Y-60792711D01*
X44825133Y-60792707D01*
X44823240Y-60788137D01*
X44740549Y-60653198D01*
X44701759Y-60589898D01*
X44701755Y-60589892D01*
X44699176Y-60585684D01*
X44544969Y-60405131D01*
X44364416Y-60250924D01*
X44360208Y-60248345D01*
X44360202Y-60248341D01*
X44166183Y-60129446D01*
X44161963Y-60126860D01*
X44157393Y-60124967D01*
X44157389Y-60124965D01*
X43947167Y-60037889D01*
X43947165Y-60037888D01*
X43942594Y-60035995D01*
X43862391Y-60016740D01*
X43716524Y-59981720D01*
X43716518Y-59981719D01*
X43711711Y-59980565D01*
X43475000Y-59961935D01*
X43238289Y-59980565D01*
X43233482Y-59981719D01*
X43233476Y-59981720D01*
X43087609Y-60016740D01*
X43007406Y-60035995D01*
X43002835Y-60037888D01*
X43002833Y-60037889D01*
X42792611Y-60124965D01*
X42792607Y-60124967D01*
X42788037Y-60126860D01*
X42783817Y-60129446D01*
X42589798Y-60248341D01*
X42589792Y-60248345D01*
X42585584Y-60250924D01*
X42405031Y-60405131D01*
X42250824Y-60585684D01*
X42248242Y-60589897D01*
X42248235Y-60589907D01*
X42132132Y-60779369D01*
X42079485Y-60827000D01*
X42009443Y-60838607D01*
X41944246Y-60810504D01*
X41904592Y-60751613D01*
X41898700Y-60713534D01*
X41898700Y-57666498D01*
X41899191Y-57656095D01*
X41900801Y-57648891D01*
X41900569Y-57641508D01*
X41900779Y-57640032D01*
X41900930Y-57637633D01*
X41900977Y-57637029D01*
X41900981Y-57636816D01*
X41900990Y-57636681D01*
X41902475Y-57628894D01*
X41898949Y-57572849D01*
X41898700Y-57564938D01*
X41898700Y-57548944D01*
X41898060Y-57543878D01*
X41897128Y-57532043D01*
X41896809Y-57521866D01*
X41895773Y-57488910D01*
X41893714Y-57481824D01*
X41893554Y-57480373D01*
X41893097Y-57477978D01*
X41892989Y-57477360D01*
X41892941Y-57477159D01*
X41892922Y-57477062D01*
X41892425Y-57469150D01*
X41889976Y-57461612D01*
X41889975Y-57461607D01*
X41889879Y-57461313D01*
X41884706Y-57438169D01*
X41884668Y-57437867D01*
X41884667Y-57437864D01*
X41883674Y-57430003D01*
X41867023Y-57387946D01*
X41863180Y-57376720D01*
X41853332Y-57342826D01*
X41853332Y-57342825D01*
X41851118Y-57335206D01*
X41847351Y-57328837D01*
X41846866Y-57327553D01*
X41845925Y-57325552D01*
X41845549Y-57324719D01*
X41845413Y-57324464D01*
X41842964Y-57316925D01*
X41838713Y-57310226D01*
X41838550Y-57309969D01*
X41827785Y-57288842D01*
X41827671Y-57288554D01*
X41827668Y-57288549D01*
X41824752Y-57281183D01*
X41812354Y-57264118D01*
X41798227Y-57244675D01*
X41791709Y-57234751D01*
X41773679Y-57204263D01*
X41773678Y-57204262D01*
X41769642Y-57197437D01*
X41764390Y-57192185D01*
X41763671Y-57191162D01*
X41762462Y-57189701D01*
X41761638Y-57188673D01*
X41761423Y-57188437D01*
X41757200Y-57181782D01*
X41753310Y-57178129D01*
X41725521Y-57112021D01*
X41720810Y-57067200D01*
X49989996Y-57067200D01*
X49990686Y-57073765D01*
X50008055Y-57239018D01*
X50009958Y-57257128D01*
X50068973Y-57438756D01*
X50072276Y-57444478D01*
X50072277Y-57444479D01*
X50076461Y-57451725D01*
X50164460Y-57604144D01*
X50237637Y-57685415D01*
X50268353Y-57749421D01*
X50270000Y-57769724D01*
X50270000Y-64064733D01*
X50269473Y-64075916D01*
X50267798Y-64083409D01*
X50268047Y-64091335D01*
X50268047Y-64091336D01*
X50269938Y-64151486D01*
X50270000Y-64155445D01*
X50270000Y-64183356D01*
X50270497Y-64187290D01*
X50270497Y-64187291D01*
X50270505Y-64187356D01*
X50271438Y-64199193D01*
X50272827Y-64243389D01*
X50278478Y-64262839D01*
X50282487Y-64282200D01*
X50285026Y-64302297D01*
X50287945Y-64309668D01*
X50287945Y-64309670D01*
X50301304Y-64343412D01*
X50305149Y-64354642D01*
X50317482Y-64397093D01*
X50321515Y-64403912D01*
X50321517Y-64403917D01*
X50327793Y-64414528D01*
X50336488Y-64432276D01*
X50343948Y-64451117D01*
X50348610Y-64457533D01*
X50348610Y-64457534D01*
X50369936Y-64486887D01*
X50376452Y-64496807D01*
X50393265Y-64525235D01*
X50398958Y-64534862D01*
X50413279Y-64549183D01*
X50426119Y-64564216D01*
X50438028Y-64580607D01*
X50472105Y-64608798D01*
X50480884Y-64616788D01*
X74036637Y-88172542D01*
X74070663Y-88234854D01*
X74065598Y-88305669D01*
X74023051Y-88362505D01*
X73956531Y-88387316D01*
X73909129Y-88381639D01*
X73863099Y-88366905D01*
X73854038Y-88364729D01*
X73605360Y-88324229D01*
X73596073Y-88323417D01*
X73344153Y-88320119D01*
X73334842Y-88320689D01*
X73085197Y-88354664D01*
X73076078Y-88356602D01*
X72834198Y-88427104D01*
X72825467Y-88430367D01*
X72596658Y-88535851D01*
X72588506Y-88540370D01*
X72409453Y-88657762D01*
X72400316Y-88668503D01*
X72404889Y-88678279D01*
X74847013Y-91120403D01*
X74859393Y-91127163D01*
X74867734Y-91120919D01*
X74934529Y-91017075D01*
X74988203Y-90970604D01*
X75058481Y-90960528D01*
X75123050Y-90990046D01*
X75161410Y-91049788D01*
X75166500Y-91085238D01*
X75166500Y-94425405D01*
X75146498Y-94493526D01*
X75129595Y-94514501D01*
X74824065Y-94820030D01*
X74527742Y-95116353D01*
X74519463Y-95123887D01*
X74512982Y-95128000D01*
X74468332Y-95175548D01*
X74466357Y-95177651D01*
X74463602Y-95180493D01*
X74443865Y-95200230D01*
X74441385Y-95203427D01*
X74433682Y-95212447D01*
X74403414Y-95244679D01*
X74403014Y-95244304D01*
X74364338Y-95277630D01*
X74217975Y-95353822D01*
X74193607Y-95366507D01*
X74189474Y-95369610D01*
X74189471Y-95369612D01*
X74019100Y-95497530D01*
X74014965Y-95500635D01*
X73860629Y-95662138D01*
X73857720Y-95666403D01*
X73857714Y-95666411D01*
X73811594Y-95734021D01*
X73734743Y-95846680D01*
X73708050Y-95904186D01*
X73667578Y-95991376D01*
X73640688Y-96049305D01*
X73580989Y-96264570D01*
X73557251Y-96486695D01*
X73570110Y-96709715D01*
X73571247Y-96714761D01*
X73571248Y-96714767D01*
X73585606Y-96778475D01*
X73619222Y-96927639D01*
X73703266Y-97134616D01*
X73754942Y-97218944D01*
X73817291Y-97320688D01*
X73819987Y-97325088D01*
X73966250Y-97493938D01*
X74138126Y-97636632D01*
X74331000Y-97749338D01*
X74539692Y-97829030D01*
X74544760Y-97830061D01*
X74544763Y-97830062D01*
X74652017Y-97851883D01*
X74758597Y-97873567D01*
X74763772Y-97873757D01*
X74763774Y-97873757D01*
X74976673Y-97881564D01*
X74976677Y-97881564D01*
X74981837Y-97881753D01*
X74986957Y-97881097D01*
X74986959Y-97881097D01*
X75198288Y-97854025D01*
X75198289Y-97854025D01*
X75203416Y-97853368D01*
X75208366Y-97851883D01*
X75412429Y-97790661D01*
X75412434Y-97790659D01*
X75417384Y-97789174D01*
X75617994Y-97690896D01*
X75799860Y-97561173D01*
X75958096Y-97403489D01*
X76017594Y-97320689D01*
X76088453Y-97222077D01*
X76089776Y-97223028D01*
X76136645Y-97179857D01*
X76206580Y-97167625D01*
X76272026Y-97195144D01*
X76299875Y-97226994D01*
X76359987Y-97325088D01*
X76506250Y-97493938D01*
X76678126Y-97636632D01*
X76871000Y-97749338D01*
X77079692Y-97829030D01*
X77084760Y-97830061D01*
X77084763Y-97830062D01*
X77192017Y-97851883D01*
X77298597Y-97873567D01*
X77303772Y-97873757D01*
X77303774Y-97873757D01*
X77516673Y-97881564D01*
X77516677Y-97881564D01*
X77521837Y-97881753D01*
X77526957Y-97881097D01*
X77526959Y-97881097D01*
X77738288Y-97854025D01*
X77738289Y-97854025D01*
X77743416Y-97853368D01*
X77748366Y-97851883D01*
X77952429Y-97790661D01*
X77952434Y-97790659D01*
X77957384Y-97789174D01*
X78157994Y-97690896D01*
X78339860Y-97561173D01*
X78498096Y-97403489D01*
X78557594Y-97320689D01*
X78628453Y-97222077D01*
X78629776Y-97223028D01*
X78676645Y-97179857D01*
X78746580Y-97167625D01*
X78812026Y-97195144D01*
X78839875Y-97226994D01*
X78899987Y-97325088D01*
X78903367Y-97328990D01*
X78960737Y-97395219D01*
X78990220Y-97459804D01*
X78991500Y-97477717D01*
X78991500Y-99758765D01*
X78990810Y-99771935D01*
X78986645Y-99811563D01*
X78991218Y-99861811D01*
X78991500Y-99865845D01*
X78991500Y-99868407D01*
X78991800Y-99871465D01*
X78991800Y-99871469D01*
X78995895Y-99913234D01*
X78995977Y-99914109D01*
X79004570Y-100008526D01*
X79005573Y-100011935D01*
X79005920Y-100015471D01*
X79007700Y-100021365D01*
X79033334Y-100106268D01*
X79033561Y-100107028D01*
X79060410Y-100198257D01*
X79062058Y-100201410D01*
X79063084Y-100204807D01*
X79065971Y-100210237D01*
X79065972Y-100210239D01*
X79107669Y-100288660D01*
X79108016Y-100289319D01*
X79152040Y-100373528D01*
X79154265Y-100376296D01*
X79155934Y-100379434D01*
X79159831Y-100384212D01*
X79215941Y-100453010D01*
X79216494Y-100453694D01*
X79272102Y-100522856D01*
X79272108Y-100522862D01*
X79275968Y-100527663D01*
X79278689Y-100529946D01*
X79280935Y-100532700D01*
X79354136Y-100593257D01*
X79354671Y-100593703D01*
X79427474Y-100654792D01*
X79430589Y-100656504D01*
X79433325Y-100658768D01*
X79438746Y-100661699D01*
X79516865Y-100703938D01*
X79517603Y-100704340D01*
X79600787Y-100750071D01*
X79604170Y-100751144D01*
X79607299Y-100752836D01*
X79698002Y-100780913D01*
X79698842Y-100781176D01*
X79783435Y-100808011D01*
X79783439Y-100808012D01*
X79789306Y-100809873D01*
X79792837Y-100810269D01*
X79796232Y-100811320D01*
X79890707Y-100821249D01*
X79891421Y-100821327D01*
X79943227Y-100827138D01*
X79945800Y-100827138D01*
X79949776Y-100827458D01*
X79986796Y-100831349D01*
X79986798Y-100831349D01*
X79992925Y-100831993D01*
X80040570Y-100827657D01*
X80051990Y-100827138D01*
X84151118Y-100827138D01*
X84164725Y-100827875D01*
X84196223Y-100831297D01*
X84196228Y-100831297D01*
X84202349Y-100831962D01*
X84228599Y-100829665D01*
X84252349Y-100827588D01*
X84257175Y-100827259D01*
X84259647Y-100827138D01*
X84262730Y-100827138D01*
X84274699Y-100825964D01*
X84305467Y-100822948D01*
X84306780Y-100822826D01*
X84351045Y-100818953D01*
X84399374Y-100814725D01*
X84404493Y-100813238D01*
X84409794Y-100812718D01*
X84415660Y-100810947D01*
X84486359Y-100817337D01*
X84529217Y-100845452D01*
X85992094Y-102308328D01*
X86026119Y-102370640D01*
X86028790Y-102390170D01*
X86033558Y-102472859D01*
X86040727Y-102597197D01*
X86041864Y-102602243D01*
X86041865Y-102602249D01*
X86074041Y-102745023D01*
X86091646Y-102823142D01*
X86093588Y-102827924D01*
X86093589Y-102827928D01*
X86176840Y-103032950D01*
X86178784Y-103037737D01*
X86299801Y-103235219D01*
X86451447Y-103410284D01*
X86629649Y-103558230D01*
X86829622Y-103675084D01*
X87045994Y-103757709D01*
X87051060Y-103758740D01*
X87051061Y-103758740D01*
X87104146Y-103769540D01*
X87272956Y-103803885D01*
X87403624Y-103808676D01*
X87499249Y-103812183D01*
X87499253Y-103812183D01*
X87504413Y-103812372D01*
X87509533Y-103811716D01*
X87509535Y-103811716D01*
X87582570Y-103802360D01*
X87734147Y-103782942D01*
X87739095Y-103781457D01*
X87739102Y-103781456D01*
X87951047Y-103717869D01*
X87955990Y-103716386D01*
X88036536Y-103676927D01*
X88159349Y-103616762D01*
X88159352Y-103616760D01*
X88163984Y-103614491D01*
X88352543Y-103479994D01*
X88516603Y-103316505D01*
X88651758Y-103128417D01*
X88698941Y-103032950D01*
X88752084Y-102925422D01*
X88752085Y-102925420D01*
X88754378Y-102920780D01*
X88821708Y-102699171D01*
X88851940Y-102469541D01*
X88853627Y-102400500D01*
X88850788Y-102365969D01*
X126027395Y-102365969D01*
X126027692Y-102371122D01*
X126027692Y-102371125D01*
X126033367Y-102469541D01*
X126040727Y-102597197D01*
X126041864Y-102602243D01*
X126041865Y-102602249D01*
X126074041Y-102745023D01*
X126091646Y-102823142D01*
X126093588Y-102827924D01*
X126093589Y-102827928D01*
X126176840Y-103032950D01*
X126178784Y-103037737D01*
X126299801Y-103235219D01*
X126451447Y-103410284D01*
X126629649Y-103558230D01*
X126829622Y-103675084D01*
X127045994Y-103757709D01*
X127051060Y-103758740D01*
X127051061Y-103758740D01*
X127104146Y-103769540D01*
X127272956Y-103803885D01*
X127403624Y-103808676D01*
X127499249Y-103812183D01*
X127499253Y-103812183D01*
X127504413Y-103812372D01*
X127509533Y-103811716D01*
X127509535Y-103811716D01*
X127582570Y-103802360D01*
X127734147Y-103782942D01*
X127739095Y-103781457D01*
X127739102Y-103781456D01*
X127951047Y-103717869D01*
X127955990Y-103716386D01*
X128036536Y-103676927D01*
X128159349Y-103616762D01*
X128159352Y-103616760D01*
X128163984Y-103614491D01*
X128352543Y-103479994D01*
X128516603Y-103316505D01*
X128651758Y-103128417D01*
X128698941Y-103032950D01*
X128752084Y-102925422D01*
X128752085Y-102925420D01*
X128754378Y-102920780D01*
X128821708Y-102699171D01*
X128851940Y-102469541D01*
X128853627Y-102400500D01*
X128846049Y-102308328D01*
X128835073Y-102174818D01*
X128835072Y-102174812D01*
X128834649Y-102169667D01*
X128778225Y-101945033D01*
X128776166Y-101940297D01*
X128687930Y-101737368D01*
X128687928Y-101737365D01*
X128685870Y-101732631D01*
X128560064Y-101538165D01*
X128404187Y-101366858D01*
X128400136Y-101363659D01*
X128400132Y-101363655D01*
X128226477Y-101226511D01*
X128226472Y-101226508D01*
X128222423Y-101223310D01*
X128217907Y-101220817D01*
X128217904Y-101220815D01*
X128024179Y-101113873D01*
X128024175Y-101113871D01*
X128019655Y-101111376D01*
X128014786Y-101109652D01*
X128014782Y-101109650D01*
X127806203Y-101035788D01*
X127806199Y-101035787D01*
X127801328Y-101034062D01*
X127796235Y-101033155D01*
X127796232Y-101033154D01*
X127578395Y-100994351D01*
X127578389Y-100994350D01*
X127573306Y-100993445D01*
X127500396Y-100992554D01*
X127346881Y-100990679D01*
X127346879Y-100990679D01*
X127341711Y-100990616D01*
X127112764Y-101025650D01*
X126892614Y-101097606D01*
X126888026Y-101099994D01*
X126888022Y-101099996D01*
X126861365Y-101113873D01*
X126687172Y-101204552D01*
X126683039Y-101207655D01*
X126683036Y-101207657D01*
X126657925Y-101226511D01*
X126501955Y-101343617D01*
X126341939Y-101511064D01*
X126339025Y-101515336D01*
X126339024Y-101515337D01*
X126323452Y-101538165D01*
X126211419Y-101702399D01*
X126113902Y-101912481D01*
X126052007Y-102135669D01*
X126027395Y-102365969D01*
X88850788Y-102365969D01*
X88846049Y-102308328D01*
X88835073Y-102174818D01*
X88835072Y-102174812D01*
X88834649Y-102169667D01*
X88778225Y-101945033D01*
X88776166Y-101940297D01*
X88687930Y-101737368D01*
X88687928Y-101737365D01*
X88685870Y-101732631D01*
X88560064Y-101538165D01*
X88404187Y-101366858D01*
X88400136Y-101363659D01*
X88400132Y-101363655D01*
X88226477Y-101226511D01*
X88226472Y-101226508D01*
X88222423Y-101223310D01*
X88217907Y-101220817D01*
X88217904Y-101220815D01*
X88024179Y-101113873D01*
X88024175Y-101113871D01*
X88019655Y-101111376D01*
X88014786Y-101109652D01*
X88014782Y-101109650D01*
X87806203Y-101035788D01*
X87806199Y-101035787D01*
X87801328Y-101034062D01*
X87796235Y-101033155D01*
X87796232Y-101033154D01*
X87578398Y-100994352D01*
X87573306Y-100993445D01*
X87570191Y-100993407D01*
X87504811Y-100967299D01*
X87493517Y-100957283D01*
X86099745Y-99563511D01*
X86065719Y-99501199D01*
X86070784Y-99430384D01*
X86099745Y-99385321D01*
X92219379Y-93265687D01*
X92229522Y-93256585D01*
X92254218Y-93236729D01*
X92259025Y-93232864D01*
X92291292Y-93194410D01*
X92294473Y-93190762D01*
X92296117Y-93188949D01*
X92298309Y-93186757D01*
X92325580Y-93153556D01*
X92326362Y-93152614D01*
X92382193Y-93086079D01*
X92382195Y-93086076D01*
X92386154Y-93081358D01*
X92388723Y-93076685D01*
X92392103Y-93072570D01*
X92417087Y-93025977D01*
X92436028Y-92990652D01*
X92436657Y-92989494D01*
X92478465Y-92913444D01*
X92478465Y-92913443D01*
X92481433Y-92908045D01*
X92483044Y-92902967D01*
X92485563Y-92898269D01*
X92512753Y-92809334D01*
X92513136Y-92808104D01*
X92539371Y-92725402D01*
X92541235Y-92719526D01*
X92541828Y-92714235D01*
X92543388Y-92709134D01*
X92552795Y-92616521D01*
X92552915Y-92615401D01*
X92558500Y-92565605D01*
X92558500Y-92562076D01*
X92558555Y-92561093D01*
X92559004Y-92555388D01*
X92562752Y-92518496D01*
X92562752Y-92518493D01*
X92563374Y-92512369D01*
X92559059Y-92466720D01*
X92558500Y-92454863D01*
X92558500Y-85561906D01*
X126643723Y-85561906D01*
X126649004Y-85568961D01*
X126825380Y-85672027D01*
X126834663Y-85676474D01*
X127041303Y-85755383D01*
X127051201Y-85758259D01*
X127267953Y-85802357D01*
X127278183Y-85803576D01*
X127499214Y-85811682D01*
X127509523Y-85811214D01*
X127728923Y-85783108D01*
X127738988Y-85780968D01*
X127950857Y-85717405D01*
X127960452Y-85713644D01*
X128159078Y-85616338D01*
X128167936Y-85611059D01*
X128225397Y-85570072D01*
X128233797Y-85559374D01*
X128226810Y-85546221D01*
X127453111Y-84772521D01*
X127439168Y-84764908D01*
X127437334Y-84765039D01*
X127430720Y-84769290D01*
X126650480Y-85549531D01*
X126643723Y-85561906D01*
X92558500Y-85561906D01*
X92558500Y-84371138D01*
X126028193Y-84371138D01*
X126040927Y-84591968D01*
X126042361Y-84602170D01*
X126090985Y-84817939D01*
X126094073Y-84827792D01*
X126177286Y-85032720D01*
X126181934Y-85041921D01*
X126270397Y-85186281D01*
X126280853Y-85195742D01*
X126289631Y-85191958D01*
X127068279Y-84413311D01*
X127074656Y-84401632D01*
X127804708Y-84401632D01*
X127804839Y-84403466D01*
X127809090Y-84410080D01*
X128586607Y-85187596D01*
X128598613Y-85194152D01*
X128610352Y-85185184D01*
X128648310Y-85132359D01*
X128653621Y-85123520D01*
X128751618Y-84925237D01*
X128755417Y-84915642D01*
X128819715Y-84704017D01*
X128821894Y-84693936D01*
X128851002Y-84472838D01*
X128851521Y-84466163D01*
X128853044Y-84403864D01*
X128852850Y-84397146D01*
X128834579Y-84174900D01*
X128832896Y-84164738D01*
X128779010Y-83950208D01*
X128775689Y-83940453D01*
X128687493Y-83737618D01*
X128682615Y-83728520D01*
X128609524Y-83615538D01*
X128598838Y-83606335D01*
X128589273Y-83610738D01*
X127812321Y-84387689D01*
X127804708Y-84401632D01*
X127074656Y-84401632D01*
X127075892Y-84399368D01*
X127075761Y-84397534D01*
X127071510Y-84390920D01*
X126294162Y-83613573D01*
X126282630Y-83607276D01*
X126270348Y-83616899D01*
X126214767Y-83698377D01*
X126209679Y-83707333D01*
X126116552Y-83907959D01*
X126112989Y-83917646D01*
X126053881Y-84130780D01*
X126051950Y-84140900D01*
X126028445Y-84360849D01*
X126028193Y-84371138D01*
X92558500Y-84371138D01*
X92558500Y-83241211D01*
X126645808Y-83241211D01*
X126652551Y-83253540D01*
X127427489Y-84028479D01*
X127441432Y-84036092D01*
X127443266Y-84035961D01*
X127449880Y-84031710D01*
X128229294Y-83252295D01*
X128236311Y-83239444D01*
X128228537Y-83228774D01*
X128226202Y-83226930D01*
X128217620Y-83221229D01*
X128023978Y-83114333D01*
X128014572Y-83110106D01*
X127806072Y-83036272D01*
X127796109Y-83033640D01*
X127578347Y-82994850D01*
X127568096Y-82993881D01*
X127346916Y-82991179D01*
X127336632Y-82991899D01*
X127117993Y-83025355D01*
X127107966Y-83027744D01*
X126897726Y-83096461D01*
X126888216Y-83100458D01*
X126692025Y-83202589D01*
X126683307Y-83208078D01*
X126654261Y-83229886D01*
X126645808Y-83241211D01*
X92558500Y-83241211D01*
X92558500Y-78705469D01*
X102727095Y-78705469D01*
X102727392Y-78710622D01*
X102727392Y-78710625D01*
X102739899Y-78927548D01*
X102740427Y-78936697D01*
X102741564Y-78941743D01*
X102741565Y-78941749D01*
X102756394Y-79007548D01*
X102791346Y-79162642D01*
X102793288Y-79167424D01*
X102793289Y-79167428D01*
X102876540Y-79372450D01*
X102878484Y-79377237D01*
X102999501Y-79574719D01*
X103151147Y-79749784D01*
X103329349Y-79897730D01*
X103529322Y-80014584D01*
X103745694Y-80097209D01*
X103750760Y-80098240D01*
X103750761Y-80098240D01*
X103803846Y-80109040D01*
X103972656Y-80143385D01*
X104103324Y-80148176D01*
X104198949Y-80151683D01*
X104198953Y-80151683D01*
X104204113Y-80151872D01*
X104209233Y-80151216D01*
X104209235Y-80151216D01*
X104308668Y-80138478D01*
X104433847Y-80122442D01*
X104438795Y-80120957D01*
X104438802Y-80120956D01*
X104650747Y-80057369D01*
X104655690Y-80055886D01*
X104686166Y-80040956D01*
X104859049Y-79956262D01*
X104859052Y-79956260D01*
X104863684Y-79953991D01*
X105052243Y-79819494D01*
X105055898Y-79815852D01*
X105055906Y-79815845D01*
X105097697Y-79774199D01*
X105160068Y-79740282D01*
X105230875Y-79745470D01*
X105287637Y-79788116D01*
X105304619Y-79819218D01*
X105326677Y-79878056D01*
X105335214Y-79893649D01*
X105411715Y-79995724D01*
X105424276Y-80008285D01*
X105526351Y-80084786D01*
X105541946Y-80093324D01*
X105662394Y-80138478D01*
X105677649Y-80142105D01*
X105728514Y-80147631D01*
X105735328Y-80148000D01*
X106407885Y-80148000D01*
X106423124Y-80143525D01*
X106424329Y-80142135D01*
X106426000Y-80134452D01*
X106426000Y-80129884D01*
X106934000Y-80129884D01*
X106938475Y-80145123D01*
X106939865Y-80146328D01*
X106947548Y-80147999D01*
X107624669Y-80147999D01*
X107631490Y-80147629D01*
X107682352Y-80142105D01*
X107697604Y-80138479D01*
X107818054Y-80093324D01*
X107833649Y-80084786D01*
X107935724Y-80008285D01*
X107948285Y-79995724D01*
X108024786Y-79893649D01*
X108033324Y-79878054D01*
X108078478Y-79757606D01*
X108082105Y-79742351D01*
X108087631Y-79691486D01*
X108088000Y-79684672D01*
X108088000Y-79012115D01*
X108083525Y-78996876D01*
X108082135Y-78995671D01*
X108074452Y-78994000D01*
X106952115Y-78994000D01*
X106936876Y-78998475D01*
X106935671Y-78999865D01*
X106934000Y-79007548D01*
X106934000Y-80129884D01*
X106426000Y-80129884D01*
X106426000Y-78625469D01*
X120507095Y-78625469D01*
X120507392Y-78630622D01*
X120507392Y-78630625D01*
X120517679Y-78809041D01*
X120520427Y-78856697D01*
X120521564Y-78861743D01*
X120521565Y-78861749D01*
X120536394Y-78927548D01*
X120571346Y-79082642D01*
X120573288Y-79087424D01*
X120573289Y-79087428D01*
X120643477Y-79260280D01*
X120658484Y-79297237D01*
X120779501Y-79494719D01*
X120931147Y-79669784D01*
X121109349Y-79817730D01*
X121309322Y-79934584D01*
X121314147Y-79936426D01*
X121314148Y-79936427D01*
X121366091Y-79956262D01*
X121525694Y-80017209D01*
X121530760Y-80018240D01*
X121530761Y-80018240D01*
X121583846Y-80029040D01*
X121752656Y-80063385D01*
X121883324Y-80068176D01*
X121978949Y-80071683D01*
X121978953Y-80071683D01*
X121984113Y-80071872D01*
X121989233Y-80071216D01*
X121989235Y-80071216D01*
X122097325Y-80057369D01*
X122213847Y-80042442D01*
X122218795Y-80040957D01*
X122218802Y-80040956D01*
X122430747Y-79977369D01*
X122435690Y-79975886D01*
X122475748Y-79956262D01*
X122639049Y-79876262D01*
X122639052Y-79876260D01*
X122643684Y-79873991D01*
X122832243Y-79739494D01*
X122835898Y-79735852D01*
X122835906Y-79735845D01*
X122877697Y-79694199D01*
X122940068Y-79660282D01*
X123010875Y-79665470D01*
X123067637Y-79708116D01*
X123084619Y-79739218D01*
X123106677Y-79798056D01*
X123115214Y-79813649D01*
X123191715Y-79915724D01*
X123204276Y-79928285D01*
X123306351Y-80004786D01*
X123321946Y-80013324D01*
X123442394Y-80058478D01*
X123457649Y-80062105D01*
X123508514Y-80067631D01*
X123515328Y-80068000D01*
X124187885Y-80068000D01*
X124203124Y-80063525D01*
X124204329Y-80062135D01*
X124206000Y-80054452D01*
X124206000Y-80049884D01*
X124714000Y-80049884D01*
X124718475Y-80065123D01*
X124719865Y-80066328D01*
X124727548Y-80067999D01*
X125404669Y-80067999D01*
X125411490Y-80067629D01*
X125462352Y-80062105D01*
X125477604Y-80058479D01*
X125598054Y-80013324D01*
X125613649Y-80004786D01*
X125715724Y-79928285D01*
X125728285Y-79915724D01*
X125804786Y-79813649D01*
X125813324Y-79798054D01*
X125858478Y-79677606D01*
X125862105Y-79662351D01*
X125867631Y-79611486D01*
X125868000Y-79604672D01*
X125868000Y-78932115D01*
X125863525Y-78916876D01*
X125862135Y-78915671D01*
X125854452Y-78914000D01*
X124732115Y-78914000D01*
X124716876Y-78918475D01*
X124715671Y-78919865D01*
X124714000Y-78927548D01*
X124714000Y-80049884D01*
X124206000Y-80049884D01*
X124206000Y-78387885D01*
X124714000Y-78387885D01*
X124718475Y-78403124D01*
X124719865Y-78404329D01*
X124727548Y-78406000D01*
X125849884Y-78406000D01*
X125865123Y-78401525D01*
X125866328Y-78400135D01*
X125867999Y-78392452D01*
X125867999Y-77715331D01*
X125867629Y-77708510D01*
X125862105Y-77657648D01*
X125858479Y-77642396D01*
X125813324Y-77521946D01*
X125804786Y-77506351D01*
X125728285Y-77404276D01*
X125715724Y-77391715D01*
X125613649Y-77315214D01*
X125598054Y-77306676D01*
X125477606Y-77261522D01*
X125462351Y-77257895D01*
X125411486Y-77252369D01*
X125404672Y-77252000D01*
X124732115Y-77252000D01*
X124716876Y-77256475D01*
X124715671Y-77257865D01*
X124714000Y-77265548D01*
X124714000Y-78387885D01*
X124206000Y-78387885D01*
X124206000Y-77270116D01*
X124201525Y-77254877D01*
X124200135Y-77253672D01*
X124192452Y-77252001D01*
X123515331Y-77252001D01*
X123508510Y-77252371D01*
X123457648Y-77257895D01*
X123442396Y-77261521D01*
X123321946Y-77306676D01*
X123306351Y-77315214D01*
X123204276Y-77391715D01*
X123191715Y-77404276D01*
X123115214Y-77506351D01*
X123106675Y-77521948D01*
X123085934Y-77577275D01*
X123043293Y-77634040D01*
X122976731Y-77658740D01*
X122907383Y-77643533D01*
X122884388Y-77626909D01*
X122883887Y-77626358D01*
X122854459Y-77603117D01*
X122706177Y-77486011D01*
X122706172Y-77486008D01*
X122702123Y-77482810D01*
X122697607Y-77480317D01*
X122697604Y-77480315D01*
X122503879Y-77373373D01*
X122503875Y-77373371D01*
X122499355Y-77370876D01*
X122494486Y-77369152D01*
X122494482Y-77369150D01*
X122285903Y-77295288D01*
X122285899Y-77295287D01*
X122281028Y-77293562D01*
X122275935Y-77292655D01*
X122275932Y-77292654D01*
X122058095Y-77253851D01*
X122058089Y-77253850D01*
X122053006Y-77252945D01*
X121975644Y-77252000D01*
X121826581Y-77250179D01*
X121826579Y-77250179D01*
X121821411Y-77250116D01*
X121592464Y-77285150D01*
X121372314Y-77357106D01*
X121367726Y-77359494D01*
X121367722Y-77359496D01*
X121192183Y-77450876D01*
X121166872Y-77464052D01*
X121162739Y-77467155D01*
X121162736Y-77467157D01*
X121016073Y-77577275D01*
X120981655Y-77603117D01*
X120978083Y-77606855D01*
X120875655Y-77714040D01*
X120821639Y-77770564D01*
X120691119Y-77961899D01*
X120593602Y-78171981D01*
X120531707Y-78395169D01*
X120507095Y-78625469D01*
X106426000Y-78625469D01*
X106426000Y-78467885D01*
X106934000Y-78467885D01*
X106938475Y-78483124D01*
X106939865Y-78484329D01*
X106947548Y-78486000D01*
X108069884Y-78486000D01*
X108085123Y-78481525D01*
X108086328Y-78480135D01*
X108087999Y-78472452D01*
X108087999Y-77795331D01*
X108087629Y-77788510D01*
X108082105Y-77737648D01*
X108078479Y-77722396D01*
X108033324Y-77601946D01*
X108024786Y-77586351D01*
X107948285Y-77484276D01*
X107935724Y-77471715D01*
X107833649Y-77395214D01*
X107818054Y-77386676D01*
X107697606Y-77341522D01*
X107682351Y-77337895D01*
X107631486Y-77332369D01*
X107624672Y-77332000D01*
X106952115Y-77332000D01*
X106936876Y-77336475D01*
X106935671Y-77337865D01*
X106934000Y-77345548D01*
X106934000Y-78467885D01*
X106426000Y-78467885D01*
X106426000Y-77350116D01*
X106421525Y-77334877D01*
X106420135Y-77333672D01*
X106412452Y-77332001D01*
X105735331Y-77332001D01*
X105728510Y-77332371D01*
X105677648Y-77337895D01*
X105662396Y-77341521D01*
X105541946Y-77386676D01*
X105526351Y-77395214D01*
X105424276Y-77471715D01*
X105411715Y-77484276D01*
X105335214Y-77586351D01*
X105326675Y-77601948D01*
X105305934Y-77657275D01*
X105263293Y-77714040D01*
X105196731Y-77738740D01*
X105127383Y-77723533D01*
X105104388Y-77706909D01*
X105103887Y-77706358D01*
X105043592Y-77658740D01*
X104926177Y-77566011D01*
X104926172Y-77566008D01*
X104922123Y-77562810D01*
X104917607Y-77560317D01*
X104917604Y-77560315D01*
X104723879Y-77453373D01*
X104723875Y-77453371D01*
X104719355Y-77450876D01*
X104714486Y-77449152D01*
X104714482Y-77449150D01*
X104505903Y-77375288D01*
X104505899Y-77375287D01*
X104501028Y-77373562D01*
X104495935Y-77372655D01*
X104495932Y-77372654D01*
X104278095Y-77333851D01*
X104278089Y-77333850D01*
X104273006Y-77332945D01*
X104195644Y-77332000D01*
X104046581Y-77330179D01*
X104046579Y-77330179D01*
X104041411Y-77330116D01*
X103812464Y-77365150D01*
X103592314Y-77437106D01*
X103587726Y-77439494D01*
X103587722Y-77439496D01*
X103391461Y-77541663D01*
X103386872Y-77544052D01*
X103382739Y-77547155D01*
X103382736Y-77547157D01*
X103236073Y-77657275D01*
X103201655Y-77683117D01*
X103041639Y-77850564D01*
X102911119Y-78041899D01*
X102813602Y-78251981D01*
X102751707Y-78475169D01*
X102727095Y-78705469D01*
X92558500Y-78705469D01*
X92558500Y-73423343D01*
X92559237Y-73409736D01*
X92562659Y-73378238D01*
X92562659Y-73378233D01*
X92563324Y-73372112D01*
X92558950Y-73322112D01*
X92558621Y-73317286D01*
X92558500Y-73314814D01*
X92558500Y-73311731D01*
X92557326Y-73299762D01*
X92554310Y-73268994D01*
X92554188Y-73267681D01*
X92546623Y-73181218D01*
X92546087Y-73175087D01*
X92544600Y-73169968D01*
X92544080Y-73164667D01*
X92517209Y-73075666D01*
X92516874Y-73074533D01*
X92492630Y-72991086D01*
X92492628Y-72991082D01*
X92490909Y-72985164D01*
X92488456Y-72980432D01*
X92486916Y-72975331D01*
X92459243Y-72923284D01*
X92443269Y-72893240D01*
X92442657Y-72892075D01*
X92418469Y-72845413D01*
X92404877Y-72775729D01*
X92431117Y-72709759D01*
X92488857Y-72668448D01*
X92529102Y-72661852D01*
X92530688Y-72662024D01*
X92552811Y-72660089D01*
X92580688Y-72657650D01*
X92585514Y-72657321D01*
X92587986Y-72657200D01*
X92591069Y-72657200D01*
X92603038Y-72656026D01*
X92633806Y-72653010D01*
X92635119Y-72652888D01*
X92679384Y-72649015D01*
X92727713Y-72644787D01*
X92732832Y-72643300D01*
X92738133Y-72642780D01*
X92827134Y-72615909D01*
X92828267Y-72615574D01*
X92911714Y-72591330D01*
X92911718Y-72591328D01*
X92917636Y-72589609D01*
X92922368Y-72587156D01*
X92927469Y-72585616D01*
X92932912Y-72582722D01*
X93009560Y-72541969D01*
X93010726Y-72541357D01*
X93087753Y-72501429D01*
X93093226Y-72498592D01*
X93097389Y-72495269D01*
X93102096Y-72492766D01*
X93174218Y-72433945D01*
X93175074Y-72433254D01*
X93214273Y-72401962D01*
X93216777Y-72399458D01*
X93217495Y-72398816D01*
X93221828Y-72395115D01*
X93255362Y-72367765D01*
X93284588Y-72332437D01*
X93292577Y-72323658D01*
X94869379Y-70746855D01*
X94879522Y-70737753D01*
X94904218Y-70717897D01*
X94909025Y-70714032D01*
X94941292Y-70675578D01*
X94944472Y-70671931D01*
X94946115Y-70670119D01*
X94948309Y-70667925D01*
X94975642Y-70634651D01*
X94976348Y-70633800D01*
X94987762Y-70620198D01*
X95036154Y-70562526D01*
X95038722Y-70557856D01*
X95042103Y-70553739D01*
X95080848Y-70481479D01*
X95085977Y-70471914D01*
X95086606Y-70470755D01*
X95128462Y-70394619D01*
X95128465Y-70394611D01*
X95131433Y-70389213D01*
X95133045Y-70384131D01*
X95135562Y-70379437D01*
X95162762Y-70290469D01*
X95163108Y-70289358D01*
X95165360Y-70282262D01*
X95191235Y-70200694D01*
X95191829Y-70195398D01*
X95193387Y-70190302D01*
X95202790Y-70097743D01*
X95202911Y-70096607D01*
X95208500Y-70046773D01*
X95208500Y-70043246D01*
X95208555Y-70042261D01*
X95209002Y-70036581D01*
X95213374Y-69993538D01*
X95209059Y-69947891D01*
X95208500Y-69936033D01*
X95208500Y-68270269D01*
X112400395Y-68270269D01*
X112400692Y-68275422D01*
X112400692Y-68275425D01*
X112409992Y-68436720D01*
X112413727Y-68501497D01*
X112414864Y-68506543D01*
X112414865Y-68506549D01*
X112439567Y-68616159D01*
X112464646Y-68727442D01*
X112466588Y-68732224D01*
X112466589Y-68732228D01*
X112509937Y-68838980D01*
X112551784Y-68942037D01*
X112672801Y-69139519D01*
X112676182Y-69143422D01*
X112758449Y-69238394D01*
X112787931Y-69302979D01*
X112777816Y-69373252D01*
X112731315Y-69426900D01*
X112707439Y-69438873D01*
X112675007Y-69451031D01*
X112675004Y-69451033D01*
X112666595Y-69454185D01*
X112550039Y-69541539D01*
X112462685Y-69658095D01*
X112411555Y-69794484D01*
X112404800Y-69856666D01*
X112404800Y-71752934D01*
X112411555Y-71815116D01*
X112462685Y-71951505D01*
X112550039Y-72068061D01*
X112666595Y-72155415D01*
X112802984Y-72206545D01*
X112865166Y-72213300D01*
X114761434Y-72213300D01*
X114823616Y-72206545D01*
X114960005Y-72155415D01*
X115076561Y-72068061D01*
X115163915Y-71951505D01*
X115215045Y-71815116D01*
X115221800Y-71752934D01*
X115221800Y-69856666D01*
X115215045Y-69794484D01*
X115163915Y-69658095D01*
X115076561Y-69541539D01*
X114960005Y-69454185D01*
X114951596Y-69451033D01*
X114951595Y-69451032D01*
X114922271Y-69440039D01*
X114865506Y-69397398D01*
X114840806Y-69330837D01*
X114856013Y-69261488D01*
X114877560Y-69232806D01*
X114885942Y-69224453D01*
X114889603Y-69220805D01*
X115024758Y-69032717D01*
X115071941Y-68937250D01*
X115125084Y-68829722D01*
X115125085Y-68829720D01*
X115127378Y-68825080D01*
X115194708Y-68603471D01*
X115224940Y-68373841D01*
X115226627Y-68304800D01*
X115220332Y-68228234D01*
X115208073Y-68079118D01*
X115208072Y-68079112D01*
X115207649Y-68073967D01*
X115151225Y-67849333D01*
X115148595Y-67843284D01*
X115060930Y-67641668D01*
X115060928Y-67641665D01*
X115058870Y-67636931D01*
X114933064Y-67442465D01*
X114908401Y-67415360D01*
X114826393Y-67325235D01*
X114777187Y-67271158D01*
X114773136Y-67267959D01*
X114773132Y-67267955D01*
X114626990Y-67152540D01*
X114585927Y-67094623D01*
X114582695Y-67023700D01*
X114618320Y-66962289D01*
X114631913Y-66951079D01*
X114664527Y-66927816D01*
X114725543Y-66884294D01*
X114889603Y-66720805D01*
X115024758Y-66532717D01*
X115037966Y-66505994D01*
X115125084Y-66329722D01*
X115125085Y-66329720D01*
X115127378Y-66325080D01*
X115194708Y-66103471D01*
X115224940Y-65873841D01*
X115226627Y-65804800D01*
X115215384Y-65668045D01*
X115208073Y-65579118D01*
X115208072Y-65579112D01*
X115207649Y-65573967D01*
X115158525Y-65378394D01*
X115152484Y-65354344D01*
X115152483Y-65354340D01*
X115151225Y-65349333D01*
X115146082Y-65337505D01*
X115060930Y-65141668D01*
X115060928Y-65141665D01*
X115058870Y-65136931D01*
X114933064Y-64942465D01*
X114902511Y-64908887D01*
X114857133Y-64859018D01*
X114777187Y-64771158D01*
X114773136Y-64767959D01*
X114773132Y-64767955D01*
X114599477Y-64630811D01*
X114599472Y-64630808D01*
X114595423Y-64627610D01*
X114590907Y-64625117D01*
X114590904Y-64625115D01*
X114397179Y-64518173D01*
X114397175Y-64518171D01*
X114392655Y-64515676D01*
X114387786Y-64513952D01*
X114387782Y-64513950D01*
X114179203Y-64440088D01*
X114179199Y-64440087D01*
X114174328Y-64438362D01*
X114169235Y-64437455D01*
X114169232Y-64437454D01*
X113951395Y-64398651D01*
X113951389Y-64398650D01*
X113946306Y-64397745D01*
X113873396Y-64396854D01*
X113719881Y-64394979D01*
X113719879Y-64394979D01*
X113714711Y-64394916D01*
X113485764Y-64429950D01*
X113265614Y-64501906D01*
X113261026Y-64504294D01*
X113261022Y-64504296D01*
X113064761Y-64606463D01*
X113060172Y-64608852D01*
X113056039Y-64611955D01*
X113056036Y-64611957D01*
X112922143Y-64712487D01*
X112874955Y-64747917D01*
X112855806Y-64767955D01*
X112721129Y-64908887D01*
X112714939Y-64915364D01*
X112712025Y-64919636D01*
X112712024Y-64919637D01*
X112697787Y-64940508D01*
X112584419Y-65106699D01*
X112486902Y-65316781D01*
X112425007Y-65539969D01*
X112400395Y-65770269D01*
X112400692Y-65775422D01*
X112400692Y-65775425D01*
X112406180Y-65870599D01*
X112413727Y-66001497D01*
X112414864Y-66006543D01*
X112414865Y-66006549D01*
X112438908Y-66113233D01*
X112464646Y-66227442D01*
X112466588Y-66232224D01*
X112466589Y-66232228D01*
X112549840Y-66437250D01*
X112551784Y-66442037D01*
X112554483Y-66446441D01*
X112669659Y-66634391D01*
X112672801Y-66639519D01*
X112824447Y-66814584D01*
X112988856Y-66951079D01*
X112999762Y-66960133D01*
X113039397Y-67019035D01*
X113040895Y-67090016D01*
X113003781Y-67150539D01*
X112994930Y-67157837D01*
X112937243Y-67201150D01*
X112874955Y-67247917D01*
X112871383Y-67251655D01*
X112730560Y-67399018D01*
X112714939Y-67415364D01*
X112712025Y-67419636D01*
X112712024Y-67419637D01*
X112697683Y-67440660D01*
X112584419Y-67606699D01*
X112486902Y-67816781D01*
X112425007Y-68039969D01*
X112400395Y-68270269D01*
X95208500Y-68270269D01*
X95208500Y-65778700D01*
X102324035Y-65778700D01*
X102342665Y-66015411D01*
X102343819Y-66020218D01*
X102343820Y-66020224D01*
X102357211Y-66076001D01*
X102398095Y-66246294D01*
X102399988Y-66250865D01*
X102399989Y-66250867D01*
X102479174Y-66442037D01*
X102488960Y-66465663D01*
X102491546Y-66469883D01*
X102610441Y-66663902D01*
X102610445Y-66663908D01*
X102613024Y-66668116D01*
X102767231Y-66848669D01*
X102947784Y-67002876D01*
X102951992Y-67005455D01*
X102951998Y-67005459D01*
X103113803Y-67104613D01*
X103150237Y-67126940D01*
X103154807Y-67128833D01*
X103154811Y-67128835D01*
X103351586Y-67210341D01*
X103369606Y-67217805D01*
X103449809Y-67237060D01*
X103595676Y-67272080D01*
X103595682Y-67272081D01*
X103600489Y-67273235D01*
X103837200Y-67291865D01*
X104073911Y-67273235D01*
X104078718Y-67272081D01*
X104078724Y-67272080D01*
X104224591Y-67237060D01*
X104304794Y-67217805D01*
X104322814Y-67210341D01*
X104519589Y-67128835D01*
X104519593Y-67128833D01*
X104524163Y-67126940D01*
X104560597Y-67104613D01*
X104722402Y-67005459D01*
X104722408Y-67005455D01*
X104726616Y-67002876D01*
X104907169Y-66848669D01*
X105061376Y-66668116D01*
X105063955Y-66663908D01*
X105063959Y-66663902D01*
X105182854Y-66469883D01*
X105185440Y-66465663D01*
X105195227Y-66442037D01*
X105274411Y-66250867D01*
X105274412Y-66250865D01*
X105276305Y-66246294D01*
X105317189Y-66076001D01*
X105330580Y-66020224D01*
X105330581Y-66020218D01*
X105331735Y-66015411D01*
X105350365Y-65778700D01*
X105331735Y-65541989D01*
X105330072Y-65535058D01*
X105287086Y-65356011D01*
X105276305Y-65311106D01*
X105257863Y-65266582D01*
X105187335Y-65096311D01*
X105187333Y-65096307D01*
X105185440Y-65091737D01*
X105154830Y-65041786D01*
X105063959Y-64893498D01*
X105063955Y-64893492D01*
X105061376Y-64889284D01*
X104907169Y-64708731D01*
X104726616Y-64554524D01*
X104722408Y-64551945D01*
X104722402Y-64551941D01*
X104528383Y-64433046D01*
X104524163Y-64430460D01*
X104519593Y-64428567D01*
X104519589Y-64428565D01*
X104309367Y-64341489D01*
X104309365Y-64341488D01*
X104304794Y-64339595D01*
X104224591Y-64320340D01*
X104078724Y-64285320D01*
X104078718Y-64285319D01*
X104073911Y-64284165D01*
X103837200Y-64265535D01*
X103600489Y-64284165D01*
X103595682Y-64285319D01*
X103595676Y-64285320D01*
X103449809Y-64320340D01*
X103369606Y-64339595D01*
X103365035Y-64341488D01*
X103365033Y-64341489D01*
X103154811Y-64428565D01*
X103154807Y-64428567D01*
X103150237Y-64430460D01*
X103146017Y-64433046D01*
X102951998Y-64551941D01*
X102951992Y-64551945D01*
X102947784Y-64554524D01*
X102767231Y-64708731D01*
X102613024Y-64889284D01*
X102610445Y-64893492D01*
X102610441Y-64893498D01*
X102519570Y-65041786D01*
X102488960Y-65091737D01*
X102487067Y-65096307D01*
X102487065Y-65096311D01*
X102416537Y-65266582D01*
X102398095Y-65311106D01*
X102387314Y-65356011D01*
X102344329Y-65535058D01*
X102342665Y-65541989D01*
X102324035Y-65778700D01*
X95208500Y-65778700D01*
X95208500Y-62278700D01*
X102324035Y-62278700D01*
X102342665Y-62515411D01*
X102343819Y-62520218D01*
X102343820Y-62520224D01*
X102364080Y-62604613D01*
X102398095Y-62746294D01*
X102399988Y-62750865D01*
X102399989Y-62750867D01*
X102467646Y-62914205D01*
X102488960Y-62965663D01*
X102491546Y-62969883D01*
X102610441Y-63163902D01*
X102610445Y-63163908D01*
X102613024Y-63168116D01*
X102767231Y-63348669D01*
X102947784Y-63502876D01*
X102951992Y-63505455D01*
X102951998Y-63505459D01*
X103145885Y-63624273D01*
X103150237Y-63626940D01*
X103154807Y-63628833D01*
X103154811Y-63628835D01*
X103365033Y-63715911D01*
X103369606Y-63717805D01*
X103449809Y-63737060D01*
X103595676Y-63772080D01*
X103595682Y-63772081D01*
X103600489Y-63773235D01*
X103837200Y-63791865D01*
X104073911Y-63773235D01*
X104078718Y-63772081D01*
X104078724Y-63772080D01*
X104224591Y-63737060D01*
X104304794Y-63717805D01*
X104309367Y-63715911D01*
X104519589Y-63628835D01*
X104519593Y-63628833D01*
X104524163Y-63626940D01*
X104528515Y-63624273D01*
X104722402Y-63505459D01*
X104722408Y-63505455D01*
X104726616Y-63502876D01*
X104907169Y-63348669D01*
X105061376Y-63168116D01*
X105063955Y-63163908D01*
X105063959Y-63163902D01*
X105182854Y-62969883D01*
X105185440Y-62965663D01*
X105206755Y-62914205D01*
X105274411Y-62750867D01*
X105274412Y-62750865D01*
X105276305Y-62746294D01*
X105310320Y-62604613D01*
X105330580Y-62520224D01*
X105330581Y-62520218D01*
X105331735Y-62515411D01*
X105350365Y-62278700D01*
X105331735Y-62041989D01*
X105324192Y-62010567D01*
X105277460Y-61815918D01*
X105276305Y-61811106D01*
X105274411Y-61806533D01*
X105187335Y-61596311D01*
X105187333Y-61596307D01*
X105185440Y-61591737D01*
X105182854Y-61587517D01*
X105063959Y-61393498D01*
X105063955Y-61393492D01*
X105061376Y-61389284D01*
X104907169Y-61208731D01*
X104726616Y-61054524D01*
X104722408Y-61051945D01*
X104722402Y-61051941D01*
X104528383Y-60933046D01*
X104524163Y-60930460D01*
X104519593Y-60928567D01*
X104519589Y-60928565D01*
X104309367Y-60841489D01*
X104309365Y-60841488D01*
X104304794Y-60839595D01*
X104208567Y-60816493D01*
X104078724Y-60785320D01*
X104078718Y-60785319D01*
X104073911Y-60784165D01*
X103837200Y-60765535D01*
X103600489Y-60784165D01*
X103595682Y-60785319D01*
X103595676Y-60785320D01*
X103465833Y-60816493D01*
X103369606Y-60839595D01*
X103365035Y-60841488D01*
X103365033Y-60841489D01*
X103154811Y-60928565D01*
X103154807Y-60928567D01*
X103150237Y-60930460D01*
X103146017Y-60933046D01*
X102951998Y-61051941D01*
X102951992Y-61051945D01*
X102947784Y-61054524D01*
X102767231Y-61208731D01*
X102613024Y-61389284D01*
X102610445Y-61393492D01*
X102610441Y-61393498D01*
X102491546Y-61587517D01*
X102488960Y-61591737D01*
X102487067Y-61596307D01*
X102487065Y-61596311D01*
X102399989Y-61806533D01*
X102398095Y-61811106D01*
X102396940Y-61815918D01*
X102350209Y-62010567D01*
X102342665Y-62041989D01*
X102324035Y-62278700D01*
X95208500Y-62278700D01*
X95208500Y-42027343D01*
X95209237Y-42013736D01*
X95212659Y-41982238D01*
X95212659Y-41982233D01*
X95213324Y-41976112D01*
X95208950Y-41926112D01*
X95208621Y-41921286D01*
X95208500Y-41918814D01*
X95208500Y-41915731D01*
X95205345Y-41883553D01*
X95204310Y-41872994D01*
X95204188Y-41871681D01*
X95197796Y-41798619D01*
X95196087Y-41779087D01*
X95194600Y-41773968D01*
X95194080Y-41768667D01*
X95167209Y-41679666D01*
X95166874Y-41678533D01*
X95142630Y-41595086D01*
X95142628Y-41595082D01*
X95140909Y-41589164D01*
X95138456Y-41584432D01*
X95136916Y-41579331D01*
X95093269Y-41497240D01*
X95092657Y-41496074D01*
X95052729Y-41419047D01*
X95049892Y-41413574D01*
X95046569Y-41409411D01*
X95044066Y-41404704D01*
X95029254Y-41386542D01*
X94985261Y-41332602D01*
X94984433Y-41331575D01*
X94955469Y-41295292D01*
X94955464Y-41295287D01*
X94953262Y-41292528D01*
X94950761Y-41290027D01*
X94950119Y-41289309D01*
X94946406Y-41284961D01*
X94928145Y-41262571D01*
X94919065Y-41251438D01*
X94914323Y-41247515D01*
X94914321Y-41247513D01*
X94883727Y-41222203D01*
X94874947Y-41214213D01*
X92103264Y-38442530D01*
X92069238Y-38380218D01*
X92066783Y-38363760D01*
X92053172Y-38198217D01*
X92052749Y-38193067D01*
X91996325Y-37968433D01*
X91994266Y-37963697D01*
X91906030Y-37760768D01*
X91906028Y-37760765D01*
X91903970Y-37756031D01*
X91778164Y-37561565D01*
X91622287Y-37390258D01*
X91618236Y-37387059D01*
X91618232Y-37387055D01*
X91445069Y-37250300D01*
X91404006Y-37192383D01*
X91400774Y-37121460D01*
X91436399Y-37060048D01*
X91441887Y-37055523D01*
X91451897Y-37042774D01*
X91444910Y-37029621D01*
X90671211Y-36255921D01*
X90657268Y-36248308D01*
X90655434Y-36248439D01*
X90648820Y-36252690D01*
X89868580Y-37032931D01*
X89861823Y-37045306D01*
X89881130Y-37071097D01*
X89880440Y-37071613D01*
X89905027Y-37097637D01*
X89918143Y-37167411D01*
X89891455Y-37233200D01*
X89868423Y-37255619D01*
X89720055Y-37367017D01*
X89560039Y-37534464D01*
X89557125Y-37538736D01*
X89557124Y-37538737D01*
X89541552Y-37561565D01*
X89429519Y-37725799D01*
X89332002Y-37935881D01*
X89270107Y-38159069D01*
X89245495Y-38389369D01*
X89245792Y-38394522D01*
X89245792Y-38394525D01*
X89254520Y-38545903D01*
X89258827Y-38620597D01*
X89259964Y-38625643D01*
X89259965Y-38625649D01*
X89292141Y-38768423D01*
X89309746Y-38846542D01*
X89311688Y-38851324D01*
X89311689Y-38851328D01*
X89365079Y-38982811D01*
X89396884Y-39061137D01*
X89517901Y-39258619D01*
X89669547Y-39433684D01*
X89847749Y-39581630D01*
X89852219Y-39584242D01*
X89855911Y-39586400D01*
X89904632Y-39638040D01*
X89917701Y-39707824D01*
X89890966Y-39773594D01*
X89867989Y-39795945D01*
X89720055Y-39907017D01*
X89560039Y-40074464D01*
X89429519Y-40265799D01*
X89332002Y-40475881D01*
X89270107Y-40699069D01*
X89245495Y-40929369D01*
X89258827Y-41160597D01*
X89259964Y-41165643D01*
X89259965Y-41165649D01*
X89288559Y-41292528D01*
X89309746Y-41386542D01*
X89311688Y-41391324D01*
X89311689Y-41391328D01*
X89389867Y-41583857D01*
X89396884Y-41601137D01*
X89517901Y-41798619D01*
X89669547Y-41973684D01*
X89847749Y-42121630D01*
X89852219Y-42124242D01*
X89855911Y-42126400D01*
X89904632Y-42178040D01*
X89917701Y-42247824D01*
X89890966Y-42313594D01*
X89867989Y-42335945D01*
X89720055Y-42447017D01*
X89560039Y-42614464D01*
X89557125Y-42618736D01*
X89557124Y-42618737D01*
X89541552Y-42641565D01*
X89429519Y-42805799D01*
X89332002Y-43015881D01*
X89270107Y-43239069D01*
X89245495Y-43469369D01*
X89245792Y-43474522D01*
X89245792Y-43474525D01*
X89251467Y-43572941D01*
X89258827Y-43700597D01*
X89259964Y-43705643D01*
X89259965Y-43705649D01*
X89292141Y-43848423D01*
X89309746Y-43926542D01*
X89311688Y-43931324D01*
X89311689Y-43931328D01*
X89394940Y-44136350D01*
X89396884Y-44141137D01*
X89517901Y-44338619D01*
X89669547Y-44513684D01*
X89847749Y-44661630D01*
X89852219Y-44664242D01*
X89855911Y-44666400D01*
X89904632Y-44718040D01*
X89917701Y-44787824D01*
X89890966Y-44853594D01*
X89867989Y-44875945D01*
X89720055Y-44987017D01*
X89560039Y-45154464D01*
X89557125Y-45158736D01*
X89557124Y-45158737D01*
X89541552Y-45181565D01*
X89429519Y-45345799D01*
X89332002Y-45555881D01*
X89270107Y-45779069D01*
X89245495Y-46009369D01*
X89245792Y-46014522D01*
X89245792Y-46014525D01*
X89251467Y-46112941D01*
X89258827Y-46240597D01*
X89259964Y-46245643D01*
X89259965Y-46245649D01*
X89292141Y-46388423D01*
X89309746Y-46466542D01*
X89311688Y-46471324D01*
X89311689Y-46471328D01*
X89394940Y-46676350D01*
X89396884Y-46681137D01*
X89517901Y-46878619D01*
X89669547Y-47053684D01*
X89847749Y-47201630D01*
X89852219Y-47204242D01*
X89855911Y-47206400D01*
X89904632Y-47258040D01*
X89917701Y-47327824D01*
X89890966Y-47393594D01*
X89867989Y-47415945D01*
X89720055Y-47527017D01*
X89560039Y-47694464D01*
X89557125Y-47698736D01*
X89557124Y-47698737D01*
X89541552Y-47721565D01*
X89429519Y-47885799D01*
X89332002Y-48095881D01*
X89270107Y-48319069D01*
X89245495Y-48549369D01*
X89245792Y-48554522D01*
X89245792Y-48554525D01*
X89251467Y-48652941D01*
X89258827Y-48780597D01*
X89259964Y-48785643D01*
X89259965Y-48785649D01*
X89292141Y-48928423D01*
X89309746Y-49006542D01*
X89311688Y-49011324D01*
X89311689Y-49011328D01*
X89394940Y-49216350D01*
X89396884Y-49221137D01*
X89517901Y-49418619D01*
X89669547Y-49593684D01*
X89847749Y-49741630D01*
X90047722Y-49858484D01*
X90264094Y-49941109D01*
X90269160Y-49942140D01*
X90269161Y-49942140D01*
X90322246Y-49952940D01*
X90491056Y-49987285D01*
X90621724Y-49992076D01*
X90717349Y-49995583D01*
X90717353Y-49995583D01*
X90722513Y-49995772D01*
X90727633Y-49995116D01*
X90727635Y-49995116D01*
X90800670Y-49985760D01*
X90952247Y-49966342D01*
X90957195Y-49964857D01*
X90957202Y-49964856D01*
X91169147Y-49901269D01*
X91174090Y-49899786D01*
X91254636Y-49860327D01*
X91377449Y-49800162D01*
X91377452Y-49800160D01*
X91382084Y-49797891D01*
X91570643Y-49663394D01*
X91734703Y-49499905D01*
X91869858Y-49311817D01*
X91917041Y-49216350D01*
X91970184Y-49108822D01*
X91970185Y-49108820D01*
X91972478Y-49104180D01*
X92039808Y-48882571D01*
X92070040Y-48652941D01*
X92071727Y-48583900D01*
X92065432Y-48507334D01*
X92053173Y-48358218D01*
X92053172Y-48358212D01*
X92052749Y-48353067D01*
X91996325Y-48128433D01*
X91994266Y-48123697D01*
X91906030Y-47920768D01*
X91906028Y-47920765D01*
X91903970Y-47916031D01*
X91778164Y-47721565D01*
X91622287Y-47550258D01*
X91618236Y-47547059D01*
X91618232Y-47547055D01*
X91445477Y-47410622D01*
X91404414Y-47352705D01*
X91401182Y-47281782D01*
X91436807Y-47220370D01*
X91450401Y-47209161D01*
X91454272Y-47206400D01*
X91570643Y-47123394D01*
X91734703Y-46959905D01*
X91869858Y-46771817D01*
X91917041Y-46676350D01*
X91970184Y-46568822D01*
X91970185Y-46568820D01*
X91972478Y-46564180D01*
X92039808Y-46342571D01*
X92070040Y-46112941D01*
X92071727Y-46043900D01*
X92065432Y-45967334D01*
X92053173Y-45818218D01*
X92053172Y-45818212D01*
X92052749Y-45813067D01*
X91996325Y-45588433D01*
X91994266Y-45583697D01*
X91906030Y-45380768D01*
X91906028Y-45380765D01*
X91903970Y-45376031D01*
X91778164Y-45181565D01*
X91622287Y-45010258D01*
X91618236Y-45007059D01*
X91618232Y-45007055D01*
X91445477Y-44870622D01*
X91404414Y-44812705D01*
X91401182Y-44741782D01*
X91436807Y-44680370D01*
X91450401Y-44669161D01*
X91454272Y-44666400D01*
X91570643Y-44583394D01*
X91734703Y-44419905D01*
X91869858Y-44231817D01*
X91917041Y-44136350D01*
X91970184Y-44028822D01*
X91970185Y-44028820D01*
X91972478Y-44024180D01*
X92039808Y-43802571D01*
X92070040Y-43572941D01*
X92071727Y-43503900D01*
X92065432Y-43427334D01*
X92053173Y-43278218D01*
X92053172Y-43278212D01*
X92052749Y-43273067D01*
X91996325Y-43048433D01*
X91994266Y-43043697D01*
X91906030Y-42840768D01*
X91906028Y-42840765D01*
X91903970Y-42836031D01*
X91778164Y-42641565D01*
X91622287Y-42470258D01*
X91618236Y-42467059D01*
X91618232Y-42467055D01*
X91445477Y-42330622D01*
X91404414Y-42272705D01*
X91401182Y-42201782D01*
X91436807Y-42140370D01*
X91450401Y-42129161D01*
X91454272Y-42126400D01*
X91570643Y-42043394D01*
X91734703Y-41879905D01*
X91869858Y-41691817D01*
X91876424Y-41678533D01*
X91970184Y-41488822D01*
X91970185Y-41488820D01*
X91972478Y-41484180D01*
X91973985Y-41479221D01*
X91985959Y-41439812D01*
X92024900Y-41380448D01*
X92089754Y-41351561D01*
X92159931Y-41362323D01*
X92195612Y-41387346D01*
X93154595Y-42346329D01*
X93188621Y-42408641D01*
X93191500Y-42435424D01*
X93191500Y-69520075D01*
X93171498Y-69588196D01*
X93154595Y-69609170D01*
X92160471Y-70603295D01*
X92098159Y-70637320D01*
X92071376Y-70640200D01*
X90876677Y-70640200D01*
X90808556Y-70620198D01*
X90798585Y-70613082D01*
X90623869Y-70475100D01*
X90582806Y-70417183D01*
X90579574Y-70346260D01*
X90615199Y-70284848D01*
X90620687Y-70280323D01*
X90630697Y-70267574D01*
X90623710Y-70254421D01*
X89850011Y-69480721D01*
X89836068Y-69473108D01*
X89834234Y-69473239D01*
X89827620Y-69477490D01*
X89047380Y-70257731D01*
X89040623Y-70270106D01*
X89059930Y-70295897D01*
X89059240Y-70296413D01*
X89083827Y-70322437D01*
X89096943Y-70392211D01*
X89070255Y-70458000D01*
X89047223Y-70480419D01*
X88940864Y-70560276D01*
X88898855Y-70591817D01*
X88738839Y-70759264D01*
X88608319Y-70950599D01*
X88510802Y-71160681D01*
X88448907Y-71383869D01*
X88424295Y-71614169D01*
X88437627Y-71845397D01*
X88438764Y-71850443D01*
X88438765Y-71850449D01*
X88463159Y-71958691D01*
X88488546Y-72071342D01*
X88490488Y-72076124D01*
X88490489Y-72076128D01*
X88546039Y-72212931D01*
X88575684Y-72285937D01*
X88696701Y-72483419D01*
X88848347Y-72658484D01*
X89026549Y-72806430D01*
X89226522Y-72923284D01*
X89442894Y-73005909D01*
X89447960Y-73006940D01*
X89447961Y-73006940D01*
X89501046Y-73017740D01*
X89669856Y-73052085D01*
X89755979Y-73055243D01*
X89770377Y-73055771D01*
X89837719Y-73078255D01*
X89854855Y-73092590D01*
X90504595Y-73742329D01*
X90538620Y-73804642D01*
X90541500Y-73831425D01*
X90541500Y-92038908D01*
X90521498Y-92107029D01*
X90504595Y-92128003D01*
X84057651Y-98574947D01*
X84042246Y-98587422D01*
X84042296Y-98587485D01*
X83921249Y-98684116D01*
X83832132Y-98773233D01*
X83769820Y-98807259D01*
X83743037Y-98810138D01*
X81134500Y-98810138D01*
X81066379Y-98790136D01*
X81019886Y-98736480D01*
X81008500Y-98684138D01*
X81008500Y-97683804D01*
X81028502Y-97615683D01*
X81082158Y-97569190D01*
X81152432Y-97559086D01*
X81217012Y-97588580D01*
X81239628Y-97616612D01*
X81239828Y-97616462D01*
X81244021Y-97622057D01*
X81245020Y-97623295D01*
X81245212Y-97623646D01*
X81321715Y-97725724D01*
X81334276Y-97738285D01*
X81436351Y-97814786D01*
X81451946Y-97823324D01*
X81572394Y-97868478D01*
X81587649Y-97872105D01*
X81638514Y-97877631D01*
X81645328Y-97878000D01*
X82267885Y-97878000D01*
X82283124Y-97873525D01*
X82284329Y-97872135D01*
X82286000Y-97864452D01*
X82286000Y-97859884D01*
X82794000Y-97859884D01*
X82798475Y-97875123D01*
X82799865Y-97876328D01*
X82807548Y-97877999D01*
X83434669Y-97877999D01*
X83441490Y-97877629D01*
X83492352Y-97872105D01*
X83507604Y-97868479D01*
X83628054Y-97823324D01*
X83643649Y-97814786D01*
X83745724Y-97738285D01*
X83758285Y-97725724D01*
X83834786Y-97623649D01*
X83843324Y-97608054D01*
X83888478Y-97487606D01*
X83892105Y-97472351D01*
X83897631Y-97421486D01*
X83898000Y-97414672D01*
X83898000Y-96792115D01*
X83893525Y-96776876D01*
X83892135Y-96775671D01*
X83884452Y-96774000D01*
X82812115Y-96774000D01*
X82796876Y-96778475D01*
X82795671Y-96779865D01*
X82794000Y-96787548D01*
X82794000Y-97859884D01*
X82286000Y-97859884D01*
X82286000Y-96247885D01*
X82794000Y-96247885D01*
X82798475Y-96263124D01*
X82799865Y-96264329D01*
X82807548Y-96266000D01*
X83879884Y-96266000D01*
X83895123Y-96261525D01*
X83896328Y-96260135D01*
X83897999Y-96252452D01*
X83897999Y-95625331D01*
X83897629Y-95618510D01*
X83892105Y-95567648D01*
X83888479Y-95552396D01*
X83843324Y-95431946D01*
X83834786Y-95416351D01*
X83758285Y-95314276D01*
X83745724Y-95301715D01*
X83643649Y-95225214D01*
X83628054Y-95216676D01*
X83507606Y-95171522D01*
X83492351Y-95167895D01*
X83441486Y-95162369D01*
X83434672Y-95162000D01*
X82812115Y-95162000D01*
X82796876Y-95166475D01*
X82795671Y-95167865D01*
X82794000Y-95175548D01*
X82794000Y-96247885D01*
X82286000Y-96247885D01*
X82286000Y-95180116D01*
X82281525Y-95164877D01*
X82280135Y-95163672D01*
X82272452Y-95162001D01*
X81645331Y-95162001D01*
X81638510Y-95162371D01*
X81587648Y-95167895D01*
X81572396Y-95171521D01*
X81451946Y-95216676D01*
X81436351Y-95225214D01*
X81334276Y-95301715D01*
X81321715Y-95314276D01*
X81245214Y-95416351D01*
X81236676Y-95431946D01*
X81195297Y-95542322D01*
X81152655Y-95599087D01*
X81086093Y-95623786D01*
X81016744Y-95608578D01*
X80984121Y-95582891D01*
X80933151Y-95526876D01*
X80933145Y-95526870D01*
X80929670Y-95523051D01*
X80925619Y-95519852D01*
X80925615Y-95519848D01*
X80758414Y-95387800D01*
X80758410Y-95387798D01*
X80754359Y-95384598D01*
X80749831Y-95382098D01*
X80633988Y-95318150D01*
X80558789Y-95276638D01*
X80553920Y-95274914D01*
X80553916Y-95274912D01*
X80353087Y-95203795D01*
X80353083Y-95203794D01*
X80348212Y-95202069D01*
X80343119Y-95201162D01*
X80343116Y-95201161D01*
X80133373Y-95163800D01*
X80133367Y-95163799D01*
X80128284Y-95162894D01*
X80054452Y-95161992D01*
X79910081Y-95160228D01*
X79910079Y-95160228D01*
X79904911Y-95160165D01*
X79684091Y-95193955D01*
X79471756Y-95263357D01*
X79444338Y-95277630D01*
X79297975Y-95353822D01*
X79273607Y-95366507D01*
X79269474Y-95369610D01*
X79269471Y-95369612D01*
X79099100Y-95497530D01*
X79094965Y-95500635D01*
X78940629Y-95662138D01*
X78833201Y-95819621D01*
X78778293Y-95864621D01*
X78707768Y-95872792D01*
X78644021Y-95841538D01*
X78623324Y-95817054D01*
X78542822Y-95692617D01*
X78542820Y-95692614D01*
X78540014Y-95688277D01*
X78389670Y-95523051D01*
X78385619Y-95519852D01*
X78385615Y-95519848D01*
X78218414Y-95387800D01*
X78218410Y-95387798D01*
X78214359Y-95384598D01*
X78209835Y-95382101D01*
X78209831Y-95382098D01*
X78158608Y-95353822D01*
X78108636Y-95303390D01*
X78093500Y-95243513D01*
X78093500Y-88494067D01*
X78094027Y-88482884D01*
X78095702Y-88475391D01*
X78093562Y-88407314D01*
X78093500Y-88403355D01*
X78093500Y-88375444D01*
X78092995Y-88371444D01*
X78092062Y-88359601D01*
X78090922Y-88323329D01*
X78090673Y-88315410D01*
X78085022Y-88295958D01*
X78081014Y-88276606D01*
X78079467Y-88264363D01*
X78078474Y-88256503D01*
X78069903Y-88234854D01*
X78062200Y-88215397D01*
X78058355Y-88204170D01*
X78057721Y-88201987D01*
X78046018Y-88161707D01*
X78035707Y-88144272D01*
X78027012Y-88126524D01*
X78019552Y-88107683D01*
X77993564Y-88071913D01*
X77987048Y-88061993D01*
X77968580Y-88030765D01*
X77968578Y-88030762D01*
X77964542Y-88023938D01*
X77950221Y-88009617D01*
X77937380Y-87994583D01*
X77930131Y-87984606D01*
X77925472Y-87978193D01*
X77891395Y-87950002D01*
X77882616Y-87942012D01*
X75502510Y-85561906D01*
X86643723Y-85561906D01*
X86649004Y-85568961D01*
X86825380Y-85672027D01*
X86834663Y-85676474D01*
X87041303Y-85755383D01*
X87051201Y-85758259D01*
X87267953Y-85802357D01*
X87278183Y-85803576D01*
X87499214Y-85811682D01*
X87509523Y-85811214D01*
X87728923Y-85783108D01*
X87738988Y-85780968D01*
X87950857Y-85717405D01*
X87960452Y-85713644D01*
X88159078Y-85616338D01*
X88167936Y-85611059D01*
X88225397Y-85570072D01*
X88233797Y-85559374D01*
X88226810Y-85546221D01*
X87453111Y-84772521D01*
X87439168Y-84764908D01*
X87437334Y-84765039D01*
X87430720Y-84769290D01*
X86650480Y-85549531D01*
X86643723Y-85561906D01*
X75502510Y-85561906D01*
X74311742Y-84371138D01*
X86028193Y-84371138D01*
X86040927Y-84591968D01*
X86042361Y-84602170D01*
X86090985Y-84817939D01*
X86094073Y-84827792D01*
X86177286Y-85032720D01*
X86181934Y-85041921D01*
X86270397Y-85186281D01*
X86280853Y-85195742D01*
X86289631Y-85191958D01*
X87068279Y-84413311D01*
X87074656Y-84401632D01*
X87804708Y-84401632D01*
X87804839Y-84403466D01*
X87809090Y-84410080D01*
X88586607Y-85187596D01*
X88598613Y-85194152D01*
X88610352Y-85185184D01*
X88648310Y-85132359D01*
X88653621Y-85123520D01*
X88751618Y-84925237D01*
X88755417Y-84915642D01*
X88819715Y-84704017D01*
X88821894Y-84693936D01*
X88851002Y-84472838D01*
X88851521Y-84466163D01*
X88853044Y-84403864D01*
X88852850Y-84397146D01*
X88834579Y-84174900D01*
X88832896Y-84164738D01*
X88779010Y-83950208D01*
X88775689Y-83940453D01*
X88687493Y-83737618D01*
X88682615Y-83728520D01*
X88609524Y-83615538D01*
X88598838Y-83606335D01*
X88589273Y-83610738D01*
X87812321Y-84387689D01*
X87804708Y-84401632D01*
X87074656Y-84401632D01*
X87075892Y-84399368D01*
X87075761Y-84397534D01*
X87071510Y-84390920D01*
X86294162Y-83613573D01*
X86282630Y-83607276D01*
X86270348Y-83616899D01*
X86214767Y-83698377D01*
X86209679Y-83707333D01*
X86116552Y-83907959D01*
X86112989Y-83917646D01*
X86053881Y-84130780D01*
X86051950Y-84140900D01*
X86028445Y-84360849D01*
X86028193Y-84371138D01*
X74311742Y-84371138D01*
X73181815Y-83241211D01*
X86645808Y-83241211D01*
X86652551Y-83253540D01*
X87427489Y-84028479D01*
X87441432Y-84036092D01*
X87443266Y-84035961D01*
X87449880Y-84031710D01*
X88229294Y-83252295D01*
X88236311Y-83239444D01*
X88228537Y-83228774D01*
X88226202Y-83226930D01*
X88217620Y-83221229D01*
X88023978Y-83114333D01*
X88014572Y-83110106D01*
X87806072Y-83036272D01*
X87796109Y-83033640D01*
X87578347Y-82994850D01*
X87568096Y-82993881D01*
X87346916Y-82991179D01*
X87336632Y-82991899D01*
X87117993Y-83025355D01*
X87107966Y-83027744D01*
X86897726Y-83096461D01*
X86888216Y-83100458D01*
X86692025Y-83202589D01*
X86683307Y-83208078D01*
X86654261Y-83229886D01*
X86645808Y-83241211D01*
X73181815Y-83241211D01*
X61974144Y-72033539D01*
X71684273Y-72033539D01*
X71684497Y-72038205D01*
X71684497Y-72038211D01*
X71690543Y-72164073D01*
X71696813Y-72294608D01*
X71747804Y-72550956D01*
X71836126Y-72796952D01*
X71838342Y-72801076D01*
X71947411Y-73004064D01*
X71959837Y-73027191D01*
X71962632Y-73030934D01*
X71962634Y-73030937D01*
X72113430Y-73232877D01*
X72113435Y-73232883D01*
X72116222Y-73236615D01*
X72119531Y-73239895D01*
X72119536Y-73239901D01*
X72297703Y-73416519D01*
X72301843Y-73420623D01*
X72305605Y-73423381D01*
X72305608Y-73423384D01*
X72435359Y-73518521D01*
X72512624Y-73575174D01*
X72516767Y-73577354D01*
X72516769Y-73577355D01*
X72739784Y-73694689D01*
X72739789Y-73694691D01*
X72743934Y-73696872D01*
X72990690Y-73783044D01*
X72995283Y-73783916D01*
X73242885Y-73830924D01*
X73242888Y-73830924D01*
X73247474Y-73831795D01*
X73378059Y-73836926D01*
X73503975Y-73841874D01*
X73503981Y-73841874D01*
X73508643Y-73842057D01*
X73588077Y-73833357D01*
X73763807Y-73814112D01*
X73763812Y-73814111D01*
X73768460Y-73813602D01*
X73881216Y-73783916D01*
X74016694Y-73748248D01*
X74016696Y-73748247D01*
X74021217Y-73747057D01*
X74027104Y-73744528D01*
X74257072Y-73645725D01*
X74261362Y-73643882D01*
X74334087Y-73598879D01*
X74479647Y-73508804D01*
X74479648Y-73508804D01*
X74483619Y-73506346D01*
X74487182Y-73503329D01*
X74487187Y-73503326D01*
X74679539Y-73340487D01*
X74679540Y-73340486D01*
X74683105Y-73337468D01*
X74830527Y-73169366D01*
X74852357Y-73144474D01*
X74852361Y-73144469D01*
X74855439Y-73140959D01*
X74889392Y-73088174D01*
X74955595Y-72985249D01*
X74996833Y-72921137D01*
X75104183Y-72682829D01*
X75131600Y-72585616D01*
X75173860Y-72435776D01*
X75173861Y-72435773D01*
X75175130Y-72431272D01*
X75191932Y-72299196D01*
X75207716Y-72175121D01*
X75207716Y-72175117D01*
X75208114Y-72171991D01*
X75210531Y-72079700D01*
X75209535Y-72066300D01*
X75197098Y-71898935D01*
X79588658Y-71898935D01*
X79588745Y-71902936D01*
X79588745Y-71902943D01*
X79594684Y-72175121D01*
X79595361Y-72206150D01*
X79596436Y-72213300D01*
X79639249Y-72498062D01*
X79641047Y-72510024D01*
X79642142Y-72513882D01*
X79642143Y-72513885D01*
X79690671Y-72684810D01*
X79724973Y-72805629D01*
X79845781Y-73088174D01*
X80001510Y-73353079D01*
X80189638Y-73596049D01*
X80407113Y-73813145D01*
X80410294Y-73815599D01*
X80410295Y-73815600D01*
X80443929Y-73841548D01*
X80650411Y-74000848D01*
X80653890Y-74002885D01*
X80834255Y-74108493D01*
X80915587Y-74156115D01*
X80919272Y-74157683D01*
X80919276Y-74157685D01*
X81056965Y-74216272D01*
X81198343Y-74276429D01*
X81494094Y-74359840D01*
X81715560Y-74392741D01*
X81794748Y-74404505D01*
X81794750Y-74404505D01*
X81798047Y-74404995D01*
X81801378Y-74405135D01*
X81801382Y-74405135D01*
X81838335Y-74406683D01*
X81881677Y-74408500D01*
X82077740Y-74408500D01*
X82201644Y-74400596D01*
X82302657Y-74394153D01*
X82302662Y-74394152D01*
X82306665Y-74393897D01*
X82310602Y-74393135D01*
X82310604Y-74393135D01*
X82366195Y-74382379D01*
X82608359Y-74335526D01*
X82612174Y-74334268D01*
X82612178Y-74334267D01*
X82896368Y-74240556D01*
X82896373Y-74240554D01*
X82900191Y-74239295D01*
X83177429Y-74106762D01*
X83180794Y-74104589D01*
X83180798Y-74104587D01*
X83432214Y-73942250D01*
X83432220Y-73942245D01*
X83435580Y-73940076D01*
X83670459Y-73741939D01*
X83878258Y-73515563D01*
X84055608Y-73264619D01*
X84199634Y-72993173D01*
X84201050Y-72989416D01*
X84306585Y-72709388D01*
X84306587Y-72709382D01*
X84308002Y-72705627D01*
X84341215Y-72565673D01*
X84378026Y-72410558D01*
X84378027Y-72410553D01*
X84378955Y-72406642D01*
X84411342Y-72101065D01*
X84410808Y-72076551D01*
X84404727Y-71797866D01*
X84404726Y-71797860D01*
X84404639Y-71793850D01*
X84363490Y-71520155D01*
X84359550Y-71493946D01*
X84359550Y-71493944D01*
X84358953Y-71489976D01*
X84275027Y-71194371D01*
X84154219Y-70911826D01*
X83998490Y-70646921D01*
X83988685Y-70634257D01*
X83912149Y-70535411D01*
X83810362Y-70403951D01*
X83592887Y-70186855D01*
X83476622Y-70097157D01*
X83352782Y-70001615D01*
X83352778Y-70001612D01*
X83349589Y-69999152D01*
X83180520Y-69900158D01*
X83087877Y-69845913D01*
X83087874Y-69845911D01*
X83084413Y-69843885D01*
X83080728Y-69842317D01*
X83080724Y-69842315D01*
X82864053Y-69750121D01*
X82801657Y-69723571D01*
X82505906Y-69640160D01*
X82274934Y-69605847D01*
X82205252Y-69595495D01*
X82205250Y-69595495D01*
X82201953Y-69595005D01*
X82198622Y-69594865D01*
X82198618Y-69594865D01*
X82161665Y-69593317D01*
X82118323Y-69591500D01*
X81922260Y-69591500D01*
X81798356Y-69599404D01*
X81697343Y-69605847D01*
X81697338Y-69605848D01*
X81693335Y-69606103D01*
X81689398Y-69606865D01*
X81689396Y-69606865D01*
X81677483Y-69609170D01*
X81391641Y-69664474D01*
X81387826Y-69665732D01*
X81387822Y-69665733D01*
X81103632Y-69759444D01*
X81103627Y-69759446D01*
X81099809Y-69760705D01*
X80822571Y-69893238D01*
X80819206Y-69895411D01*
X80819202Y-69895413D01*
X80567786Y-70057750D01*
X80567780Y-70057755D01*
X80564420Y-70059924D01*
X80329541Y-70258061D01*
X80315048Y-70273850D01*
X80133827Y-70471272D01*
X80121742Y-70484437D01*
X79944392Y-70735381D01*
X79800366Y-71006827D01*
X79798951Y-71010583D01*
X79798950Y-71010584D01*
X79697747Y-71279119D01*
X79691998Y-71294373D01*
X79691069Y-71298288D01*
X79628796Y-71560698D01*
X79621045Y-71593358D01*
X79588658Y-71898935D01*
X75197098Y-71898935D01*
X75191507Y-71823700D01*
X75191506Y-71823696D01*
X75191161Y-71819048D01*
X75185460Y-71793850D01*
X75134508Y-71568680D01*
X75133477Y-71564123D01*
X75103142Y-71486115D01*
X75040440Y-71324876D01*
X75040439Y-71324873D01*
X75038747Y-71320523D01*
X75021652Y-71290612D01*
X74911370Y-71097660D01*
X74909051Y-71093602D01*
X74747238Y-70888343D01*
X74556863Y-70709257D01*
X74383099Y-70588712D01*
X74345951Y-70562941D01*
X74345948Y-70562939D01*
X74342109Y-70560276D01*
X74336042Y-70557284D01*
X74111881Y-70446740D01*
X74111878Y-70446739D01*
X74107693Y-70444675D01*
X74061549Y-70429904D01*
X73863223Y-70366420D01*
X73858765Y-70364993D01*
X73600793Y-70322979D01*
X73487042Y-70321490D01*
X73344122Y-70319619D01*
X73344119Y-70319619D01*
X73339445Y-70319558D01*
X73080462Y-70354804D01*
X72829533Y-70427943D01*
X72825280Y-70429903D01*
X72825279Y-70429904D01*
X72788759Y-70446740D01*
X72592172Y-70537368D01*
X72554439Y-70562107D01*
X72377504Y-70678110D01*
X72377499Y-70678114D01*
X72373591Y-70680676D01*
X72178594Y-70854718D01*
X72011463Y-71055670D01*
X71875871Y-71279119D01*
X71774797Y-71520155D01*
X71710459Y-71773483D01*
X71684273Y-72033539D01*
X61974144Y-72033539D01*
X59019943Y-69079338D01*
X88425093Y-69079338D01*
X88437827Y-69300168D01*
X88439261Y-69310370D01*
X88487885Y-69526139D01*
X88490973Y-69535992D01*
X88574186Y-69740920D01*
X88578834Y-69750121D01*
X88667297Y-69894481D01*
X88677753Y-69903942D01*
X88686531Y-69900158D01*
X89465179Y-69121511D01*
X89471556Y-69109832D01*
X90201608Y-69109832D01*
X90201739Y-69111666D01*
X90205990Y-69118280D01*
X90983507Y-69895796D01*
X90995513Y-69902352D01*
X91007252Y-69893384D01*
X91045210Y-69840559D01*
X91050521Y-69831720D01*
X91148518Y-69633437D01*
X91152317Y-69623842D01*
X91216615Y-69412217D01*
X91218794Y-69402136D01*
X91247902Y-69181038D01*
X91248421Y-69174363D01*
X91249944Y-69112064D01*
X91249750Y-69105346D01*
X91231479Y-68883100D01*
X91229796Y-68872938D01*
X91175910Y-68658408D01*
X91172589Y-68648653D01*
X91084393Y-68445818D01*
X91079515Y-68436720D01*
X91006424Y-68323738D01*
X90995738Y-68314535D01*
X90986173Y-68318938D01*
X90209221Y-69095889D01*
X90201608Y-69109832D01*
X89471556Y-69109832D01*
X89472792Y-69107568D01*
X89472661Y-69105734D01*
X89468410Y-69099120D01*
X88691062Y-68321773D01*
X88679530Y-68315476D01*
X88667248Y-68325099D01*
X88611667Y-68406577D01*
X88606579Y-68415533D01*
X88513452Y-68616159D01*
X88509889Y-68625846D01*
X88450781Y-68838980D01*
X88448850Y-68849100D01*
X88425345Y-69069049D01*
X88425093Y-69079338D01*
X59019943Y-69079338D01*
X57586769Y-67646164D01*
X57552743Y-67583852D01*
X57557808Y-67513037D01*
X57600355Y-67456201D01*
X57627646Y-67440660D01*
X57753489Y-67388535D01*
X57753493Y-67388533D01*
X57758063Y-67386640D01*
X57762283Y-67384054D01*
X57956302Y-67265159D01*
X57956308Y-67265155D01*
X57960516Y-67262576D01*
X58141069Y-67108369D01*
X58295276Y-66927816D01*
X58297855Y-66923608D01*
X58297859Y-66923602D01*
X58416754Y-66729583D01*
X58419340Y-66725363D01*
X58422967Y-66716608D01*
X58508311Y-66510567D01*
X58508312Y-66510565D01*
X58510205Y-66505994D01*
X58553639Y-66325080D01*
X58564480Y-66279924D01*
X58564481Y-66279918D01*
X58565635Y-66275111D01*
X58584265Y-66038400D01*
X62057935Y-66038400D01*
X62076565Y-66275111D01*
X62077719Y-66279918D01*
X62077720Y-66279924D01*
X62088561Y-66325080D01*
X62131995Y-66505994D01*
X62133888Y-66510565D01*
X62133889Y-66510567D01*
X62219234Y-66716608D01*
X62222860Y-66725363D01*
X62225446Y-66729583D01*
X62344341Y-66923602D01*
X62344345Y-66923608D01*
X62346924Y-66927816D01*
X62501131Y-67108369D01*
X62681684Y-67262576D01*
X62685892Y-67265155D01*
X62685898Y-67265159D01*
X62879917Y-67384054D01*
X62884137Y-67386640D01*
X62888707Y-67388533D01*
X62888711Y-67388535D01*
X63098933Y-67475611D01*
X63103506Y-67477505D01*
X63183709Y-67496760D01*
X63329576Y-67531780D01*
X63329582Y-67531781D01*
X63334389Y-67532935D01*
X63571100Y-67551565D01*
X63807811Y-67532935D01*
X63812618Y-67531781D01*
X63812624Y-67531780D01*
X63958491Y-67496760D01*
X64038694Y-67477505D01*
X64043267Y-67475611D01*
X64253489Y-67388535D01*
X64253493Y-67388533D01*
X64258063Y-67386640D01*
X64262283Y-67384054D01*
X64456302Y-67265159D01*
X64456308Y-67265155D01*
X64460516Y-67262576D01*
X64641069Y-67108369D01*
X64795276Y-66927816D01*
X64797855Y-66923608D01*
X64797859Y-66923602D01*
X64916754Y-66729583D01*
X64919340Y-66725363D01*
X64922967Y-66716608D01*
X64998535Y-66534169D01*
X88424295Y-66534169D01*
X88424592Y-66539322D01*
X88424592Y-66539325D01*
X88432235Y-66671875D01*
X88437627Y-66765397D01*
X88438764Y-66770443D01*
X88438765Y-66770449D01*
X88463600Y-66880650D01*
X88488546Y-66991342D01*
X88490488Y-66996124D01*
X88490489Y-66996128D01*
X88571675Y-67196065D01*
X88575684Y-67205937D01*
X88696701Y-67403419D01*
X88848347Y-67578484D01*
X89026549Y-67726430D01*
X89031014Y-67729039D01*
X89035179Y-67731473D01*
X89083900Y-67783114D01*
X89096967Y-67852898D01*
X89070233Y-67918668D01*
X89053523Y-67934921D01*
X89042708Y-67949411D01*
X89049451Y-67961740D01*
X89824389Y-68736679D01*
X89838332Y-68744292D01*
X89840166Y-68744161D01*
X89846780Y-68739910D01*
X90626194Y-67960495D01*
X90633211Y-67947644D01*
X90625437Y-67936975D01*
X90623855Y-67935725D01*
X90582792Y-67877809D01*
X90579559Y-67806886D01*
X90615183Y-67745474D01*
X90628778Y-67734263D01*
X90644393Y-67723125D01*
X90749443Y-67648194D01*
X90913503Y-67484705D01*
X91048658Y-67296617D01*
X91051199Y-67291477D01*
X91148984Y-67093622D01*
X91148985Y-67093620D01*
X91151278Y-67088980D01*
X91218608Y-66867371D01*
X91248840Y-66637741D01*
X91248922Y-66634391D01*
X91250445Y-66572065D01*
X91250445Y-66572061D01*
X91250527Y-66568700D01*
X91241680Y-66461089D01*
X91231973Y-66343018D01*
X91231972Y-66343012D01*
X91231549Y-66337867D01*
X91175125Y-66113233D01*
X91173031Y-66108417D01*
X91084830Y-65905568D01*
X91084828Y-65905565D01*
X91082770Y-65900831D01*
X90956964Y-65706365D01*
X90801087Y-65535058D01*
X90797036Y-65531859D01*
X90797032Y-65531855D01*
X90624277Y-65395422D01*
X90583214Y-65337505D01*
X90579982Y-65266582D01*
X90615607Y-65205170D01*
X90629201Y-65193961D01*
X90633072Y-65191200D01*
X90749443Y-65108194D01*
X90913503Y-64944705D01*
X91048658Y-64756617D01*
X91051111Y-64751655D01*
X91148984Y-64553622D01*
X91148985Y-64553620D01*
X91151278Y-64548980D01*
X91218608Y-64327371D01*
X91248840Y-64097741D01*
X91250527Y-64028700D01*
X91234101Y-63828905D01*
X91231973Y-63803018D01*
X91231972Y-63803012D01*
X91231549Y-63797867D01*
X91187966Y-63624354D01*
X91176384Y-63578244D01*
X91176383Y-63578240D01*
X91175125Y-63573233D01*
X91172709Y-63567676D01*
X91084830Y-63365568D01*
X91084828Y-63365565D01*
X91082770Y-63360831D01*
X90956964Y-63166365D01*
X90801087Y-62995058D01*
X90797036Y-62991859D01*
X90797032Y-62991855D01*
X90624277Y-62855422D01*
X90583214Y-62797505D01*
X90579982Y-62726582D01*
X90615607Y-62665170D01*
X90629201Y-62653961D01*
X90633072Y-62651200D01*
X90749443Y-62568194D01*
X90913503Y-62404705D01*
X91048658Y-62216617D01*
X91073535Y-62166283D01*
X91148984Y-62013622D01*
X91148985Y-62013620D01*
X91151278Y-62008980D01*
X91218608Y-61787371D01*
X91248840Y-61557741D01*
X91250527Y-61488700D01*
X91242700Y-61393498D01*
X91231973Y-61263018D01*
X91231972Y-61263012D01*
X91231549Y-61257867D01*
X91203337Y-61145550D01*
X91176384Y-61038244D01*
X91176383Y-61038240D01*
X91175125Y-61033233D01*
X91163939Y-61007506D01*
X91084830Y-60825568D01*
X91084828Y-60825565D01*
X91082770Y-60820831D01*
X90956964Y-60626365D01*
X90801087Y-60455058D01*
X90797036Y-60451859D01*
X90797032Y-60451855D01*
X90624277Y-60315422D01*
X90583214Y-60257505D01*
X90579982Y-60186582D01*
X90615607Y-60125170D01*
X90629201Y-60113961D01*
X90633072Y-60111200D01*
X90749443Y-60028194D01*
X90913503Y-59864705D01*
X91048658Y-59676617D01*
X91063429Y-59646731D01*
X91148984Y-59473622D01*
X91148985Y-59473620D01*
X91151278Y-59468980D01*
X91218608Y-59247371D01*
X91248840Y-59017741D01*
X91250527Y-58948700D01*
X91239833Y-58818621D01*
X91231973Y-58723018D01*
X91231972Y-58723012D01*
X91231549Y-58717867D01*
X91182337Y-58521945D01*
X91176384Y-58498244D01*
X91176383Y-58498240D01*
X91175125Y-58493233D01*
X91172237Y-58486590D01*
X91084830Y-58285568D01*
X91084828Y-58285565D01*
X91082770Y-58280831D01*
X90956964Y-58086365D01*
X90801087Y-57915058D01*
X90797036Y-57911859D01*
X90797032Y-57911855D01*
X90624277Y-57775422D01*
X90583214Y-57717505D01*
X90579982Y-57646582D01*
X90615607Y-57585170D01*
X90629201Y-57573961D01*
X90633072Y-57571200D01*
X90749443Y-57488194D01*
X90913503Y-57324705D01*
X90919094Y-57316925D01*
X90947604Y-57277248D01*
X91048658Y-57136617D01*
X91058733Y-57116233D01*
X91148984Y-56933622D01*
X91148985Y-56933620D01*
X91151278Y-56928980D01*
X91218608Y-56707371D01*
X91248840Y-56477741D01*
X91248922Y-56474391D01*
X91250445Y-56412065D01*
X91250445Y-56412061D01*
X91250527Y-56408700D01*
X91239403Y-56273397D01*
X91231973Y-56183018D01*
X91231972Y-56183012D01*
X91231549Y-56177867D01*
X91175125Y-55953233D01*
X91173066Y-55948497D01*
X91084830Y-55745568D01*
X91084828Y-55745565D01*
X91082770Y-55740831D01*
X90956964Y-55546365D01*
X90801087Y-55375058D01*
X90797036Y-55371859D01*
X90797032Y-55371855D01*
X90623377Y-55234711D01*
X90623372Y-55234708D01*
X90619323Y-55231510D01*
X90614807Y-55229017D01*
X90614804Y-55229015D01*
X90421079Y-55122073D01*
X90421075Y-55122071D01*
X90416555Y-55119576D01*
X90411686Y-55117852D01*
X90411682Y-55117850D01*
X90203103Y-55043988D01*
X90203099Y-55043987D01*
X90198228Y-55042262D01*
X90193135Y-55041355D01*
X90193132Y-55041354D01*
X89975295Y-55002551D01*
X89975289Y-55002550D01*
X89970206Y-55001645D01*
X89897296Y-55000754D01*
X89743781Y-54998879D01*
X89743779Y-54998879D01*
X89738611Y-54998816D01*
X89509664Y-55033850D01*
X89289514Y-55105806D01*
X89284926Y-55108194D01*
X89284922Y-55108196D01*
X89258265Y-55122073D01*
X89084072Y-55212752D01*
X89079939Y-55215855D01*
X89079936Y-55215857D01*
X89054825Y-55234711D01*
X88898855Y-55351817D01*
X88738839Y-55519264D01*
X88735925Y-55523536D01*
X88735924Y-55523537D01*
X88720352Y-55546365D01*
X88608319Y-55710599D01*
X88510802Y-55920681D01*
X88448907Y-56143869D01*
X88424295Y-56374169D01*
X88424592Y-56379322D01*
X88424592Y-56379325D01*
X88433624Y-56535974D01*
X88437627Y-56605397D01*
X88438764Y-56610443D01*
X88438765Y-56610449D01*
X88470941Y-56753223D01*
X88488546Y-56831342D01*
X88490488Y-56836124D01*
X88490489Y-56836128D01*
X88538813Y-56955135D01*
X88575684Y-57045937D01*
X88696701Y-57243419D01*
X88848347Y-57418484D01*
X89026549Y-57566430D01*
X89031019Y-57569042D01*
X89034711Y-57571200D01*
X89083432Y-57622840D01*
X89096501Y-57692624D01*
X89069766Y-57758394D01*
X89046789Y-57780745D01*
X89034770Y-57789769D01*
X88920120Y-57875851D01*
X88898855Y-57891817D01*
X88860166Y-57932303D01*
X88791068Y-58004610D01*
X88738839Y-58059264D01*
X88735925Y-58063536D01*
X88735924Y-58063537D01*
X88689121Y-58132148D01*
X88608319Y-58250599D01*
X88510802Y-58460681D01*
X88448907Y-58683869D01*
X88424295Y-58914169D01*
X88424592Y-58919322D01*
X88424592Y-58919325D01*
X88437029Y-59135018D01*
X88437627Y-59145397D01*
X88438764Y-59150443D01*
X88438765Y-59150449D01*
X88461901Y-59253108D01*
X88488546Y-59371342D01*
X88490488Y-59376124D01*
X88490489Y-59376128D01*
X88573740Y-59581150D01*
X88575684Y-59585937D01*
X88578383Y-59590341D01*
X88693461Y-59778131D01*
X88696701Y-59783419D01*
X88848347Y-59958484D01*
X89026549Y-60106430D01*
X89031019Y-60109042D01*
X89034711Y-60111200D01*
X89083432Y-60162840D01*
X89096501Y-60232624D01*
X89069766Y-60298394D01*
X89046789Y-60320745D01*
X88898855Y-60431817D01*
X88863866Y-60468431D01*
X88755409Y-60581925D01*
X88738839Y-60599264D01*
X88735925Y-60603536D01*
X88735924Y-60603537D01*
X88704922Y-60648984D01*
X88608319Y-60790599D01*
X88510802Y-61000681D01*
X88448907Y-61223869D01*
X88424295Y-61454169D01*
X88424592Y-61459322D01*
X88424592Y-61459325D01*
X88437329Y-61680229D01*
X88437627Y-61685397D01*
X88438764Y-61690443D01*
X88438765Y-61690449D01*
X88464926Y-61806533D01*
X88488546Y-61911342D01*
X88490488Y-61916124D01*
X88490489Y-61916128D01*
X88573740Y-62121150D01*
X88575684Y-62125937D01*
X88696701Y-62323419D01*
X88848347Y-62498484D01*
X89026549Y-62646430D01*
X89031019Y-62649042D01*
X89034711Y-62651200D01*
X89083432Y-62702840D01*
X89096501Y-62772624D01*
X89069766Y-62838394D01*
X89046789Y-62860745D01*
X88974049Y-62915360D01*
X88898855Y-62971817D01*
X88738839Y-63139264D01*
X88735925Y-63143536D01*
X88735924Y-63143537D01*
X88722032Y-63163902D01*
X88608319Y-63330599D01*
X88510802Y-63540681D01*
X88448907Y-63763869D01*
X88424295Y-63994169D01*
X88424592Y-63999322D01*
X88424592Y-63999325D01*
X88430267Y-64097741D01*
X88437627Y-64225397D01*
X88438764Y-64230443D01*
X88438765Y-64230449D01*
X88464223Y-64343412D01*
X88488546Y-64451342D01*
X88490488Y-64456124D01*
X88490489Y-64456128D01*
X88561421Y-64630811D01*
X88575684Y-64665937D01*
X88696701Y-64863419D01*
X88848347Y-65038484D01*
X89026549Y-65186430D01*
X89031019Y-65189042D01*
X89034711Y-65191200D01*
X89083432Y-65242840D01*
X89096501Y-65312624D01*
X89069766Y-65378394D01*
X89046789Y-65400745D01*
X88904597Y-65507506D01*
X88898855Y-65511817D01*
X88738839Y-65679264D01*
X88735925Y-65683536D01*
X88735924Y-65683537D01*
X88720352Y-65706365D01*
X88608319Y-65870599D01*
X88510802Y-66080681D01*
X88448907Y-66303869D01*
X88424295Y-66534169D01*
X64998535Y-66534169D01*
X65008311Y-66510567D01*
X65008312Y-66510565D01*
X65010205Y-66505994D01*
X65053639Y-66325080D01*
X65064480Y-66279924D01*
X65064481Y-66279918D01*
X65065635Y-66275111D01*
X65084265Y-66038400D01*
X65065635Y-65801689D01*
X65061300Y-65783630D01*
X65029460Y-65651009D01*
X65010205Y-65570806D01*
X65005545Y-65559556D01*
X64921235Y-65356011D01*
X64921233Y-65356007D01*
X64919340Y-65351437D01*
X64886284Y-65297495D01*
X64797859Y-65153198D01*
X64797855Y-65153192D01*
X64795276Y-65148984D01*
X64641069Y-64968431D01*
X64460516Y-64814224D01*
X64456308Y-64811645D01*
X64456302Y-64811641D01*
X64262283Y-64692746D01*
X64258063Y-64690160D01*
X64253493Y-64688267D01*
X64253489Y-64688265D01*
X64043267Y-64601189D01*
X64043265Y-64601188D01*
X64038694Y-64599295D01*
X63934141Y-64574194D01*
X63812624Y-64545020D01*
X63812618Y-64545019D01*
X63807811Y-64543865D01*
X63571100Y-64525235D01*
X63334389Y-64543865D01*
X63329582Y-64545019D01*
X63329576Y-64545020D01*
X63208059Y-64574194D01*
X63103506Y-64599295D01*
X63098935Y-64601188D01*
X63098933Y-64601189D01*
X62888711Y-64688265D01*
X62888707Y-64688267D01*
X62884137Y-64690160D01*
X62879917Y-64692746D01*
X62685898Y-64811641D01*
X62685892Y-64811645D01*
X62681684Y-64814224D01*
X62501131Y-64968431D01*
X62346924Y-65148984D01*
X62344345Y-65153192D01*
X62344341Y-65153198D01*
X62255916Y-65297495D01*
X62222860Y-65351437D01*
X62220967Y-65356007D01*
X62220965Y-65356011D01*
X62136655Y-65559556D01*
X62131995Y-65570806D01*
X62112740Y-65651009D01*
X62080901Y-65783630D01*
X62076565Y-65801689D01*
X62057935Y-66038400D01*
X58584265Y-66038400D01*
X58565635Y-65801689D01*
X58561300Y-65783630D01*
X58529460Y-65651009D01*
X58510205Y-65570806D01*
X58505545Y-65559556D01*
X58421235Y-65356011D01*
X58421233Y-65356007D01*
X58419340Y-65351437D01*
X58386284Y-65297495D01*
X58297859Y-65153198D01*
X58297855Y-65153192D01*
X58295276Y-65148984D01*
X58141069Y-64968431D01*
X57960516Y-64814224D01*
X57956308Y-64811645D01*
X57956302Y-64811641D01*
X57762283Y-64692746D01*
X57758063Y-64690160D01*
X57753493Y-64688267D01*
X57753489Y-64688265D01*
X57543267Y-64601189D01*
X57543265Y-64601188D01*
X57538694Y-64599295D01*
X57434141Y-64574194D01*
X57312624Y-64545020D01*
X57312618Y-64545019D01*
X57307811Y-64543865D01*
X57071100Y-64525235D01*
X56834389Y-64543865D01*
X56829582Y-64545019D01*
X56829576Y-64545020D01*
X56708059Y-64574194D01*
X56603506Y-64599295D01*
X56598935Y-64601188D01*
X56598933Y-64601189D01*
X56388711Y-64688265D01*
X56388707Y-64688267D01*
X56384137Y-64690160D01*
X56379917Y-64692746D01*
X56185898Y-64811641D01*
X56185892Y-64811645D01*
X56181684Y-64814224D01*
X56001131Y-64968431D01*
X55846924Y-65148984D01*
X55844345Y-65153192D01*
X55844341Y-65153198D01*
X55755916Y-65297495D01*
X55722860Y-65351437D01*
X55720967Y-65356007D01*
X55720965Y-65356011D01*
X55668840Y-65481854D01*
X55624292Y-65537135D01*
X55556929Y-65559556D01*
X55488137Y-65541998D01*
X55463336Y-65522731D01*
X52424805Y-62484200D01*
X52390779Y-62421888D01*
X52387900Y-62395105D01*
X52387900Y-61538400D01*
X55557935Y-61538400D01*
X55576565Y-61775111D01*
X55577719Y-61779918D01*
X55577720Y-61779924D01*
X55586362Y-61815918D01*
X55631995Y-62005994D01*
X55633888Y-62010565D01*
X55633889Y-62010567D01*
X55717316Y-62211978D01*
X55722860Y-62225363D01*
X55725446Y-62229583D01*
X55844341Y-62423602D01*
X55844345Y-62423608D01*
X55846924Y-62427816D01*
X56001131Y-62608369D01*
X56181684Y-62762576D01*
X56185892Y-62765155D01*
X56185898Y-62765159D01*
X56296200Y-62832752D01*
X56384137Y-62886640D01*
X56388707Y-62888533D01*
X56388711Y-62888535D01*
X56598798Y-62975555D01*
X56603506Y-62977505D01*
X56646709Y-62987877D01*
X56829576Y-63031780D01*
X56829582Y-63031781D01*
X56834389Y-63032935D01*
X57071100Y-63051565D01*
X57307811Y-63032935D01*
X57312618Y-63031781D01*
X57312624Y-63031780D01*
X57495491Y-62987877D01*
X57538694Y-62977505D01*
X57543402Y-62975555D01*
X57753489Y-62888535D01*
X57753493Y-62888533D01*
X57758063Y-62886640D01*
X57846000Y-62832752D01*
X57956302Y-62765159D01*
X57956308Y-62765155D01*
X57960516Y-62762576D01*
X58141069Y-62608369D01*
X58295276Y-62427816D01*
X58297855Y-62423608D01*
X58297859Y-62423602D01*
X58416754Y-62229583D01*
X58419340Y-62225363D01*
X58424885Y-62211978D01*
X58508311Y-62010567D01*
X58508312Y-62010565D01*
X58510205Y-62005994D01*
X58555838Y-61815918D01*
X58564480Y-61779924D01*
X58564481Y-61779918D01*
X58565635Y-61775111D01*
X58584265Y-61538400D01*
X62057935Y-61538400D01*
X62076565Y-61775111D01*
X62077719Y-61779918D01*
X62077720Y-61779924D01*
X62086362Y-61815918D01*
X62131995Y-62005994D01*
X62133888Y-62010565D01*
X62133889Y-62010567D01*
X62217316Y-62211978D01*
X62222860Y-62225363D01*
X62225446Y-62229583D01*
X62344341Y-62423602D01*
X62344345Y-62423608D01*
X62346924Y-62427816D01*
X62501131Y-62608369D01*
X62681684Y-62762576D01*
X62685892Y-62765155D01*
X62685898Y-62765159D01*
X62796200Y-62832752D01*
X62884137Y-62886640D01*
X62888707Y-62888533D01*
X62888711Y-62888535D01*
X63098798Y-62975555D01*
X63103506Y-62977505D01*
X63146709Y-62987877D01*
X63329576Y-63031780D01*
X63329582Y-63031781D01*
X63334389Y-63032935D01*
X63571100Y-63051565D01*
X63807811Y-63032935D01*
X63812618Y-63031781D01*
X63812624Y-63031780D01*
X63995491Y-62987877D01*
X64038694Y-62977505D01*
X64043402Y-62975555D01*
X64253489Y-62888535D01*
X64253493Y-62888533D01*
X64258063Y-62886640D01*
X64346000Y-62832752D01*
X64456302Y-62765159D01*
X64456308Y-62765155D01*
X64460516Y-62762576D01*
X64641069Y-62608369D01*
X64795276Y-62427816D01*
X64797855Y-62423608D01*
X64797859Y-62423602D01*
X64916754Y-62229583D01*
X64919340Y-62225363D01*
X64924885Y-62211978D01*
X65008311Y-62010567D01*
X65008312Y-62010565D01*
X65010205Y-62005994D01*
X65055838Y-61815918D01*
X65064480Y-61779924D01*
X65064481Y-61779918D01*
X65065635Y-61775111D01*
X65084265Y-61538400D01*
X65065635Y-61301689D01*
X65055115Y-61257867D01*
X65011360Y-61075618D01*
X65010205Y-61070806D01*
X65002391Y-61051941D01*
X64921235Y-60856011D01*
X64921233Y-60856007D01*
X64919340Y-60851437D01*
X64884931Y-60795287D01*
X64797859Y-60653198D01*
X64797855Y-60653192D01*
X64795276Y-60648984D01*
X64641069Y-60468431D01*
X64460516Y-60314224D01*
X64456308Y-60311645D01*
X64456302Y-60311641D01*
X64262283Y-60192746D01*
X64258063Y-60190160D01*
X64253493Y-60188267D01*
X64253489Y-60188265D01*
X64043267Y-60101189D01*
X64043265Y-60101188D01*
X64038694Y-60099295D01*
X63958491Y-60080040D01*
X63812624Y-60045020D01*
X63812618Y-60045019D01*
X63807811Y-60043865D01*
X63571100Y-60025235D01*
X63334389Y-60043865D01*
X63329582Y-60045019D01*
X63329576Y-60045020D01*
X63183709Y-60080040D01*
X63103506Y-60099295D01*
X63098935Y-60101188D01*
X63098933Y-60101189D01*
X62888711Y-60188265D01*
X62888707Y-60188267D01*
X62884137Y-60190160D01*
X62879917Y-60192746D01*
X62685898Y-60311641D01*
X62685892Y-60311645D01*
X62681684Y-60314224D01*
X62501131Y-60468431D01*
X62346924Y-60648984D01*
X62344345Y-60653192D01*
X62344341Y-60653198D01*
X62257269Y-60795287D01*
X62222860Y-60851437D01*
X62220967Y-60856007D01*
X62220965Y-60856011D01*
X62139809Y-61051941D01*
X62131995Y-61070806D01*
X62130840Y-61075618D01*
X62087086Y-61257867D01*
X62076565Y-61301689D01*
X62057935Y-61538400D01*
X58584265Y-61538400D01*
X58565635Y-61301689D01*
X58555115Y-61257867D01*
X58511360Y-61075618D01*
X58510205Y-61070806D01*
X58502391Y-61051941D01*
X58421235Y-60856011D01*
X58421233Y-60856007D01*
X58419340Y-60851437D01*
X58384931Y-60795287D01*
X58297859Y-60653198D01*
X58297855Y-60653192D01*
X58295276Y-60648984D01*
X58141069Y-60468431D01*
X57960516Y-60314224D01*
X57956308Y-60311645D01*
X57956302Y-60311641D01*
X57762283Y-60192746D01*
X57758063Y-60190160D01*
X57753493Y-60188267D01*
X57753489Y-60188265D01*
X57543267Y-60101189D01*
X57543265Y-60101188D01*
X57538694Y-60099295D01*
X57458491Y-60080040D01*
X57312624Y-60045020D01*
X57312618Y-60045019D01*
X57307811Y-60043865D01*
X57071100Y-60025235D01*
X56834389Y-60043865D01*
X56829582Y-60045019D01*
X56829576Y-60045020D01*
X56683709Y-60080040D01*
X56603506Y-60099295D01*
X56598935Y-60101188D01*
X56598933Y-60101189D01*
X56388711Y-60188265D01*
X56388707Y-60188267D01*
X56384137Y-60190160D01*
X56379917Y-60192746D01*
X56185898Y-60311641D01*
X56185892Y-60311645D01*
X56181684Y-60314224D01*
X56001131Y-60468431D01*
X55846924Y-60648984D01*
X55844345Y-60653192D01*
X55844341Y-60653198D01*
X55757269Y-60795287D01*
X55722860Y-60851437D01*
X55720967Y-60856007D01*
X55720965Y-60856011D01*
X55639809Y-61051941D01*
X55631995Y-61070806D01*
X55630840Y-61075618D01*
X55587086Y-61257867D01*
X55576565Y-61301689D01*
X55557935Y-61538400D01*
X52387900Y-61538400D01*
X52387900Y-59898424D01*
X52407902Y-59830303D01*
X52420258Y-59814121D01*
X52493440Y-59732844D01*
X52588927Y-59567456D01*
X52647942Y-59385828D01*
X52648962Y-59376128D01*
X52667214Y-59202465D01*
X52667904Y-59195900D01*
X52660869Y-59128965D01*
X52648632Y-59012535D01*
X52648632Y-59012533D01*
X52647942Y-59005972D01*
X52588927Y-58824344D01*
X52493440Y-58658956D01*
X52365653Y-58517034D01*
X52222426Y-58412973D01*
X52216494Y-58408663D01*
X52216493Y-58408662D01*
X52211152Y-58404782D01*
X52205124Y-58402098D01*
X52205122Y-58402097D01*
X52042719Y-58329791D01*
X52042718Y-58329791D01*
X52036688Y-58327106D01*
X51935384Y-58305573D01*
X51856344Y-58288772D01*
X51856339Y-58288772D01*
X51849887Y-58287400D01*
X51663000Y-58287400D01*
X51594879Y-58267398D01*
X51548386Y-58213742D01*
X51537000Y-58161400D01*
X51537000Y-57769724D01*
X51557002Y-57701603D01*
X51569358Y-57685421D01*
X51642540Y-57604144D01*
X51730539Y-57451725D01*
X51734723Y-57444479D01*
X51734724Y-57444478D01*
X51738027Y-57438756D01*
X51797042Y-57257128D01*
X51798946Y-57239018D01*
X51816314Y-57073765D01*
X51817004Y-57067200D01*
X51797042Y-56877272D01*
X51738027Y-56695644D01*
X51642540Y-56530256D01*
X51575456Y-56455751D01*
X51519175Y-56393245D01*
X51519174Y-56393244D01*
X51514753Y-56388334D01*
X51360252Y-56276082D01*
X51354224Y-56273398D01*
X51354222Y-56273397D01*
X51191819Y-56201091D01*
X51191818Y-56201091D01*
X51185788Y-56198406D01*
X51089160Y-56177867D01*
X51005444Y-56160072D01*
X51005439Y-56160072D01*
X50998987Y-56158700D01*
X50808013Y-56158700D01*
X50801561Y-56160072D01*
X50801556Y-56160072D01*
X50717840Y-56177867D01*
X50621212Y-56198406D01*
X50615182Y-56201091D01*
X50615181Y-56201091D01*
X50452778Y-56273397D01*
X50452776Y-56273398D01*
X50446748Y-56276082D01*
X50292247Y-56388334D01*
X50287826Y-56393244D01*
X50287825Y-56393245D01*
X50231545Y-56455751D01*
X50164460Y-56530256D01*
X50068973Y-56695644D01*
X50009958Y-56877272D01*
X49989996Y-57067200D01*
X41720810Y-57067200D01*
X41709032Y-56955134D01*
X41709031Y-56955131D01*
X41708342Y-56948572D01*
X41649327Y-56766944D01*
X41553840Y-56601556D01*
X41426053Y-56459634D01*
X41271552Y-56347382D01*
X41265524Y-56344698D01*
X41265522Y-56344697D01*
X41103119Y-56272391D01*
X41103118Y-56272391D01*
X41097088Y-56269706D01*
X41003687Y-56249853D01*
X40916744Y-56231372D01*
X40916739Y-56231372D01*
X40910287Y-56230000D01*
X40719313Y-56230000D01*
X40712861Y-56231372D01*
X40712856Y-56231372D01*
X40625913Y-56249853D01*
X40532512Y-56269706D01*
X40526482Y-56272391D01*
X40526481Y-56272391D01*
X40364078Y-56344697D01*
X40364076Y-56344698D01*
X40358048Y-56347382D01*
X40203547Y-56459634D01*
X40075760Y-56601556D01*
X39980273Y-56766944D01*
X39921258Y-56948572D01*
X39901296Y-57138500D01*
X39901986Y-57145065D01*
X39920426Y-57320508D01*
X39921258Y-57328428D01*
X39980273Y-57510056D01*
X39983576Y-57515778D01*
X39983577Y-57515779D01*
X39999808Y-57543892D01*
X40075760Y-57675444D01*
X40080178Y-57680351D01*
X40080179Y-57680352D01*
X40198247Y-57811480D01*
X40203547Y-57817366D01*
X40358048Y-57929618D01*
X40364076Y-57932302D01*
X40364078Y-57932303D01*
X40526483Y-58004610D01*
X40526485Y-58004611D01*
X40532512Y-58007294D01*
X40538966Y-58008666D01*
X40544636Y-58010508D01*
X40603242Y-58050581D01*
X40630879Y-58115978D01*
X40631700Y-58130341D01*
X40631700Y-89438633D01*
X40631173Y-89449816D01*
X40629498Y-89457309D01*
X40629747Y-89465235D01*
X40629747Y-89465236D01*
X40631638Y-89525386D01*
X40631700Y-89529345D01*
X40631700Y-89557256D01*
X40632197Y-89561190D01*
X40632197Y-89561191D01*
X40632205Y-89561256D01*
X40633138Y-89573093D01*
X40634527Y-89617289D01*
X40639589Y-89634713D01*
X40640178Y-89636739D01*
X40644187Y-89656100D01*
X40646726Y-89676197D01*
X40649645Y-89683568D01*
X40649645Y-89683570D01*
X40663004Y-89717312D01*
X40666849Y-89728542D01*
X40679182Y-89770993D01*
X40683215Y-89777812D01*
X40683217Y-89777817D01*
X40689493Y-89788428D01*
X40698188Y-89806176D01*
X40705648Y-89825017D01*
X40710310Y-89831433D01*
X40710310Y-89831434D01*
X40731636Y-89860787D01*
X40738152Y-89870707D01*
X40760658Y-89908762D01*
X40774979Y-89923083D01*
X40787819Y-89938116D01*
X40799728Y-89954507D01*
X40805834Y-89959558D01*
X40833805Y-89982698D01*
X40842584Y-89990688D01*
X43815561Y-92963665D01*
X43849587Y-93025977D01*
X43844522Y-93096792D01*
X43801975Y-93153628D01*
X43735455Y-93178439D01*
X43724930Y-93178751D01*
X43715393Y-93178634D01*
X43702680Y-93178479D01*
X43702678Y-93178479D01*
X43697511Y-93178416D01*
X43468564Y-93213450D01*
X43248414Y-93285406D01*
X43243826Y-93287794D01*
X43243822Y-93287796D01*
X43047561Y-93389963D01*
X43042972Y-93392352D01*
X43038839Y-93395455D01*
X43038836Y-93395457D01*
X42979384Y-93440095D01*
X42857755Y-93531417D01*
X42697739Y-93698864D01*
X42630406Y-93797571D01*
X42575497Y-93842571D01*
X42504972Y-93850742D01*
X42441225Y-93819488D01*
X42420528Y-93795005D01*
X42378671Y-93730304D01*
X42375864Y-93725965D01*
X42219987Y-93554658D01*
X42215936Y-93551459D01*
X42215932Y-93551455D01*
X42042277Y-93414311D01*
X42042272Y-93414308D01*
X42038223Y-93411110D01*
X42033707Y-93408617D01*
X42033704Y-93408615D01*
X41839979Y-93301673D01*
X41839975Y-93301671D01*
X41835455Y-93299176D01*
X41830586Y-93297452D01*
X41830582Y-93297450D01*
X41622003Y-93223588D01*
X41621999Y-93223587D01*
X41617128Y-93221862D01*
X41612035Y-93220955D01*
X41612032Y-93220954D01*
X41394195Y-93182151D01*
X41394189Y-93182150D01*
X41389106Y-93181245D01*
X41316196Y-93180354D01*
X41162681Y-93178479D01*
X41162679Y-93178479D01*
X41157511Y-93178416D01*
X40928564Y-93213450D01*
X40708414Y-93285406D01*
X40703826Y-93287794D01*
X40703822Y-93287796D01*
X40507561Y-93389963D01*
X40502972Y-93392352D01*
X40498839Y-93395455D01*
X40498836Y-93395457D01*
X40439384Y-93440095D01*
X40317755Y-93531417D01*
X40157739Y-93698864D01*
X40154830Y-93703129D01*
X40154824Y-93703137D01*
X40139252Y-93725965D01*
X40027219Y-93890199D01*
X39929702Y-94100281D01*
X39867807Y-94323469D01*
X39843195Y-94553769D01*
X30508500Y-94553769D01*
X30508500Y-91488833D01*
X31402712Y-91488833D01*
X31411425Y-91500353D01*
X31509118Y-91571984D01*
X31517028Y-91576927D01*
X31739990Y-91694233D01*
X31748553Y-91697956D01*
X31986404Y-91781018D01*
X31995413Y-91783432D01*
X32242942Y-91830427D01*
X32252198Y-91831481D01*
X32503957Y-91841373D01*
X32513271Y-91841047D01*
X32763715Y-91813620D01*
X32772892Y-91811919D01*
X33016531Y-91747774D01*
X33025351Y-91744737D01*
X33256836Y-91645283D01*
X33265108Y-91640976D01*
X33479349Y-91508400D01*
X33486288Y-91503358D01*
X33494618Y-91490719D01*
X33488556Y-91480366D01*
X32459912Y-90451722D01*
X32445968Y-90444108D01*
X32444135Y-90444239D01*
X32437520Y-90448490D01*
X31409370Y-91476640D01*
X31402712Y-91488833D01*
X30508500Y-91488833D01*
X30508500Y-90606772D01*
X30528502Y-90538651D01*
X30582158Y-90492158D01*
X30652432Y-90482054D01*
X30717012Y-90511548D01*
X30753088Y-90564195D01*
X30835000Y-90792339D01*
X30838800Y-90800874D01*
X30958046Y-91022801D01*
X30963057Y-91030668D01*
X31026546Y-91115690D01*
X31037804Y-91124139D01*
X31050223Y-91117367D01*
X32075078Y-90092512D01*
X32081456Y-90080832D01*
X32811508Y-90080832D01*
X32811639Y-90082665D01*
X32815890Y-90089280D01*
X33847013Y-91120403D01*
X33859393Y-91127163D01*
X33867734Y-91120919D01*
X33993865Y-90924827D01*
X33998312Y-90916636D01*
X34101791Y-90686922D01*
X34104982Y-90678155D01*
X34173369Y-90435676D01*
X34175229Y-90426534D01*
X34207216Y-90175096D01*
X34207697Y-90168808D01*
X34209947Y-90082860D01*
X34209796Y-90076551D01*
X34191012Y-89823774D01*
X34189636Y-89814568D01*
X34134029Y-89568826D01*
X34131305Y-89559915D01*
X34039988Y-89325092D01*
X34035977Y-89316683D01*
X33910954Y-89097940D01*
X33905743Y-89090214D01*
X33868491Y-89042961D01*
X33856566Y-89034490D01*
X33845034Y-89040976D01*
X32819122Y-90066888D01*
X32811508Y-90080832D01*
X32081456Y-90080832D01*
X32082692Y-90078568D01*
X32082561Y-90076735D01*
X32078310Y-90070120D01*
X31048421Y-89040231D01*
X31035113Y-89032964D01*
X31025074Y-89040086D01*
X31014861Y-89052366D01*
X31009446Y-89059958D01*
X30878746Y-89275346D01*
X30874508Y-89283663D01*
X30777081Y-89515999D01*
X30774121Y-89524846D01*
X30756623Y-89593745D01*
X30720468Y-89654846D01*
X30657019Y-89686700D01*
X30586420Y-89679195D01*
X30531086Y-89634713D01*
X30508500Y-89562729D01*
X30508500Y-88668503D01*
X31400316Y-88668503D01*
X31404889Y-88678279D01*
X32434288Y-89707678D01*
X32448232Y-89715292D01*
X32450065Y-89715161D01*
X32456680Y-89710910D01*
X33485519Y-88682071D01*
X33491903Y-88670381D01*
X33482491Y-88658270D01*
X33345693Y-88563370D01*
X33337665Y-88558642D01*
X33111693Y-88447205D01*
X33103060Y-88443717D01*
X32863098Y-88366905D01*
X32854038Y-88364729D01*
X32605360Y-88324229D01*
X32596073Y-88323417D01*
X32344153Y-88320119D01*
X32334842Y-88320689D01*
X32085197Y-88354664D01*
X32076078Y-88356602D01*
X31834198Y-88427104D01*
X31825467Y-88430367D01*
X31596658Y-88535851D01*
X31588506Y-88540370D01*
X31409453Y-88657762D01*
X31400316Y-88668503D01*
X30508500Y-88668503D01*
X30508500Y-72608251D01*
X30528502Y-72540130D01*
X30582158Y-72493637D01*
X30652432Y-72483533D01*
X30717012Y-72513027D01*
X30753088Y-72565673D01*
X30836126Y-72796952D01*
X30838342Y-72801076D01*
X30947411Y-73004064D01*
X30959837Y-73027191D01*
X30962632Y-73030934D01*
X30962634Y-73030937D01*
X31113430Y-73232877D01*
X31113435Y-73232883D01*
X31116222Y-73236615D01*
X31119531Y-73239895D01*
X31119536Y-73239901D01*
X31297703Y-73416519D01*
X31301843Y-73420623D01*
X31305605Y-73423381D01*
X31305608Y-73423384D01*
X31435359Y-73518521D01*
X31512624Y-73575174D01*
X31516767Y-73577354D01*
X31516769Y-73577355D01*
X31739784Y-73694689D01*
X31739789Y-73694691D01*
X31743934Y-73696872D01*
X31990690Y-73783044D01*
X31995283Y-73783916D01*
X32242885Y-73830924D01*
X32242888Y-73830924D01*
X32247474Y-73831795D01*
X32378059Y-73836926D01*
X32503975Y-73841874D01*
X32503981Y-73841874D01*
X32508643Y-73842057D01*
X32588077Y-73833357D01*
X32763807Y-73814112D01*
X32763812Y-73814111D01*
X32768460Y-73813602D01*
X32881216Y-73783916D01*
X33016694Y-73748248D01*
X33016696Y-73748247D01*
X33021217Y-73747057D01*
X33027104Y-73744528D01*
X33257072Y-73645725D01*
X33261362Y-73643882D01*
X33334087Y-73598879D01*
X33479647Y-73508804D01*
X33479648Y-73508804D01*
X33483619Y-73506346D01*
X33487182Y-73503329D01*
X33487187Y-73503326D01*
X33679539Y-73340487D01*
X33679540Y-73340486D01*
X33683105Y-73337468D01*
X33830527Y-73169366D01*
X33852357Y-73144474D01*
X33852361Y-73144469D01*
X33855439Y-73140959D01*
X33889392Y-73088174D01*
X33955595Y-72985249D01*
X33996833Y-72921137D01*
X34104183Y-72682829D01*
X34131600Y-72585616D01*
X34173860Y-72435776D01*
X34173861Y-72435773D01*
X34175130Y-72431272D01*
X34191932Y-72299196D01*
X34207716Y-72175121D01*
X34207716Y-72175117D01*
X34208114Y-72171991D01*
X34210531Y-72079700D01*
X34209535Y-72066300D01*
X34191507Y-71823700D01*
X34191506Y-71823696D01*
X34191161Y-71819048D01*
X34185460Y-71793850D01*
X34134508Y-71568680D01*
X34133477Y-71564123D01*
X34103142Y-71486115D01*
X34040440Y-71324876D01*
X34040439Y-71324873D01*
X34038747Y-71320523D01*
X34021652Y-71290612D01*
X33911370Y-71097660D01*
X33909051Y-71093602D01*
X33747238Y-70888343D01*
X33556863Y-70709257D01*
X33383099Y-70588712D01*
X33345951Y-70562941D01*
X33345948Y-70562939D01*
X33342109Y-70560276D01*
X33336042Y-70557284D01*
X33111881Y-70446740D01*
X33111878Y-70446739D01*
X33107693Y-70444675D01*
X33061549Y-70429904D01*
X32863223Y-70366420D01*
X32858765Y-70364993D01*
X32600793Y-70322979D01*
X32487042Y-70321490D01*
X32344122Y-70319619D01*
X32344119Y-70319619D01*
X32339445Y-70319558D01*
X32080462Y-70354804D01*
X31829533Y-70427943D01*
X31825280Y-70429903D01*
X31825279Y-70429904D01*
X31788759Y-70446740D01*
X31592172Y-70537368D01*
X31554439Y-70562107D01*
X31377504Y-70678110D01*
X31377499Y-70678114D01*
X31373591Y-70680676D01*
X31178594Y-70854718D01*
X31011463Y-71055670D01*
X30875871Y-71279119D01*
X30774797Y-71520155D01*
X30773648Y-71524680D01*
X30756623Y-71591714D01*
X30720468Y-71652815D01*
X30657019Y-71684669D01*
X30586420Y-71677164D01*
X30531086Y-71632681D01*
X30508500Y-71560698D01*
X30508500Y-65975100D01*
X35461835Y-65975100D01*
X35480465Y-66211811D01*
X35481619Y-66216618D01*
X35481620Y-66216624D01*
X35489841Y-66250867D01*
X35535895Y-66442694D01*
X35537788Y-66447265D01*
X35537789Y-66447267D01*
X35619039Y-66643422D01*
X35626760Y-66662063D01*
X35629346Y-66666283D01*
X35748241Y-66860302D01*
X35748245Y-66860308D01*
X35750824Y-66864516D01*
X35905031Y-67045069D01*
X36085584Y-67199276D01*
X36089792Y-67201855D01*
X36089798Y-67201859D01*
X36236859Y-67291978D01*
X36288037Y-67323340D01*
X36292607Y-67325233D01*
X36292611Y-67325235D01*
X36501182Y-67411627D01*
X36507406Y-67414205D01*
X36587609Y-67433460D01*
X36733476Y-67468480D01*
X36733482Y-67468481D01*
X36738289Y-67469635D01*
X36975000Y-67488265D01*
X37211711Y-67469635D01*
X37216518Y-67468481D01*
X37216524Y-67468480D01*
X37362391Y-67433460D01*
X37442594Y-67414205D01*
X37448818Y-67411627D01*
X37657389Y-67325235D01*
X37657393Y-67325233D01*
X37661963Y-67323340D01*
X37713141Y-67291978D01*
X37860202Y-67201859D01*
X37860208Y-67201855D01*
X37864416Y-67199276D01*
X38044969Y-67045069D01*
X38199176Y-66864516D01*
X38201755Y-66860308D01*
X38201759Y-66860302D01*
X38320654Y-66666283D01*
X38323240Y-66662063D01*
X38330962Y-66643422D01*
X38412211Y-66447267D01*
X38412212Y-66447265D01*
X38414105Y-66442694D01*
X38460159Y-66250867D01*
X38468380Y-66216624D01*
X38468381Y-66216618D01*
X38469535Y-66211811D01*
X38488165Y-65975100D01*
X38469535Y-65738389D01*
X38456367Y-65683537D01*
X38422386Y-65541998D01*
X38414105Y-65507506D01*
X38403480Y-65481854D01*
X38325135Y-65292711D01*
X38325133Y-65292707D01*
X38323240Y-65288137D01*
X38277523Y-65213534D01*
X38201759Y-65089898D01*
X38201755Y-65089892D01*
X38199176Y-65085684D01*
X38044969Y-64905131D01*
X37864416Y-64750924D01*
X37860208Y-64748345D01*
X37860202Y-64748341D01*
X37666183Y-64629446D01*
X37661963Y-64626860D01*
X37657393Y-64624967D01*
X37657389Y-64624965D01*
X37447167Y-64537889D01*
X37447165Y-64537888D01*
X37442594Y-64535995D01*
X37350770Y-64513950D01*
X37216524Y-64481720D01*
X37216518Y-64481719D01*
X37211711Y-64480565D01*
X36975000Y-64461935D01*
X36738289Y-64480565D01*
X36733482Y-64481719D01*
X36733476Y-64481720D01*
X36599230Y-64513950D01*
X36507406Y-64535995D01*
X36502835Y-64537888D01*
X36502833Y-64537889D01*
X36292611Y-64624965D01*
X36292607Y-64624967D01*
X36288037Y-64626860D01*
X36283817Y-64629446D01*
X36089798Y-64748341D01*
X36089792Y-64748345D01*
X36085584Y-64750924D01*
X35905031Y-64905131D01*
X35750824Y-65085684D01*
X35748245Y-65089892D01*
X35748241Y-65089898D01*
X35672477Y-65213534D01*
X35626760Y-65288137D01*
X35624867Y-65292707D01*
X35624865Y-65292711D01*
X35546520Y-65481854D01*
X35535895Y-65507506D01*
X35527614Y-65541998D01*
X35493634Y-65683537D01*
X35480465Y-65738389D01*
X35461835Y-65975100D01*
X30508500Y-65975100D01*
X30508500Y-61475100D01*
X35461835Y-61475100D01*
X35480465Y-61711811D01*
X35481619Y-61716618D01*
X35481620Y-61716624D01*
X35505459Y-61815918D01*
X35535895Y-61942694D01*
X35537788Y-61947265D01*
X35537789Y-61947267D01*
X35618219Y-62141442D01*
X35626760Y-62162063D01*
X35629346Y-62166283D01*
X35748241Y-62360302D01*
X35748245Y-62360308D01*
X35750824Y-62364516D01*
X35905031Y-62545069D01*
X36085584Y-62699276D01*
X36089792Y-62701855D01*
X36089798Y-62701859D01*
X36205276Y-62772624D01*
X36288037Y-62823340D01*
X36292607Y-62825233D01*
X36292611Y-62825235D01*
X36502833Y-62912311D01*
X36507406Y-62914205D01*
X36587609Y-62933460D01*
X36733476Y-62968480D01*
X36733482Y-62968481D01*
X36738289Y-62969635D01*
X36975000Y-62988265D01*
X37211711Y-62969635D01*
X37216518Y-62968481D01*
X37216524Y-62968480D01*
X37362391Y-62933460D01*
X37442594Y-62914205D01*
X37447167Y-62912311D01*
X37657389Y-62825235D01*
X37657393Y-62825233D01*
X37661963Y-62823340D01*
X37744724Y-62772624D01*
X37860202Y-62701859D01*
X37860208Y-62701855D01*
X37864416Y-62699276D01*
X38044969Y-62545069D01*
X38199176Y-62364516D01*
X38201755Y-62360308D01*
X38201759Y-62360302D01*
X38320654Y-62166283D01*
X38323240Y-62162063D01*
X38331782Y-62141442D01*
X38412211Y-61947267D01*
X38412212Y-61947265D01*
X38414105Y-61942694D01*
X38444541Y-61815918D01*
X38468380Y-61716624D01*
X38468381Y-61716618D01*
X38469535Y-61711811D01*
X38488165Y-61475100D01*
X38469535Y-61238389D01*
X38467282Y-61229001D01*
X38424773Y-61051941D01*
X38414105Y-61007506D01*
X38345339Y-60841489D01*
X38325135Y-60792711D01*
X38325133Y-60792707D01*
X38323240Y-60788137D01*
X38240549Y-60653198D01*
X38201759Y-60589898D01*
X38201755Y-60589892D01*
X38199176Y-60585684D01*
X38044969Y-60405131D01*
X37864416Y-60250924D01*
X37860208Y-60248345D01*
X37860202Y-60248341D01*
X37666183Y-60129446D01*
X37661963Y-60126860D01*
X37657393Y-60124967D01*
X37657389Y-60124965D01*
X37447167Y-60037889D01*
X37447165Y-60037888D01*
X37442594Y-60035995D01*
X37362391Y-60016740D01*
X37216524Y-59981720D01*
X37216518Y-59981719D01*
X37211711Y-59980565D01*
X36975000Y-59961935D01*
X36738289Y-59980565D01*
X36733482Y-59981719D01*
X36733476Y-59981720D01*
X36587609Y-60016740D01*
X36507406Y-60035995D01*
X36502835Y-60037888D01*
X36502833Y-60037889D01*
X36292611Y-60124965D01*
X36292607Y-60124967D01*
X36288037Y-60126860D01*
X36283817Y-60129446D01*
X36089798Y-60248341D01*
X36089792Y-60248345D01*
X36085584Y-60250924D01*
X35905031Y-60405131D01*
X35750824Y-60585684D01*
X35748245Y-60589892D01*
X35748241Y-60589898D01*
X35709451Y-60653198D01*
X35626760Y-60788137D01*
X35624867Y-60792707D01*
X35624865Y-60792711D01*
X35604661Y-60841489D01*
X35535895Y-61007506D01*
X35525227Y-61051941D01*
X35482719Y-61229001D01*
X35480465Y-61238389D01*
X35461835Y-61475100D01*
X30508500Y-61475100D01*
X30508500Y-58246762D01*
X30528502Y-58178641D01*
X30582158Y-58132148D01*
X30652432Y-58122044D01*
X30717012Y-58151538D01*
X30745753Y-58187612D01*
X30756732Y-58208262D01*
X30757343Y-58209426D01*
X30776469Y-58246323D01*
X30800108Y-58291926D01*
X30803431Y-58296089D01*
X30805934Y-58300796D01*
X30864755Y-58372918D01*
X30865446Y-58373774D01*
X30896738Y-58412973D01*
X30899242Y-58415477D01*
X30899884Y-58416195D01*
X30903585Y-58420528D01*
X30930935Y-58454062D01*
X30935682Y-58457989D01*
X30935684Y-58457991D01*
X30966262Y-58483287D01*
X30975042Y-58491277D01*
X31443149Y-58959384D01*
X31452251Y-58969527D01*
X31475968Y-58999025D01*
X31514446Y-59031312D01*
X31518062Y-59034467D01*
X31519888Y-59036123D01*
X31522074Y-59038309D01*
X31524454Y-59040264D01*
X31524464Y-59040273D01*
X31555268Y-59065576D01*
X31556283Y-59066418D01*
X31627474Y-59126154D01*
X31632148Y-59128723D01*
X31636261Y-59132102D01*
X31685296Y-59158394D01*
X31718047Y-59175955D01*
X31719177Y-59176568D01*
X31800787Y-59221433D01*
X31805869Y-59223045D01*
X31810563Y-59225562D01*
X31899531Y-59252762D01*
X31900559Y-59253082D01*
X31989306Y-59281235D01*
X31994602Y-59281829D01*
X31999698Y-59283387D01*
X32092222Y-59292785D01*
X32093342Y-59292905D01*
X32126664Y-59296642D01*
X32139730Y-59298108D01*
X32139734Y-59298108D01*
X32143227Y-59298500D01*
X32146754Y-59298500D01*
X32147757Y-59298556D01*
X32153441Y-59299003D01*
X32178857Y-59301585D01*
X32190336Y-59302751D01*
X32190338Y-59302751D01*
X32196462Y-59303373D01*
X32242101Y-59299059D01*
X32253957Y-59298500D01*
X37256168Y-59298500D01*
X37281074Y-59300986D01*
X37281577Y-59301087D01*
X37287473Y-59302890D01*
X37293604Y-59303513D01*
X37293605Y-59303513D01*
X37478109Y-59322255D01*
X37478114Y-59322255D01*
X37484237Y-59322877D01*
X37608300Y-59311149D01*
X37675004Y-59304844D01*
X37675006Y-59304844D01*
X37681137Y-59304264D01*
X37775904Y-59276013D01*
X37864768Y-59249522D01*
X37864770Y-59249521D01*
X37870671Y-59247762D01*
X38045621Y-59155521D01*
X38051885Y-59150449D01*
X38194532Y-59034935D01*
X38194533Y-59034934D01*
X38199322Y-59031056D01*
X38267862Y-58948792D01*
X38321980Y-58883838D01*
X38321983Y-58883833D01*
X38325921Y-58879107D01*
X38420596Y-58705462D01*
X38479739Y-58516734D01*
X38482807Y-58488497D01*
X38500434Y-58326239D01*
X38500434Y-58326235D01*
X38501099Y-58320114D01*
X38483862Y-58123090D01*
X38428684Y-57933166D01*
X38337667Y-57757577D01*
X38292983Y-57701603D01*
X38243234Y-57639283D01*
X38243231Y-57639280D01*
X38241036Y-57636530D01*
X38225127Y-57620621D01*
X38216025Y-57610478D01*
X38196169Y-57585782D01*
X38192304Y-57580975D01*
X38153850Y-57548708D01*
X38150203Y-57545528D01*
X38148391Y-57543885D01*
X38146197Y-57541691D01*
X38112923Y-57514358D01*
X38112125Y-57513696D01*
X38040798Y-57453846D01*
X38036128Y-57451278D01*
X38032011Y-57447897D01*
X37969869Y-57414577D01*
X37950186Y-57404023D01*
X37949027Y-57403394D01*
X37872891Y-57361538D01*
X37872883Y-57361535D01*
X37867485Y-57358567D01*
X37862403Y-57356955D01*
X37857709Y-57354438D01*
X37768741Y-57327238D01*
X37767713Y-57326918D01*
X37678966Y-57298765D01*
X37673670Y-57298171D01*
X37668574Y-57296613D01*
X37576015Y-57287210D01*
X37574879Y-57287089D01*
X37541264Y-57283319D01*
X37528542Y-57281892D01*
X37528538Y-57281892D01*
X37525045Y-57281500D01*
X37521518Y-57281500D01*
X37520533Y-57281445D01*
X37514853Y-57280998D01*
X37485447Y-57278011D01*
X37477935Y-57277248D01*
X37477933Y-57277248D01*
X37471810Y-57276626D01*
X37429531Y-57280623D01*
X37426163Y-57280941D01*
X37414305Y-57281500D01*
X32784500Y-57281500D01*
X32716379Y-57261498D01*
X32669886Y-57207842D01*
X32658500Y-57155500D01*
X32658500Y-39340231D01*
X32657814Y-39333227D01*
X32644681Y-39199301D01*
X32644080Y-39193167D01*
X32586916Y-39003831D01*
X32494066Y-38829204D01*
X32423709Y-38742938D01*
X32372960Y-38680713D01*
X32372957Y-38680710D01*
X32369065Y-38675938D01*
X32362724Y-38670692D01*
X32221425Y-38553799D01*
X32221421Y-38553797D01*
X32216675Y-38549870D01*
X32042701Y-38455802D01*
X31853768Y-38397318D01*
X31847643Y-38396674D01*
X31847642Y-38396674D01*
X31663204Y-38377289D01*
X31663202Y-38377289D01*
X31657075Y-38376645D01*
X31574576Y-38384153D01*
X31466251Y-38394011D01*
X31466248Y-38394012D01*
X31460112Y-38394570D01*
X31454206Y-38396308D01*
X31454202Y-38396309D01*
X31408238Y-38409837D01*
X31270381Y-38450410D01*
X31264923Y-38453263D01*
X31264919Y-38453265D01*
X31174147Y-38500720D01*
X31095110Y-38542040D01*
X30940975Y-38665968D01*
X30813846Y-38817474D01*
X30744915Y-38942860D01*
X30694570Y-38992918D01*
X30625153Y-39007812D01*
X30558704Y-38982811D01*
X30516319Y-38925855D01*
X30508500Y-38882159D01*
X30508500Y-36790831D01*
X30528502Y-36722710D01*
X30582158Y-36676217D01*
X30633730Y-36664833D01*
X59300000Y-36490000D01*
X59301376Y-36311192D01*
X59311415Y-35006054D01*
X59316085Y-34398935D01*
X79588658Y-34398935D01*
X79588745Y-34402936D01*
X79588745Y-34402943D01*
X79595273Y-34702134D01*
X79595361Y-34706150D01*
X79641047Y-35010024D01*
X79642142Y-35013882D01*
X79642143Y-35013885D01*
X79695470Y-35201712D01*
X79724973Y-35305629D01*
X79845781Y-35588174D01*
X80001510Y-35853079D01*
X80003963Y-35856247D01*
X80003965Y-35856250D01*
X80058230Y-35926333D01*
X80189638Y-36096049D01*
X80407113Y-36313145D01*
X80410294Y-36315599D01*
X80410295Y-36315600D01*
X80636350Y-36490000D01*
X80650411Y-36500848D01*
X80653890Y-36502885D01*
X80834255Y-36608493D01*
X80915587Y-36656115D01*
X80919272Y-36657683D01*
X80919276Y-36657685D01*
X81056965Y-36716272D01*
X81198343Y-36776429D01*
X81494094Y-36859840D01*
X81715560Y-36892741D01*
X81794748Y-36904505D01*
X81794750Y-36904505D01*
X81798047Y-36904995D01*
X81801378Y-36905135D01*
X81801382Y-36905135D01*
X81838335Y-36906683D01*
X81881677Y-36908500D01*
X82077740Y-36908500D01*
X82201644Y-36900596D01*
X82302657Y-36894153D01*
X82302662Y-36894152D01*
X82306665Y-36893897D01*
X82310602Y-36893135D01*
X82310604Y-36893135D01*
X82366195Y-36882379D01*
X82608359Y-36835526D01*
X82612174Y-36834268D01*
X82612178Y-36834267D01*
X82896368Y-36740556D01*
X82896373Y-36740554D01*
X82900191Y-36739295D01*
X83177429Y-36606762D01*
X83180794Y-36604589D01*
X83180798Y-36604587D01*
X83432214Y-36442250D01*
X83432220Y-36442245D01*
X83435580Y-36440076D01*
X83670459Y-36241939D01*
X83878258Y-36015563D01*
X83992059Y-35854538D01*
X89246293Y-35854538D01*
X89259027Y-36075368D01*
X89260461Y-36085570D01*
X89309085Y-36301339D01*
X89312173Y-36311192D01*
X89395386Y-36516120D01*
X89400034Y-36525321D01*
X89488497Y-36669681D01*
X89498953Y-36679142D01*
X89507731Y-36675358D01*
X90286379Y-35896711D01*
X90292756Y-35885032D01*
X91022808Y-35885032D01*
X91022939Y-35886866D01*
X91027190Y-35893480D01*
X91804707Y-36670996D01*
X91816713Y-36677552D01*
X91828452Y-36668584D01*
X91866410Y-36615759D01*
X91871721Y-36606920D01*
X91969718Y-36408637D01*
X91973517Y-36399042D01*
X92037815Y-36187417D01*
X92039994Y-36177336D01*
X92069102Y-35956238D01*
X92069621Y-35949563D01*
X92071144Y-35887264D01*
X92070950Y-35880546D01*
X92052679Y-35658300D01*
X92050996Y-35648138D01*
X91997110Y-35433608D01*
X91993789Y-35423853D01*
X91905593Y-35221018D01*
X91900715Y-35211920D01*
X91827624Y-35098938D01*
X91816938Y-35089735D01*
X91807373Y-35094138D01*
X91030421Y-35871089D01*
X91022808Y-35885032D01*
X90292756Y-35885032D01*
X90293992Y-35882768D01*
X90293861Y-35880934D01*
X90289610Y-35874320D01*
X89512262Y-35096973D01*
X89500730Y-35090676D01*
X89488448Y-35100299D01*
X89432867Y-35181777D01*
X89427779Y-35190733D01*
X89334652Y-35391359D01*
X89331089Y-35401046D01*
X89271981Y-35614180D01*
X89270050Y-35624300D01*
X89246545Y-35844249D01*
X89246293Y-35854538D01*
X83992059Y-35854538D01*
X84055608Y-35764619D01*
X84185739Y-35519361D01*
X84197751Y-35496722D01*
X84197751Y-35496721D01*
X84199634Y-35493173D01*
X84201050Y-35489416D01*
X84306585Y-35209388D01*
X84306587Y-35209382D01*
X84308002Y-35205627D01*
X84378955Y-34906642D01*
X84398248Y-34724611D01*
X89863908Y-34724611D01*
X89870651Y-34736940D01*
X90645589Y-35511879D01*
X90659532Y-35519492D01*
X90661366Y-35519361D01*
X90667980Y-35515110D01*
X91447394Y-34735695D01*
X91454411Y-34722844D01*
X91446637Y-34712174D01*
X91444302Y-34710330D01*
X91435720Y-34704629D01*
X91242078Y-34597733D01*
X91232672Y-34593506D01*
X91024172Y-34519672D01*
X91014209Y-34517040D01*
X90796447Y-34478250D01*
X90786196Y-34477281D01*
X90565016Y-34474579D01*
X90554732Y-34475299D01*
X90336093Y-34508755D01*
X90326066Y-34511144D01*
X90115826Y-34579861D01*
X90106316Y-34583858D01*
X89910125Y-34685989D01*
X89901407Y-34691478D01*
X89872361Y-34713286D01*
X89863908Y-34724611D01*
X84398248Y-34724611D01*
X84411342Y-34601065D01*
X84411178Y-34593506D01*
X84406932Y-34398935D01*
X123188658Y-34398935D01*
X123188745Y-34402936D01*
X123188745Y-34402943D01*
X123195273Y-34702134D01*
X123195361Y-34706150D01*
X123241047Y-35010024D01*
X123242142Y-35013882D01*
X123242143Y-35013885D01*
X123295470Y-35201712D01*
X123324973Y-35305629D01*
X123445781Y-35588174D01*
X123601510Y-35853079D01*
X123603963Y-35856247D01*
X123603965Y-35856250D01*
X123658230Y-35926333D01*
X123789638Y-36096049D01*
X124007113Y-36313145D01*
X124010294Y-36315599D01*
X124010295Y-36315600D01*
X124236350Y-36490000D01*
X124250411Y-36500848D01*
X124253890Y-36502885D01*
X124434255Y-36608493D01*
X124515587Y-36656115D01*
X124519272Y-36657683D01*
X124519276Y-36657685D01*
X124656965Y-36716272D01*
X124798343Y-36776429D01*
X125094094Y-36859840D01*
X125315560Y-36892741D01*
X125394748Y-36904505D01*
X125394750Y-36904505D01*
X125398047Y-36904995D01*
X125401378Y-36905135D01*
X125401382Y-36905135D01*
X125438335Y-36906683D01*
X125481677Y-36908500D01*
X125677740Y-36908500D01*
X125801644Y-36900596D01*
X125902657Y-36894153D01*
X125902662Y-36894152D01*
X125906665Y-36893897D01*
X125910602Y-36893135D01*
X125910604Y-36893135D01*
X125966195Y-36882379D01*
X126208359Y-36835526D01*
X126212174Y-36834268D01*
X126212178Y-36834267D01*
X126496368Y-36740556D01*
X126496373Y-36740554D01*
X126500191Y-36739295D01*
X126777429Y-36606762D01*
X126780794Y-36604589D01*
X126780798Y-36604587D01*
X127032214Y-36442250D01*
X127032220Y-36442245D01*
X127035580Y-36440076D01*
X127270459Y-36241939D01*
X127478258Y-36015563D01*
X127655608Y-35764619D01*
X127785739Y-35519361D01*
X127797751Y-35496722D01*
X127797751Y-35496721D01*
X127799634Y-35493173D01*
X127801050Y-35489416D01*
X127906585Y-35209388D01*
X127906587Y-35209382D01*
X127908002Y-35205627D01*
X127978955Y-34906642D01*
X128011342Y-34601065D01*
X128011178Y-34593506D01*
X128004727Y-34297866D01*
X128004726Y-34297860D01*
X128004639Y-34293850D01*
X127958953Y-33989976D01*
X127956211Y-33980316D01*
X127876121Y-33698224D01*
X127876121Y-33698223D01*
X127875027Y-33694371D01*
X127754219Y-33411826D01*
X127598490Y-33146921D01*
X127410362Y-32903951D01*
X127192887Y-32686855D01*
X127189705Y-32684400D01*
X126952782Y-32501615D01*
X126952778Y-32501612D01*
X126949589Y-32499152D01*
X126768702Y-32393238D01*
X126687877Y-32345913D01*
X126687874Y-32345911D01*
X126684413Y-32343885D01*
X126680728Y-32342317D01*
X126680724Y-32342315D01*
X126485964Y-32259444D01*
X126401657Y-32223571D01*
X126105906Y-32140160D01*
X125874934Y-32105847D01*
X125805252Y-32095495D01*
X125805250Y-32095495D01*
X125801953Y-32095005D01*
X125798622Y-32094865D01*
X125798618Y-32094865D01*
X125761665Y-32093317D01*
X125718323Y-32091500D01*
X125522260Y-32091500D01*
X125398356Y-32099404D01*
X125297343Y-32105847D01*
X125297338Y-32105848D01*
X125293335Y-32106103D01*
X125289398Y-32106865D01*
X125289396Y-32106865D01*
X125236822Y-32117037D01*
X124991641Y-32164474D01*
X124987826Y-32165732D01*
X124987822Y-32165733D01*
X124703632Y-32259444D01*
X124703627Y-32259446D01*
X124699809Y-32260705D01*
X124422571Y-32393238D01*
X124419206Y-32395411D01*
X124419202Y-32395413D01*
X124167786Y-32557750D01*
X124167780Y-32557755D01*
X124164420Y-32559924D01*
X123929541Y-32758061D01*
X123721742Y-32984437D01*
X123544392Y-33235381D01*
X123400366Y-33506827D01*
X123398951Y-33510583D01*
X123398950Y-33510584D01*
X123320993Y-33717438D01*
X123291998Y-33794373D01*
X123291069Y-33798288D01*
X123229548Y-34057529D01*
X123221045Y-34093358D01*
X123188658Y-34398935D01*
X84406932Y-34398935D01*
X84404727Y-34297866D01*
X84404726Y-34297860D01*
X84404639Y-34293850D01*
X84358953Y-33989976D01*
X84356211Y-33980316D01*
X84276121Y-33698224D01*
X84276121Y-33698223D01*
X84275027Y-33694371D01*
X84154219Y-33411826D01*
X83998490Y-33146921D01*
X83810362Y-32903951D01*
X83592887Y-32686855D01*
X83589705Y-32684400D01*
X83352782Y-32501615D01*
X83352778Y-32501612D01*
X83349589Y-32499152D01*
X83168702Y-32393238D01*
X83087877Y-32345913D01*
X83087874Y-32345911D01*
X83084413Y-32343885D01*
X83080728Y-32342317D01*
X83080724Y-32342315D01*
X82885964Y-32259444D01*
X82801657Y-32223571D01*
X82505906Y-32140160D01*
X82274934Y-32105847D01*
X82205252Y-32095495D01*
X82205250Y-32095495D01*
X82201953Y-32095005D01*
X82198622Y-32094865D01*
X82198618Y-32094865D01*
X82161665Y-32093317D01*
X82118323Y-32091500D01*
X81922260Y-32091500D01*
X81798356Y-32099404D01*
X81697343Y-32105847D01*
X81697338Y-32105848D01*
X81693335Y-32106103D01*
X81689398Y-32106865D01*
X81689396Y-32106865D01*
X81636822Y-32117037D01*
X81391641Y-32164474D01*
X81387826Y-32165732D01*
X81387822Y-32165733D01*
X81103632Y-32259444D01*
X81103627Y-32259446D01*
X81099809Y-32260705D01*
X80822571Y-32393238D01*
X80819206Y-32395411D01*
X80819202Y-32395413D01*
X80567786Y-32557750D01*
X80567780Y-32557755D01*
X80564420Y-32559924D01*
X80329541Y-32758061D01*
X80121742Y-32984437D01*
X79944392Y-33235381D01*
X79800366Y-33506827D01*
X79798951Y-33510583D01*
X79798950Y-33510584D01*
X79720993Y-33717438D01*
X79691998Y-33794373D01*
X79691069Y-33798288D01*
X79629548Y-34057529D01*
X79621045Y-34093358D01*
X79588658Y-34398935D01*
X59316085Y-34398935D01*
X59319784Y-33918134D01*
X69761500Y-33918134D01*
X69768255Y-33980316D01*
X69819385Y-34116705D01*
X69906739Y-34233261D01*
X70023295Y-34320615D01*
X70159684Y-34371745D01*
X70221866Y-34378500D01*
X72018134Y-34378500D01*
X72080316Y-34371745D01*
X72216705Y-34320615D01*
X72333261Y-34233261D01*
X72420615Y-34116705D01*
X72429367Y-34093358D01*
X72464598Y-33999382D01*
X72507240Y-33942618D01*
X72573802Y-33917918D01*
X72643150Y-33933126D01*
X72677817Y-33961114D01*
X72706250Y-33993938D01*
X72878126Y-34136632D01*
X73071000Y-34249338D01*
X73279692Y-34329030D01*
X73284760Y-34330061D01*
X73284763Y-34330062D01*
X73392017Y-34351883D01*
X73498597Y-34373567D01*
X73503772Y-34373757D01*
X73503774Y-34373757D01*
X73716673Y-34381564D01*
X73716677Y-34381564D01*
X73721837Y-34381753D01*
X73726957Y-34381097D01*
X73726959Y-34381097D01*
X73938288Y-34354025D01*
X73938289Y-34354025D01*
X73943416Y-34353368D01*
X73948366Y-34351883D01*
X74152429Y-34290661D01*
X74152434Y-34290659D01*
X74157384Y-34289174D01*
X74357994Y-34190896D01*
X74539860Y-34061173D01*
X74698096Y-33903489D01*
X74828453Y-33722077D01*
X74927430Y-33521811D01*
X74992370Y-33308069D01*
X75021529Y-33086590D01*
X75023156Y-33020000D01*
X75004852Y-32797361D01*
X74950431Y-32580702D01*
X74861354Y-32375840D01*
X74786054Y-32259444D01*
X74742822Y-32192617D01*
X74742820Y-32192614D01*
X74740014Y-32188277D01*
X74589670Y-32023051D01*
X74585619Y-32019852D01*
X74585615Y-32019848D01*
X74418414Y-31887800D01*
X74418410Y-31887798D01*
X74414359Y-31884598D01*
X74218789Y-31776638D01*
X74213920Y-31774914D01*
X74213916Y-31774912D01*
X74013087Y-31703795D01*
X74013083Y-31703794D01*
X74008212Y-31702069D01*
X74003119Y-31701162D01*
X74003116Y-31701161D01*
X73793373Y-31663800D01*
X73793367Y-31663799D01*
X73788284Y-31662894D01*
X73714452Y-31661992D01*
X73570081Y-31660228D01*
X73570079Y-31660228D01*
X73564911Y-31660165D01*
X73344091Y-31693955D01*
X73131756Y-31763357D01*
X72933607Y-31866507D01*
X72929474Y-31869610D01*
X72929471Y-31869612D01*
X72759100Y-31997530D01*
X72754965Y-32000635D01*
X72698537Y-32059684D01*
X72674283Y-32085064D01*
X72612759Y-32120494D01*
X72541846Y-32117037D01*
X72484060Y-32075791D01*
X72465207Y-32042243D01*
X72423767Y-31931703D01*
X72420615Y-31923295D01*
X72333261Y-31806739D01*
X72216705Y-31719385D01*
X72080316Y-31668255D01*
X72018134Y-31661500D01*
X70221866Y-31661500D01*
X70159684Y-31668255D01*
X70023295Y-31719385D01*
X69906739Y-31806739D01*
X69819385Y-31923295D01*
X69768255Y-32059684D01*
X69761500Y-32121866D01*
X69761500Y-33918134D01*
X59319784Y-33918134D01*
X59345050Y-30633529D01*
X59365574Y-30565566D01*
X59419586Y-30519487D01*
X59471045Y-30508500D01*
X129365500Y-30508500D01*
X129433621Y-30528502D01*
G37*
%TD.AperFunction*%
%TD*%
M02*
